<?xml version="1.0" encoding="UTF-8"?>
<svg xmlns="http://www.w3.org/2000/svg" xmlns:xlink="http://www.w3.org/1999/xlink" width="40pt" height="40pt" viewBox="0 0 40 40" version="1.1">
<g id="surface1">
<path style=" stroke:none;fill-rule:nonzero;fill:rgb(40%,66.27451%,87.45098%);fill-opacity:1;" d="M 20 40 C 8.945312 40 0 31.042969 0 20 C 0 8.945312 8.945312 0 20 0 C 31.054688 0 40 8.945312 40 20 C 40 31.054688 31.042969 40 20 40 Z M 20 40 "/>
<path style=" stroke:none;fill-rule:nonzero;fill:rgb(30.980392%,51.764706%,81.176471%);fill-opacity:1;" d="M 20 0 L 20 40 C 31.042969 40 40 31.054688 40 20 C 40 8.945312 31.054688 0 20 0 Z M 20 0 "/>
<path style=" stroke:none;fill-rule:nonzero;fill:rgb(83.921569%,95.294118%,99.607843%);fill-opacity:1;" d="M 20 24.6875 C 14.179688 24.6875 8.632812 27.230469 4.578125 32.730469 C 12.652344 42.492188 27.597656 42.410156 35.566406 32.558594 C 33.597656 30.601562 29.167969 24.6875 20 24.6875 Z M 20 24.6875 "/>
<path style=" stroke:none;fill-rule:nonzero;fill:rgb(74.117647%,92.54902%,98.823529%);fill-opacity:1;" d="M 35.566406 32.558594 C 31.804688 37.207031 26.160156 40 20 40 L 20 24.6875 C 29.167969 24.6875 33.597656 30.601562 35.566406 32.558594 Z M 35.566406 32.558594 "/>
<path style=" stroke:none;fill-rule:nonzero;fill:rgb(83.921569%,95.294118%,99.607843%);fill-opacity:1;" d="M 20 21.171875 C 16.121094 21.171875 12.96875 18.015625 12.96875 14.140625 L 12.96875 11.796875 C 12.96875 7.917969 16.121094 4.765625 20 4.765625 C 23.875 4.765625 27.03125 7.917969 27.03125 11.796875 L 27.03125 14.140625 C 27.03125 18.015625 23.875 21.171875 20 21.171875 Z M 20 21.171875 "/>
<path style=" stroke:none;fill-rule:nonzero;fill:rgb(74.117647%,92.54902%,98.823529%);fill-opacity:1;" d="M 20 4.765625 L 20 21.171875 C 23.878906 21.171875 27.03125 18.019531 27.03125 14.140625 L 27.03125 11.796875 C 27.03125 7.917969 23.878906 4.765625 20 4.765625 Z M 20 4.765625 "/>
</g>
</svg>
