<?xml version='1.0' encoding='UTF-8'?>
<svg x="0px" y="0px" viewBox="0 0 32 32" version="1.1" xmlns="http://www.w3.org/2000/svg" xmlns:xlink="http://www.w3.org/1999/xlink" xml:space="preserve" id="Layer_1">
  <g id="StateMachine">
    <path d="M16,6h-2L4,22l2,2h18l2-2L16,6z M23.2,22H6.8l-0.3-0.3L15,8.2l8.5,13.5L23.2,22z" fill="#727272" class="Black" />
    <path d="M5,28c-2.8,0-5-2.2-5-5s2.2-5,5-5s5,2.2,5,5S7.8,28,5,28z M30,23c0-2.8-2.2-5-5-5s-5,2.2-5,5s2.2,5,5,5   S30,25.8,30,23z M20,7c0-2.8-2.2-5-5-5s-5,2.2-5,5s2.2,5,5,5S20,9.8,20,7z" fill="#1177D7" class="Blue" />
  </g>
</svg>