<?xml version="1.0" encoding="UTF-8"?>
<svg xmlns="http://www.w3.org/2000/svg" xmlns:xlink="http://www.w3.org/1999/xlink" width="32pt" height="32pt" viewBox="0 0 32 32" version="1.1">
<defs>
<linearGradient id="linear0" gradientUnits="userSpaceOnUse" x1="0" y1="-16688" x2="512" y2="-16688" gradientTransform="matrix(0.0625,0,0,-0.0625,0,-1027)">
<stop offset="0" style="stop-color:rgb(19.215686%,84.705882%,100%);stop-opacity:1;"/>
<stop offset="1" style="stop-color:rgb(100%,50.196078%,100%);stop-opacity:1;"/>
</linearGradient>
</defs>
<g id="surface1">
<path style=" stroke:none;fill-rule:nonzero;fill:url(#linear0);" d="M 32 16 C 32 24.835938 24.835938 32 16 32 C 7.164062 32 0 24.835938 0 16 C 0 7.164062 7.164062 0 16 0 C 24.835938 0 32 7.164062 32 16 Z M 32 16 "/>
<path style=" stroke:none;fill-rule:nonzero;fill:rgb(100%,100%,100%);fill-opacity:1;" d="M 14.546875 5.53125 L 6.46875 5.53125 C 5.949219 5.53125 5.53125 5.949219 5.53125 6.46875 L 5.53125 14.546875 C 5.53125 15.0625 5.949219 15.484375 6.46875 15.484375 L 14.546875 15.484375 C 15.0625 15.484375 15.484375 15.0625 15.484375 14.546875 L 15.484375 6.46875 C 15.484375 5.949219 15.0625 5.53125 14.546875 5.53125 Z M 13.609375 13.609375 L 7.40625 13.609375 L 7.40625 7.40625 L 13.609375 7.40625 Z M 13.609375 13.609375 "/>
<path style=" stroke:none;fill-rule:nonzero;fill:rgb(100%,100%,100%);fill-opacity:1;" d="M 25.890625 16.585938 C 25.539062 16.441406 25.136719 16.523438 24.867188 16.789062 L 16.789062 24.867188 C 16.523438 25.136719 16.441406 25.539062 16.585938 25.890625 C 16.734375 26.242188 17.074219 26.46875 17.453125 26.46875 L 25.53125 26.46875 C 26.050781 26.46875 26.46875 26.050781 26.46875 25.53125 L 26.46875 17.453125 C 26.46875 17.074219 26.242188 16.734375 25.890625 16.585938 Z M 24.59375 24.59375 L 19.71875 24.59375 L 24.59375 19.71875 Z M 24.59375 24.59375 "/>
<path style=" stroke:none;fill-rule:nonzero;fill:rgb(100%,100%,100%);fill-opacity:1;" d="M 21.492188 15.484375 C 24.234375 15.484375 26.46875 13.25 26.46875 10.507812 C 26.46875 7.765625 24.234375 5.53125 21.492188 5.53125 C 18.75 5.53125 16.515625 7.765625 16.515625 10.507812 C 16.515625 13.25 18.75 15.484375 21.492188 15.484375 Z M 21.492188 7.40625 C 23.203125 7.40625 24.59375 8.796875 24.59375 10.507812 C 24.59375 12.21875 23.203125 13.609375 21.492188 13.609375 C 19.78125 13.609375 18.390625 12.21875 18.390625 10.507812 C 18.390625 8.796875 19.78125 7.40625 21.492188 7.40625 Z M 21.492188 7.40625 "/>
<path style=" stroke:none;fill-rule:nonzero;fill:rgb(100%,100%,100%);fill-opacity:1;" d="M 15.207031 16.789062 C 14.84375 16.425781 14.25 16.425781 13.882812 16.789062 L 10.507812 20.167969 L 7.132812 16.789062 C 6.765625 16.425781 6.171875 16.425781 5.804688 16.789062 C 5.441406 17.15625 5.441406 17.75 5.804688 18.117188 L 9.179688 21.492188 L 5.804688 24.867188 C 5.441406 25.234375 5.441406 25.828125 5.804688 26.195312 C 5.988281 26.378906 6.230469 26.46875 6.46875 26.46875 C 6.707031 26.46875 6.949219 26.378906 7.132812 26.195312 L 10.507812 22.820312 L 13.882812 26.195312 C 14.066406 26.378906 14.304688 26.46875 14.546875 26.46875 C 14.785156 26.46875 15.027344 26.378906 15.207031 26.195312 C 15.574219 25.828125 15.574219 25.234375 15.207031 24.867188 L 11.832031 21.492188 L 15.207031 18.117188 C 15.574219 17.75 15.574219 17.15625 15.207031 16.789062 Z M 15.207031 16.789062 "/>
</g>
</svg>
