<svg height="512pt" viewBox="0 0 512 512.00016" width="512pt" xmlns="http://www.w3.org/2000/svg"><path d="m241 288.480469h250.273438v208.519531h-250.273438zm0 0" fill="#b0e3fc"/><path d="m271 88.632812v408.367188h-251v-408.367188l105.761719-66.941406c6-3.800781 12.867187-5.691406 19.738281-5.691406s13.738281 1.890625 19.738281 5.691406zm0 0" fill="#b0e3fc"/><path d="m271 88.632812v408.367188h-125.5v-481c6.871094 0 13.738281 1.890625 19.738281 5.691406zm0 0" fill="#67c1e4"/><path d="m186.621094 359.480469v137.519531h-82.242188v-137.519531c0-19.46875 15.851563-35.332031 35.339844-35.332031h11.5625c19.488281 0 35.339844 15.863281 35.339844 35.332031zm0 0" fill="#1b6aa6"/><path d="m186.621094 359.480469v137.519531h-41.121094v-172.851562h5.78125c19.488281 0 35.339844 15.863281 35.339844 35.332031zm0 0" fill="#173755"/><path d="m455.320312 343.25v153.75h-150v-153.75c0-11.03125 8.96875-20 20-20h110c11.03125 0 20 8.96875 20 20zm0 0" fill="#173755"/><path d="m305.320312 422.574219h150v30.003906h-150zm0 0" fill="#67c1e4"/><path d="m305.320312 357.621094h150v30.003906h-150zm0 0" fill="#67c1e4"/><path d="m186.738281 139.859375v67.152344c0 8.851562-7.203125 16.050781-16.0625 16.050781h-50.128906c-8.851563 0-16.058594-7.199219-16.058594-16.050781v-67.152344c0-19.492187 15.859375-35.34375 35.339844-35.34375h11.570313c19.480468 0 35.339843 15.851563 35.339843 35.34375zm0 0" fill="#fff"/><path d="m186.738281 139.859375v67.152344c0 8.851562-7.203125 16.050781-16.0625 16.050781h-25.179687v-118.546875h5.902344c19.480468 0 35.339843 15.851563 35.339843 35.34375zm0 0" fill="#d9eeff"/><path d="m186.738281 139.859375v18.53125h-82.25v-18.53125c0-19.492187 15.859375-35.34375 35.339844-35.34375h11.570313c19.480468 0 35.339843 15.851563 35.339843 35.34375zm0 0" fill="#1b6aa6"/><path d="m186.738281 139.859375v18.53125h-41.242187v-53.875h5.902344c19.480468 0 35.339843 15.851563 35.339843 35.34375zm0 0" fill="#173755"/><path d="m512 497c0 8.28125-6.71875 15-15 15h-482c-8.28125 0-15-6.71875-15-15s6.71875-15 15-15h482c8.28125 0 15 6.71875 15 15zm0 0" fill="#00db7e"/><path d="m512 288.65625c0 8.292969-6.71875 15-15 15h-482c-8.28125 0-15-6.707031-15-15 0-8.277344 6.71875-15 15-15h482c8.28125 0 15 6.71875 15 15zm0 0" fill="#1b6aa6"/><path d="m288.679688 101.574219c-2.859376 4.511719-7.71875 6.984375-12.691407 6.984375-2.738281 0-5.519531-.75-8.007812-2.332032l-118.78125-75.183593c-1.089844-.691407-2.339844-1.050781-3.589844-1.070313-1.320313-.019531-2.648437.339844-3.800781 1.070313l-118.789063 75.183593c-7 4.429688-16.257812 2.347657-20.6875-4.652343-4.433593-7-2.3515622-16.269531 4.648438-20.699219l118.78125-75.183594c6.027343-3.820312 12.9375-5.7109372 19.847656-5.691406 6.832031.0195312 13.660156 1.910156 19.628906 5.691406l118.792969 75.183594c7 4.429688 9.078125 13.699219 4.648438 20.699219zm0 0" fill="#1b6aa6"/><path d="m512 497c0 8.28125-6.71875 15-15 15h-351.5v-30h351.5c8.28125 0 15 6.71875 15 15zm0 0" fill="#00a863"/><g fill="#173755"><path d="m149.199219 31.042969c-1.089844-.691407-2.339844-1.050781-3.589844-1.070313v-29.972656c6.832031.0195312 13.660156 1.910156 19.628906 5.691406l118.792969 75.183594c7 4.429688 9.078125 13.699219 4.648438 20.699219-2.859376 4.511719-7.71875 6.980469-12.691407 6.980469-2.738281 0-5.519531-.75-8.007812-2.328126zm0 0"/><path d="m512 288.65625c0 8.292969-6.71875 15-15 15h-351.5v-30h351.5c8.28125 0 15 6.71875 15 15zm0 0"/></g></svg>