<?xml version="1.0"?>
<svg xmlns="http://www.w3.org/2000/svg" id="Layer_1" data-name="Layer 1" viewBox="0 0 512 512" width="512" height="512"><title>Customer feed back</title><path d="M492.12,89.08v62.51a17.133,17.133,0,0,1-17.14,17.13H373.11c-11.89,0-17.2,6.44-19.73,13.59s-2.27,14.99-3.05,17.78c-.11.38-.22.51-.33.33,0,0-15.39-4.87-19.28-26.92a5.919,5.919,0,0,0-5.87-4.78h-6.98a17.139,17.139,0,0,1-17.14-17.13V89.08a17.148,17.148,0,0,1,17.14-17.14H474.98A17.141,17.141,0,0,1,492.12,89.08Z" style="fill:#6fe3ff"/><path d="M483.88,375.03v49.76H347.78V367.94a56.568,56.568,0,0,0-9.61-31.63,49.539,49.539,0,0,1,30-11.03,42.839,42.839,0,0,0,67.6,1.66,12.652,12.652,0,0,1,1.4-1.58A49.773,49.773,0,0,1,483.88,375.03Z" style="fill:#f8ec7d"/><path d="M446,242.35v22.11a44.23,44.23,0,0,1-88.46,0V242.35a44.23,44.23,0,1,1,88.46,0Z" style="fill:#f8ec7d"/><path d="M338.17,336.31a56.568,56.568,0,0,1,9.61,31.63v82.12H160.18V367.94a56.843,56.843,0,0,1,55.41-56.83A48.943,48.943,0,0,0,292.82,313a15.272,15.272,0,0,1,1.6-1.81A56.822,56.822,0,0,1,338.17,336.31Z" style="fill:#e48e66"/><path d="M304.51,216.36v25.26a50.53,50.53,0,0,1-101.06,0V216.36a50.53,50.53,0,0,1,101.06,0Z" style="fill:#e48e66"/><path d="M211.27,79.08v72.51a17.139,17.139,0,0,1-17.14,17.13H182.26c-23.79,0-15.22,25.78-16.79,31.37-.1.38-.21.51-.33.33,0,0-15.38-4.87-19.28-26.92a5.911,5.911,0,0,0-5.87-4.78H37.02a17.133,17.133,0,0,1-17.14-17.13V79.08A17.141,17.141,0,0,1,37.02,61.94H194.13A17.148,17.148,0,0,1,211.27,79.08Z" style="fill:#e48e66"/><path d="M167.62,334.8l1.99,1.78a56.536,56.536,0,0,0-9.43,31.36v56.85H23.88V375.03a49.773,49.773,0,0,1,48.5-49.75,42.849,42.849,0,0,0,67.61,1.66,10.984,10.984,0,0,1,1.4-1.58A49.5,49.5,0,0,1,167.62,334.8Z" style="fill:#f8ec7d"/><path d="M150.21,242.35v22.11a44.225,44.225,0,1,1-88.45,0V242.35a44.225,44.225,0,1,1,88.45,0Z" style="fill:#f8ec7d"/></svg>
