<?xml version="1.0" encoding="UTF-8"?>
<svg xmlns="http://www.w3.org/2000/svg" xmlns:xlink="http://www.w3.org/1999/xlink" width="32pt" height="32pt" viewBox="0 0 32 32" version="1.1">
<g id="surface1">
<path style=" stroke:none;fill-rule:nonzero;fill:rgb(21.176471%,45.882353%,58.823529%);fill-opacity:1;" d="M 32 1.582031 L 32 5.800781 L 28.484375 7.207031 L 29.890625 1.582031 Z M 32 1.582031 "/>
<path style=" stroke:none;fill-rule:nonzero;fill:rgb(31.764706%,58.431373%,68.627451%);fill-opacity:1;" d="M 29.890625 1.582031 L 29.890625 7.207031 L 19.164062 7.207031 L 20.570312 1.582031 Z M 29.890625 1.582031 "/>
<path style=" stroke:none;fill-rule:nonzero;fill:rgb(15.294118%,27.45098%,47.843137%);fill-opacity:1;" d="M 0 1.582031 L 0 5.800781 L 2.109375 7.207031 L 20.570312 7.207031 L 20.570312 1.582031 Z M 0 1.582031 "/>
<path style=" stroke:none;fill-rule:nonzero;fill:rgb(62.745098%,96.470588%,98.039216%);fill-opacity:1;" d="M 32 5.800781 L 32 30.417969 L 29.890625 30.417969 L 27.078125 18.109375 L 29.890625 5.800781 Z M 32 5.800781 "/>
<path style=" stroke:none;fill-rule:nonzero;fill:rgb(81.568627%,98.431373%,99.215686%);fill-opacity:1;" d="M 0 5.800781 L 29.890625 5.800781 L 29.890625 30.417969 L 0 30.417969 Z M 0 5.800781 "/>
<path style=" stroke:none;fill-rule:nonzero;fill:rgb(81.568627%,98.431373%,99.215686%);fill-opacity:1;" d="M 25.933594 3.691406 C 25.933594 4.082031 25.621094 4.394531 25.230469 4.394531 C 24.84375 4.394531 24.527344 4.082031 24.527344 3.691406 C 24.527344 3.304688 24.84375 2.988281 25.230469 2.988281 C 25.621094 2.988281 25.933594 3.304688 25.933594 3.691406 Z M 25.933594 3.691406 "/>
<path style=" stroke:none;fill-rule:nonzero;fill:rgb(81.568627%,98.431373%,99.215686%);fill-opacity:1;" d="M 23.050781 3.691406 C 23.050781 4.082031 22.734375 4.394531 22.347656 4.394531 C 21.957031 4.394531 21.644531 4.082031 21.644531 3.691406 C 21.644531 3.304688 21.957031 2.988281 22.347656 2.988281 C 22.734375 2.988281 23.050781 3.304688 23.050781 3.691406 Z M 23.050781 3.691406 "/>
<path style=" stroke:none;fill-rule:nonzero;fill:rgb(47.058824%,89.019608%,92.54902%);fill-opacity:1;" d="M 28.816406 3.691406 C 28.816406 4.082031 28.503906 4.394531 28.113281 4.394531 C 27.726562 4.394531 27.410156 4.082031 27.410156 3.691406 C 27.410156 3.304688 27.726562 2.988281 28.113281 2.988281 C 28.503906 2.988281 28.816406 3.304688 28.816406 3.691406 Z M 28.816406 3.691406 "/>
<path style=" stroke:none;fill-rule:nonzero;fill:rgb(15.294118%,27.45098%,47.843137%);fill-opacity:1;" d="M 6.960938 15.371094 C 6.9375 15.371094 6.914062 15.367188 6.894531 15.367188 C 6.6875 15.339844 6.515625 15.195312 6.453125 14.996094 L 5.242188 10.945312 C 5.15625 10.664062 5.316406 10.371094 5.59375 10.289062 C 5.875 10.203125 6.167969 10.363281 6.25 10.640625 L 7.121094 13.546875 L 7.960938 12.144531 C 8.054688 11.988281 8.226562 11.890625 8.414062 11.890625 C 8.597656 11.890625 8.769531 11.988281 8.867188 12.144531 L 9.703125 13.546875 L 10.574219 10.640625 C 10.65625 10.363281 10.953125 10.203125 11.230469 10.285156 C 11.511719 10.371094 11.667969 10.664062 11.585938 10.945312 L 10.371094 14.996094 C 10.3125 15.195312 10.140625 15.339844 9.933594 15.367188 C 9.722656 15.390625 9.519531 15.292969 9.414062 15.113281 L 8.414062 13.441406 L 7.410156 15.113281 C 7.316406 15.273438 7.144531 15.371094 6.960938 15.371094 Z M 6.960938 15.371094 "/>
<path style=" stroke:none;fill-rule:nonzero;fill:rgb(15.294118%,27.45098%,47.843137%);fill-opacity:1;" d="M 14.050781 15.371094 C 14.03125 15.371094 14.007812 15.367188 13.984375 15.367188 C 13.777344 15.339844 13.605469 15.195312 13.546875 14.992188 L 12.332031 10.945312 C 12.25 10.664062 12.40625 10.371094 12.6875 10.285156 C 12.964844 10.203125 13.257812 10.363281 13.34375 10.640625 L 14.214844 13.546875 L 15.050781 12.144531 C 15.148438 11.984375 15.320312 11.890625 15.503906 11.890625 C 15.691406 11.890625 15.863281 11.984375 15.957031 12.144531 L 16.796875 13.546875 L 17.667969 10.640625 C 17.75 10.359375 18.042969 10.203125 18.324219 10.285156 C 18.601562 10.371094 18.761719 10.664062 18.675781 10.941406 L 17.464844 14.992188 C 17.402344 15.195312 17.230469 15.339844 17.023438 15.367188 C 16.816406 15.390625 16.613281 15.292969 16.503906 15.113281 L 15.503906 13.441406 L 14.503906 15.113281 C 14.40625 15.273438 14.234375 15.371094 14.050781 15.371094 Z M 14.050781 15.371094 "/>
<path style=" stroke:none;fill-rule:nonzero;fill:rgb(15.294118%,27.45098%,47.843137%);fill-opacity:1;" d="M 24.050781 15.371094 C 23.867188 15.371094 23.695312 15.273438 23.597656 15.113281 L 22.597656 13.441406 L 21.59375 15.113281 C 21.488281 15.292969 21.285156 15.390625 21.078125 15.363281 C 20.871094 15.339844 20.699219 15.195312 20.636719 14.992188 L 19.425781 10.941406 C 19.339844 10.664062 19.5 10.371094 19.777344 10.285156 C 20.058594 10.203125 20.351562 10.359375 20.433594 10.640625 L 21.304688 13.542969 L 22.144531 12.144531 C 22.238281 11.984375 22.410156 11.886719 22.597656 11.886719 C 22.78125 11.886719 22.953125 11.984375 23.050781 12.144531 L 23.886719 13.542969 L 24.757812 10.640625 C 24.839844 10.359375 25.136719 10.203125 25.414062 10.285156 C 25.695312 10.371094 25.851562 10.664062 25.769531 10.941406 L 24.554688 14.992188 C 24.496094 15.195312 24.324219 15.339844 24.117188 15.367188 C 24.09375 15.367188 24.070312 15.371094 24.050781 15.371094 Z M 24.050781 15.371094 "/>
<path style=" stroke:none;fill-rule:nonzero;fill:rgb(21.176471%,45.882353%,58.823529%);fill-opacity:1;" d="M 5.746094 18.359375 L 8.558594 18.359375 L 8.558594 21.171875 L 5.746094 21.171875 Z M 5.746094 18.359375 "/>
<path style=" stroke:none;fill-rule:nonzero;fill:rgb(21.176471%,45.882353%,58.823529%);fill-opacity:1;" d="M 5.746094 23.28125 L 8.558594 23.28125 L 8.558594 26.097656 L 5.746094 26.097656 Z M 5.746094 23.28125 "/>
<path style=" stroke:none;fill-rule:nonzero;fill:rgb(31.764706%,58.431373%,68.627451%);fill-opacity:1;" d="M 25.261719 20.292969 L 23.152344 20.292969 C 22.863281 20.292969 22.625 20.058594 22.625 19.765625 C 22.625 19.472656 22.863281 19.238281 23.152344 19.238281 L 25.261719 19.238281 C 25.554688 19.238281 25.789062 19.472656 25.789062 19.765625 C 25.789062 20.058594 25.554688 20.292969 25.261719 20.292969 Z M 25.261719 20.292969 "/>
<path style=" stroke:none;fill-rule:nonzero;fill:rgb(31.764706%,58.431373%,68.627451%);fill-opacity:1;" d="M 21.042969 20.292969 L 10.667969 20.292969 C 10.378906 20.292969 10.140625 20.058594 10.140625 19.765625 C 10.140625 19.472656 10.378906 19.238281 10.667969 19.238281 L 21.042969 19.238281 C 21.335938 19.238281 21.570312 19.472656 21.570312 19.765625 C 21.570312 20.058594 21.335938 20.292969 21.042969 20.292969 Z M 21.042969 20.292969 "/>
<path style=" stroke:none;fill-rule:nonzero;fill:rgb(31.764706%,58.431373%,68.627451%);fill-opacity:1;" d="M 25.261719 25.214844 L 23.152344 25.214844 C 22.863281 25.214844 22.625 24.980469 22.625 24.6875 C 22.625 24.398438 22.863281 24.160156 23.152344 24.160156 L 25.261719 24.160156 C 25.554688 24.160156 25.789062 24.398438 25.789062 24.6875 C 25.789062 24.980469 25.554688 25.214844 25.261719 25.214844 Z M 25.261719 25.214844 "/>
<path style=" stroke:none;fill-rule:nonzero;fill:rgb(31.764706%,58.431373%,68.627451%);fill-opacity:1;" d="M 21.042969 25.214844 L 10.667969 25.214844 C 10.378906 25.214844 10.140625 24.980469 10.140625 24.6875 C 10.140625 24.398438 10.378906 24.160156 10.667969 24.160156 L 21.042969 24.160156 C 21.335938 24.160156 21.570312 24.398438 21.570312 24.6875 C 21.570312 24.980469 21.335938 25.214844 21.042969 25.214844 Z M 21.042969 25.214844 "/>
</g>
</svg>
