<?xml version="1.0" encoding="UTF-8"?>
<svg xmlns="http://www.w3.org/2000/svg" xmlns:xlink="http://www.w3.org/1999/xlink" width="32pt" height="32pt" viewBox="0 0 32 32" version="1.1">
<g id="surface1">
<path style=" stroke:none;fill-rule:nonzero;fill:rgb(60.784314%,78.823529%,100%);fill-opacity:1;" d="M 0.535156 0.535156 L 31.464844 0.535156 L 31.464844 4.800781 L 0.535156 4.800781 Z M 0.535156 0.535156 "/>
<path style=" stroke:none;fill-rule:nonzero;fill:rgb(60.784314%,78.823529%,100%);fill-opacity:1;" d="M 13.332031 21.332031 L 18.667969 21.332031 L 18.667969 25.601562 L 13.332031 25.601562 Z M 13.332031 21.332031 "/>
<path style=" stroke:none;fill-rule:nonzero;fill:rgb(60.784314%,78.823529%,100%);fill-opacity:1;" d="M 13.332031 10.667969 L 18.667969 10.667969 L 18.667969 14.933594 L 13.332031 14.933594 Z M 13.332031 10.667969 "/>
<path style=" stroke:none;fill-rule:nonzero;fill:rgb(60.784314%,78.823529%,100%);fill-opacity:1;" d="M 21.867188 21.332031 L 27.199219 21.332031 L 27.199219 25.601562 L 21.867188 25.601562 Z M 21.867188 21.332031 "/>
<path style=" stroke:none;fill-rule:nonzero;fill:rgb(60.784314%,78.823529%,100%);fill-opacity:1;" d="M 21.867188 10.667969 L 27.199219 10.667969 L 27.199219 14.933594 L 21.867188 14.933594 Z M 21.867188 10.667969 "/>
<path style=" stroke:none;fill-rule:nonzero;fill:rgb(60.784314%,78.823529%,100%);fill-opacity:1;" d="M 4.800781 21.332031 L 10.132812 21.332031 L 10.132812 25.601562 L 4.800781 25.601562 Z M 4.800781 21.332031 "/>
<path style=" stroke:none;fill-rule:nonzero;fill:rgb(60.784314%,78.823529%,100%);fill-opacity:1;" d="M 4.800781 10.667969 L 10.132812 10.667969 L 10.132812 14.933594 L 4.800781 14.933594 Z M 4.800781 10.667969 "/>
<path style=" stroke:none;fill-rule:nonzero;fill:rgb(11.764706%,50.588235%,80.784314%);fill-opacity:1;" d="M 31.464844 0 L 0.535156 0 C 0.238281 0 0 0.238281 0 0.535156 L 0 31.464844 C 0 31.761719 0.238281 32 0.535156 32 L 31.464844 32 C 31.761719 32 32 31.761719 32 31.464844 L 32 0.535156 C 32 0.238281 31.761719 0 31.464844 0 Z M 1.066406 1.066406 L 30.933594 1.066406 L 30.933594 4.265625 L 1.066406 4.265625 Z M 30.933594 30.933594 L 1.066406 30.933594 L 1.066406 5.332031 L 30.933594 5.332031 Z M 30.933594 30.933594 "/>
<path style=" stroke:none;fill-rule:nonzero;fill:rgb(11.764706%,50.588235%,80.784314%);fill-opacity:1;" d="M 2.132812 2.132812 L 3.199219 2.132812 L 3.199219 3.199219 L 2.132812 3.199219 Z M 2.132812 2.132812 "/>
<path style=" stroke:none;fill-rule:nonzero;fill:rgb(11.764706%,50.588235%,80.784314%);fill-opacity:1;" d="M 4.265625 2.132812 L 5.332031 2.132812 L 5.332031 3.199219 L 4.265625 3.199219 Z M 4.265625 2.132812 "/>
<path style=" stroke:none;fill-rule:nonzero;fill:rgb(11.764706%,50.588235%,80.784314%);fill-opacity:1;" d="M 6.398438 2.132812 L 7.464844 2.132812 L 7.464844 3.199219 L 6.398438 3.199219 Z M 6.398438 2.132812 "/>
<path style=" stroke:none;fill-rule:nonzero;fill:rgb(11.764706%,50.588235%,80.784314%);fill-opacity:1;" d="M 18.667969 26.132812 L 13.332031 26.132812 C 13.039062 26.132812 12.800781 25.894531 12.800781 25.601562 L 12.800781 21.332031 C 12.800781 21.039062 13.039062 20.800781 13.332031 20.800781 L 18.667969 20.800781 C 18.960938 20.800781 19.199219 21.039062 19.199219 21.332031 L 19.199219 25.601562 C 19.199219 25.894531 18.960938 26.132812 18.667969 26.132812 Z M 13.867188 25.066406 L 18.132812 25.066406 L 18.132812 21.867188 L 13.867188 21.867188 Z M 13.867188 25.066406 "/>
<path style=" stroke:none;fill-rule:nonzero;fill:rgb(11.764706%,50.588235%,80.784314%);fill-opacity:1;" d="M 18.667969 15.464844 L 13.332031 15.464844 C 13.039062 15.464844 12.800781 15.226562 12.800781 14.933594 L 12.800781 10.667969 C 12.800781 10.371094 13.039062 10.132812 13.332031 10.132812 L 18.667969 10.132812 C 18.960938 10.132812 19.199219 10.371094 19.199219 10.667969 L 19.199219 14.933594 C 19.199219 15.226562 18.960938 15.464844 18.667969 15.464844 Z M 13.867188 14.398438 L 18.132812 14.398438 L 18.132812 11.199219 L 13.867188 11.199219 Z M 13.867188 14.398438 "/>
<path style=" stroke:none;fill-rule:nonzero;fill:rgb(11.764706%,50.588235%,80.784314%);fill-opacity:1;" d="M 27.199219 26.132812 L 21.867188 26.132812 C 21.570312 26.132812 21.332031 25.894531 21.332031 25.601562 L 21.332031 21.332031 C 21.332031 21.039062 21.570312 20.800781 21.867188 20.800781 L 27.199219 20.800781 C 27.496094 20.800781 27.734375 21.039062 27.734375 21.332031 L 27.734375 25.601562 C 27.734375 25.894531 27.496094 26.132812 27.199219 26.132812 Z M 22.398438 25.066406 L 26.667969 25.066406 L 26.667969 21.867188 L 22.398438 21.867188 Z M 22.398438 25.066406 "/>
<path style=" stroke:none;fill-rule:nonzero;fill:rgb(11.764706%,50.588235%,80.784314%);fill-opacity:1;" d="M 27.199219 15.464844 L 21.867188 15.464844 C 21.570312 15.464844 21.332031 15.226562 21.332031 14.933594 L 21.332031 10.667969 C 21.332031 10.371094 21.570312 10.132812 21.867188 10.132812 L 27.199219 10.132812 C 27.496094 10.132812 27.734375 10.371094 27.734375 10.667969 L 27.734375 14.933594 C 27.734375 15.226562 27.496094 15.464844 27.199219 15.464844 Z M 22.398438 14.398438 L 26.667969 14.398438 L 26.667969 11.199219 L 22.398438 11.199219 Z M 22.398438 14.398438 "/>
<path style=" stroke:none;fill-rule:nonzero;fill:rgb(11.764706%,50.588235%,80.784314%);fill-opacity:1;" d="M 10.132812 26.132812 L 4.800781 26.132812 C 4.503906 26.132812 4.265625 25.894531 4.265625 25.601562 L 4.265625 21.332031 C 4.265625 21.039062 4.503906 20.800781 4.800781 20.800781 L 10.132812 20.800781 C 10.429688 20.800781 10.667969 21.039062 10.667969 21.332031 L 10.667969 25.601562 C 10.667969 25.894531 10.429688 26.132812 10.132812 26.132812 Z M 5.332031 25.066406 L 9.601562 25.066406 L 9.601562 21.867188 L 5.332031 21.867188 Z M 5.332031 25.066406 "/>
<path style=" stroke:none;fill-rule:nonzero;fill:rgb(11.764706%,50.588235%,80.784314%);fill-opacity:1;" d="M 10.132812 15.464844 L 4.800781 15.464844 C 4.503906 15.464844 4.265625 15.226562 4.265625 14.933594 L 4.265625 10.667969 C 4.265625 10.371094 4.503906 10.132812 4.800781 10.132812 L 10.132812 10.132812 C 10.429688 10.132812 10.667969 10.371094 10.667969 10.667969 L 10.667969 14.933594 C 10.667969 15.226562 10.429688 15.464844 10.132812 15.464844 Z M 5.332031 14.398438 L 9.601562 14.398438 L 9.601562 11.199219 L 5.332031 11.199219 Z M 5.332031 14.398438 "/>
</g>
</svg>
