<?xml version='1.0' encoding='UTF-8'?>
<svg x="0px" y="0px" viewBox="0 0 32 32" version="1.1" xmlns="http://www.w3.org/2000/svg" xmlns:xlink="http://www.w3.org/1999/xlink" xml:space="preserve" id="Layer_1">
  <g id="Delete">
    <path d="M18.8,16l8.9-8.9c0.4-0.4,0.4-1,0-1.4l-1.4-1.4c-0.4-0.4-1-0.4-1.4,0L16,13.2L7.1,4.3c-0.4-0.4-1-0.4-1.4,0   L4.3,5.7c-0.4,0.4-0.4,1,0,1.4l8.9,8.9l-8.9,8.9c-0.4,0.4-0.4,1,0,1.4l1.4,1.4c0.4,0.4,1,0.4,1.4,0l8.9-8.9l8.9,8.9   c0.4,0.4,1,0.4,1.4,0l1.4-1.4c0.4-0.4,0.4-1,0-1.4L18.8,16z" fill="#D11C1C" class="Red" />
  </g>
</svg>