<?xml version='1.0' encoding='UTF-8'?>
<svg x="0px" y="0px" viewBox="0 0 32 32" version="1.1" xmlns="http://www.w3.org/2000/svg" xmlns:xlink="http://www.w3.org/1999/xlink" xml:space="preserve" id="Layer_1">
  <g />
  <g id="DeleteQuery">
    <path d="M8,10H0v6h8V10z M8,2H0v6h8V2z M18,2h-8v6h8V2z M18,10h-8v6h8V10z" fill="#039C23" class="Green" />
    <g opacity="0.5" class="st1">
      <path d="M28,16h-8v-6h8V16z M28,2h-8v6h8V2z M0,24h8v-6H0V24z M10,24h8v-6h-8V24z" fill="#727272" opacity="0.5" class="Black" />
    </g>
    <polygon points="32,20 30,18 26,22 22,18 20,20 24,24 20,28 22,30 26,26 30,30 32,28 28,24  " fill="#D11C1C" class="Red" />
  </g>
</svg>