<?xml version='1.0' encoding='UTF-8'?>
<svg x="0px" y="0px" viewBox="0 0 32 32" version="1.1" xmlns="http://www.w3.org/2000/svg" xmlns:xlink="http://www.w3.org/1999/xlink" xml:space="preserve" id="DifferentOdd_x26_EvenPages">
  <path d="M28,5v18c0,0.5-0.5,1-1,1h-5V10H10V5c0-0.5,0.5-1,1-1h16C27.5,4,28,4.5,28,5z M3,32h16c0.5,0,1-0.5,1-1V13  c0-0.6-0.5-1-1-1H3c-0.5,0-1,0.4-1,1v18C2,31.5,2.5,32,3,32z" fill="#039C23" class="Green" />
  <path d="M24,9v18c0,0.5-0.5,1-1,1h-3v-2h2V10H8v2H6V9c0-0.5,0.5-1,1-1h16C23.5,8,24,8.5,24,9z M31,0H15  c-0.5,0-1,0.5-1,1v3h2V2h14v16h-2v2h3c0.5,0,1-0.5,1-1V1C32,0.5,31.5,0,31,0z" fill="#727272" class="Black" />
</svg>