<?xml version="1.0" encoding="UTF-8"?>
<svg xmlns="http://www.w3.org/2000/svg" xmlns:xlink="http://www.w3.org/1999/xlink" width="32pt" height="32pt" viewBox="0 0 32 32" version="1.1">
<g id="surface1">
<path style=" stroke:none;fill-rule:nonzero;fill:rgb(100%,59.607843%,6.666667%);fill-opacity:1;" d="M 27.183594 29.664062 C 24.8125 29.664062 22.890625 28.945312 22.890625 28.054688 L 22.890625 30.203125 C 22.890625 31.09375 24.8125 31.8125 27.183594 31.8125 C 29.554688 31.8125 31.476562 31.09375 31.476562 30.203125 L 31.476562 28.054688 C 31.476562 28.945312 29.554688 29.664062 27.183594 29.664062 Z M 27.183594 29.664062 "/>
<path style=" stroke:none;fill-rule:nonzero;fill:rgb(100%,65.490196%,20%);fill-opacity:1;" d="M 27.183594 25.371094 C 24.8125 25.371094 22.890625 24.652344 22.890625 23.761719 L 22.890625 25.910156 C 22.890625 26.800781 24.8125 27.519531 27.183594 27.519531 C 29.554688 27.519531 31.476562 26.800781 31.476562 25.910156 L 31.476562 23.761719 C 31.476562 24.652344 29.554688 25.371094 27.183594 25.371094 Z M 27.183594 25.371094 "/>
<path style=" stroke:none;fill-rule:nonzero;fill:rgb(100%,71.372549%,33.333333%);fill-opacity:1;" d="M 27.183594 23.226562 C 24.8125 23.226562 22.890625 22.507812 22.890625 21.617188 L 22.890625 23.761719 C 22.890625 24.652344 24.8125 25.371094 27.183594 25.371094 C 29.554688 25.371094 31.476562 24.652344 31.476562 23.761719 L 31.476562 21.617188 C 31.476562 22.507812 29.554688 23.226562 27.183594 23.226562 Z M 27.183594 23.226562 "/>
<path style=" stroke:none;fill-rule:nonzero;fill:rgb(100%,71.372549%,33.333333%);fill-opacity:1;" d="M 27.183594 27.519531 C 24.8125 27.519531 22.890625 26.800781 22.890625 25.910156 L 22.890625 28.054688 C 22.890625 28.945312 24.8125 29.664062 27.183594 29.664062 C 29.554688 29.664062 31.476562 28.945312 31.476562 28.054688 L 31.476562 25.910156 C 31.476562 26.800781 29.554688 27.519531 27.183594 27.519531 Z M 27.183594 27.519531 "/>
<path style=" stroke:none;fill-rule:nonzero;fill:rgb(100%,76.862745%,46.666667%);fill-opacity:1;" d="M 27.183594 16.789062 C 24.8125 16.789062 22.890625 16.066406 22.890625 15.175781 L 22.890625 17.324219 C 22.890625 18.214844 24.8125 18.933594 27.183594 18.933594 C 29.554688 18.933594 31.476562 18.214844 31.476562 17.324219 L 31.476562 15.175781 C 31.476562 16.066406 29.554688 16.789062 27.183594 16.789062 Z M 27.183594 16.789062 "/>
<path style=" stroke:none;fill-rule:nonzero;fill:rgb(100%,76.862745%,46.666667%);fill-opacity:1;" d="M 27.183594 21.082031 C 24.8125 21.082031 22.890625 20.359375 22.890625 19.46875 L 22.890625 21.617188 C 22.890625 22.507812 24.8125 23.226562 27.183594 23.226562 C 29.554688 23.226562 31.476562 22.507812 31.476562 21.617188 L 31.476562 19.46875 C 31.476562 20.359375 29.554688 21.082031 27.183594 21.082031 Z M 27.183594 21.082031 "/>
<path style=" stroke:none;fill-rule:nonzero;fill:rgb(100%,71.372549%,33.333333%);fill-opacity:1;" d="M 27.183594 18.933594 C 24.8125 18.933594 22.890625 18.214844 22.890625 17.324219 L 22.890625 19.46875 C 22.890625 20.359375 24.8125 21.082031 27.183594 21.082031 C 29.554688 21.082031 31.476562 20.359375 31.476562 19.46875 L 31.476562 17.324219 C 31.476562 18.214844 29.554688 18.933594 27.183594 18.933594 Z M 27.183594 18.933594 "/>
<path style=" stroke:none;fill-rule:nonzero;fill:rgb(100%,71.372549%,33.333333%);fill-opacity:1;" d="M 27.183594 14.640625 C 24.8125 14.640625 22.890625 13.921875 22.890625 13.03125 L 22.890625 15.175781 C 22.890625 16.066406 24.8125 16.789062 27.183594 16.789062 C 29.554688 16.789062 31.476562 16.066406 31.476562 15.175781 L 31.476562 13.03125 C 31.476562 13.921875 29.554688 14.640625 27.183594 14.640625 Z M 27.183594 14.640625 "/>
<path style=" stroke:none;fill-rule:nonzero;fill:rgb(100%,38.431373%,26.27451%);fill-opacity:1;" d="M 4.648438 31.8125 C 7.019531 31.8125 8.9375 31.09375 8.9375 30.203125 L 8.9375 28.054688 C 8.9375 28.945312 7.019531 29.664062 4.648438 29.664062 C 2.273438 29.664062 0.355469 28.945312 0.355469 28.054688 L 0.355469 30.203125 C 0.355469 31.09375 2.273438 31.8125 4.648438 31.8125 Z M 4.648438 31.8125 "/>
<path style=" stroke:none;fill-rule:nonzero;fill:rgb(100%,65.490196%,20%);fill-opacity:1;" d="M 15.914062 27.519531 C 13.542969 27.519531 11.621094 26.800781 11.621094 25.910156 L 11.621094 28.054688 C 11.621094 28.945312 13.542969 29.664062 15.914062 29.664062 C 18.285156 29.664062 20.207031 28.945312 20.207031 28.054688 L 20.207031 25.910156 C 20.207031 26.800781 18.285156 27.519531 15.914062 27.519531 Z M 15.914062 27.519531 "/>
<path style=" stroke:none;fill-rule:nonzero;fill:rgb(100%,59.607843%,6.666667%);fill-opacity:1;" d="M 15.914062 25.371094 C 13.542969 25.371094 11.621094 24.652344 11.621094 23.761719 L 11.621094 25.910156 C 11.621094 26.800781 13.542969 27.519531 15.914062 27.519531 C 18.285156 27.519531 20.207031 26.800781 20.207031 25.910156 L 20.207031 23.761719 C 20.207031 24.652344 18.285156 25.371094 15.914062 25.371094 Z M 15.914062 25.371094 "/>
<path style=" stroke:none;fill-rule:nonzero;fill:rgb(100%,71.372549%,33.333333%);fill-opacity:1;" d="M 15.914062 21.082031 C 13.542969 21.082031 11.621094 20.359375 11.621094 19.46875 L 11.621094 21.617188 C 11.621094 22.507812 13.542969 23.226562 15.914062 23.226562 C 18.285156 23.226562 20.207031 22.507812 20.207031 21.617188 L 20.207031 19.46875 C 20.207031 20.359375 18.285156 21.082031 15.914062 21.082031 Z M 15.914062 21.082031 "/>
<path style=" stroke:none;fill-rule:nonzero;fill:rgb(100%,65.490196%,20%);fill-opacity:1;" d="M 15.914062 23.226562 C 13.542969 23.226562 11.621094 22.507812 11.621094 21.617188 L 11.621094 23.761719 C 11.621094 24.652344 13.542969 25.371094 15.914062 25.371094 C 18.285156 25.371094 20.207031 24.652344 20.207031 23.761719 L 20.207031 21.617188 C 20.207031 22.507812 18.285156 23.226562 15.914062 23.226562 Z M 15.914062 23.226562 "/>
<path style=" stroke:none;fill-rule:nonzero;fill:rgb(100%,58.039216%,47.058824%);fill-opacity:1;" d="M 4.648438 29.664062 C 7.019531 29.664062 8.9375 28.945312 8.9375 28.054688 L 8.9375 25.910156 C 8.9375 26.800781 7.019531 27.519531 4.648438 27.519531 C 2.273438 27.519531 0.355469 26.800781 0.355469 25.910156 L 0.355469 28.054688 C 0.355469 28.945312 2.273438 29.664062 4.648438 29.664062 Z M 4.648438 29.664062 "/>
<path style=" stroke:none;fill-rule:nonzero;fill:rgb(100%,47.45098%,33.72549%);fill-opacity:1;" d="M 4.648438 27.519531 C 7.019531 27.519531 8.9375 26.800781 8.9375 25.910156 L 8.9375 23.761719 C 8.9375 24.652344 7.015625 25.371094 4.648438 25.371094 C 2.277344 25.371094 0.355469 24.652344 0.355469 23.761719 L 0.355469 25.910156 C 0.355469 26.800781 2.273438 27.519531 4.648438 27.519531 Z M 4.648438 27.519531 "/>
<path style=" stroke:none;fill-rule:nonzero;fill:rgb(100%,59.607843%,6.666667%);fill-opacity:1;" d="M 15.914062 29.664062 C 13.542969 29.664062 11.621094 28.945312 11.621094 28.054688 L 11.621094 30.203125 C 11.621094 31.09375 13.542969 31.8125 15.914062 31.8125 C 18.285156 31.8125 20.207031 31.09375 20.207031 30.203125 L 20.207031 28.054688 C 20.207031 28.945312 18.285156 29.664062 15.914062 29.664062 Z M 15.914062 29.664062 "/>
<path style=" stroke:none;fill-rule:nonzero;fill:rgb(100%,58.039216%,47.058824%);fill-opacity:1;" d="M 8.9375 23.761719 C 8.9375 22.875 7.015625 22.152344 4.648438 22.152344 C 2.277344 22.152344 0.355469 22.875 0.355469 23.761719 C 0.355469 24.652344 2.277344 25.371094 4.648438 25.371094 C 7.015625 25.371094 8.9375 24.652344 8.9375 23.761719 Z M 8.9375 23.761719 "/>
<path style=" stroke:none;fill-rule:nonzero;fill:rgb(100%,65.490196%,20%);fill-opacity:1;" d="M 20.207031 19.46875 C 20.207031 18.582031 18.285156 17.859375 15.914062 17.859375 C 13.542969 17.859375 11.621094 18.582031 11.621094 19.46875 C 11.621094 20.359375 13.542969 21.082031 15.914062 21.082031 C 18.285156 21.082031 20.207031 20.359375 20.207031 19.46875 Z M 20.207031 19.46875 "/>
<path style=" stroke:none;fill-rule:nonzero;fill:rgb(100%,65.490196%,20%);fill-opacity:1;" d="M 31.476562 13.03125 C 31.476562 12.140625 29.554688 11.421875 27.183594 11.421875 C 24.8125 11.421875 22.890625 12.140625 22.890625 13.03125 C 22.890625 13.921875 24.8125 14.640625 27.183594 14.640625 C 29.554688 14.640625 31.476562 13.921875 31.476562 13.03125 Z M 31.476562 13.03125 "/>
<path style=" stroke:none;fill-rule:nonzero;fill:rgb(36.862745%,67.45098%,14.117647%);fill-opacity:1;" d="M 26.109375 0.152344 L 26.109375 1.226562 L 30.179688 1.226562 L 19.984375 11.421875 L 8.738281 11.421875 L 0 19.066406 L 0.707031 19.875 L 9.140625 12.496094 L 20.429688 12.496094 L 30.941406 1.984375 L 30.941406 6.054688 L 32.011719 6.054688 L 32.011719 0.152344 Z M 26.109375 0.152344 "/>
</g>
</svg>
