<?xml version="1.0" encoding="UTF-8"?>
<svg xmlns="http://www.w3.org/2000/svg" xmlns:xlink="http://www.w3.org/1999/xlink" width="32pt" height="32pt" viewBox="0 0 32 32" version="1.1">
<g id="surface1">
<path style=" stroke:none;fill-rule:nonzero;fill:rgb(23.921569%,60.392157%,88.627451%);fill-opacity:1;" d="M 22.5 18.5 C 22.222656 18.5 22 18.277344 22 18 L 22 13.5 C 22 13.222656 22.222656 13 22.5 13 L 26 13 L 24.296875 11.296875 C 24.105469 11.105469 23.851562 11 23.585938 11 L 5.5 11 L 5.5 23 C 5.5 23.550781 5.949219 24 6.5 24 L 29.5 24 C 30.050781 24 30.5 23.550781 30.5 23 L 30.5 18.5 Z M 22.5 18.5 "/>
<path style=" stroke:none;fill-rule:nonzero;fill:rgb(100%,83.137255%,13.333333%);fill-opacity:1;" d="M 13.5 11 C 13.5 14.3125 10.8125 17 7.5 17 C 6.820312 17 6.140625 16.882812 5.5 16.65625 C 2.621094 15.636719 0.96875 12.625 1.652344 9.648438 C 2.339844 6.675781 5.148438 4.691406 8.179688 5.035156 C 11.210938 5.382812 13.5 7.949219 13.5 11 Z M 13.5 11 "/>
<path style=" stroke:none;fill-rule:nonzero;fill:rgb(100%,38.431373%,26.27451%);fill-opacity:1;" d="M 10.5 10 C 10.5 12 7.5 15 7.5 15 C 7.5 15 4.5 12 4.5 10 C 4.5 8.34375 5.84375 7 7.5 7 C 9.15625 7 10.5 8.34375 10.5 10 Z M 10.5 10 "/>
<path style=" stroke:none;fill-rule:nonzero;fill:rgb(100%,65.490196%,20%);fill-opacity:1;" d="M 8.5 10 C 8.5 10.550781 8.050781 11 7.5 11 C 6.949219 11 6.5 10.550781 6.5 10 C 6.5 9.449219 6.949219 9 7.5 9 C 8.050781 9 8.5 9.449219 8.5 10 Z M 8.5 10 "/>
<path style=" stroke:none;fill-rule:nonzero;fill:rgb(90.196078%,90.588235%,90.980392%);fill-opacity:1;" d="M 30.5 17.5 L 30.5 18.5 L 22.5 18.5 C 22.222656 18.5 22 18.277344 22 18 L 22 13.5 C 22 13.222656 22.222656 13 22.5 13 L 26 13 Z M 30.5 17.5 "/>
<path style=" stroke:none;fill-rule:nonzero;fill:rgb(47.058824%,72.54902%,92.156863%);fill-opacity:1;" d="M 5.5 19.5 L 30.5 19.5 L 30.5 23 C 30.5 23.550781 30.050781 24 29.5 24 L 6.5 24 C 5.949219 24 5.5 23.550781 5.5 23 Z M 5.5 19.5 "/>
<path style=" stroke:none;fill-rule:nonzero;fill:rgb(47.058824%,46.27451%,50.196078%);fill-opacity:1;" d="M 14 24 C 14 25.65625 12.65625 27 11 27 C 9.34375 27 8 25.65625 8 24 C 8 22.34375 9.34375 21 11 21 C 12.65625 21 14 22.34375 14 24 Z M 14 24 "/>
<path style=" stroke:none;fill-rule:nonzero;fill:rgb(47.058824%,46.27451%,50.196078%);fill-opacity:1;" d="M 28 24 C 28 25.65625 26.65625 27 25 27 C 23.34375 27 22 25.65625 22 24 C 22 22.34375 23.34375 21 25 21 C 26.65625 21 28 22.34375 28 24 Z M 28 24 "/>
<path style=" stroke:none;fill-rule:nonzero;fill:rgb(34.117647%,33.72549%,36.078431%);fill-opacity:1;" d="M 10.5 23.5 L 11.5 23.5 L 11.5 24.5 L 10.5 24.5 Z M 10.5 23.5 "/>
<path style=" stroke:none;fill-rule:nonzero;fill:rgb(34.117647%,33.72549%,36.078431%);fill-opacity:1;" d="M 24.5 23.5 L 25.5 23.5 L 25.5 24.5 L 24.5 24.5 Z M 24.5 23.5 "/>
<path style=" stroke:none;fill-rule:nonzero;fill:rgb(34.117647%,33.72549%,36.078431%);fill-opacity:1;" d="M 1 26.5 L 30.5 26.5 L 30.5 27.5 L 1 27.5 Z M 1 26.5 "/>
<path style=" stroke:none;fill-rule:nonzero;fill:rgb(77.647059%,77.254902%,79.215686%);fill-opacity:1;" d="M 1 22 L 3.5 22 L 3.5 23 L 1 23 Z M 1 22 "/>
<path style=" stroke:none;fill-rule:nonzero;fill:rgb(77.647059%,77.254902%,79.215686%);fill-opacity:1;" d="M 2 20 L 3.5 20 L 3.5 21 L 2 21 Z M 2 20 "/>
<path style=" stroke:none;fill-rule:nonzero;fill:rgb(77.647059%,77.254902%,79.215686%);fill-opacity:1;" d="M 2.5 18 L 3.5 18 L 3.5 19 L 2.5 19 Z M 2.5 18 "/>
<path style=" stroke:none;fill-rule:nonzero;fill:rgb(11.764706%,50.588235%,80.784314%);fill-opacity:1;" d="M 17.5 11 L 18.5 11 L 18.5 19 L 17.5 19 Z M 17.5 11 "/>
<path style=" stroke:none;fill-rule:nonzero;fill:rgb(11.764706%,50.588235%,80.784314%);fill-opacity:1;" d="M 20 20 L 22 20 L 22 21 L 20 21 Z M 20 20 "/>
</g>
</svg>
