<?xml version="1.0" encoding="UTF-8"?>
<svg xmlns="http://www.w3.org/2000/svg" xmlns:xlink="http://www.w3.org/1999/xlink" width="32pt" height="32pt" viewBox="0 0 32 32" version="1.1">
<g id="surface1">
<path style=" stroke:none;fill-rule:nonzero;fill:rgb(76.862745%,88.627451%,94.901961%);fill-opacity:1;" d="M 31.925781 2.808594 L 31.925781 20.042969 C 31.925781 21.574219 30.683594 22.816406 29.148438 22.816406 L 2.710938 22.816406 C 1.179688 22.816406 -0.0625 21.574219 -0.0625 20.042969 L -0.0625 2.808594 C -0.0625 1.292969 1.167969 0.0625 2.683594 0.0625 L 29.179688 0.0625 C 30.695312 0.0625 31.925781 1.292969 31.925781 2.808594 Z M 31.925781 2.808594 "/>
<path style=" stroke:none;fill-rule:nonzero;fill:rgb(17.647059%,18.823529%,23.137255%);fill-opacity:1;" d="M 22.382812 26.519531 L 15.929688 27.992188 L 9.480469 26.519531 L 10.363281 22.816406 L 15.65625 20.871094 L 21.5 22.816406 L 21.785156 24.015625 Z M 22.382812 26.519531 "/>
<path style=" stroke:none;fill-rule:nonzero;fill:rgb(23.529412%,24.705882%,30.196078%);fill-opacity:1;" d="M 31.925781 19.714844 L 31.925781 20.042969 C 31.925781 21.574219 30.683594 22.816406 29.148438 22.816406 L 2.710938 22.816406 C 1.179688 22.816406 -0.0625 21.574219 -0.0625 20.042969 L -0.0625 19.714844 Z M 31.925781 19.714844 "/>
<path style=" stroke:none;fill-rule:nonzero;fill:rgb(23.529412%,24.705882%,30.196078%);fill-opacity:1;" d="M 22.382812 26.519531 L 12.515625 26.519531 L 13.113281 24.015625 L 21.785156 24.015625 Z M 22.382812 26.519531 "/>
<path style=" stroke:none;fill-rule:nonzero;fill:rgb(17.647059%,18.823529%,23.137255%);fill-opacity:1;" d="M 26.183594 28.582031 L 26.183594 29.460938 L 5.675781 29.460938 L 5.675781 28.582031 C 5.675781 27.441406 6.601562 26.519531 7.738281 26.519531 L 24.125 26.519531 C 25.261719 26.519531 26.183594 27.441406 26.183594 28.582031 Z M 26.183594 28.582031 "/>
<path style=" stroke:none;fill-rule:nonzero;fill:rgb(51.372549%,69.803922%,77.647059%);fill-opacity:1;" d="M 28.503906 22.816406 L 14.019531 22.816406 L 14.730469 15.988281 L 27.796875 15.988281 Z M 28.503906 22.816406 "/>
<path style=" stroke:none;fill-rule:nonzero;fill:rgb(12.156863%,50.588235%,63.921569%);fill-opacity:1;" d="M 14.894531 8.289062 L 14.722656 9.597656 L 14.175781 13.765625 C 14.074219 14.519531 13.4375 15.078125 12.675781 15.078125 L 6.140625 15.078125 C 5.382812 15.078125 4.742188 14.519531 4.644531 13.765625 L 3.925781 8.289062 L 9.410156 6.820312 Z M 14.894531 8.289062 "/>
<path style=" stroke:none;fill-rule:nonzero;fill:rgb(17.254902%,57.254902%,74.901961%);fill-opacity:1;" d="M 14.722656 9.597656 L 14.175781 13.765625 C 14.074219 14.519531 13.4375 15.078125 12.675781 15.078125 L 8.230469 15.078125 C 7.472656 15.078125 6.832031 14.519531 6.734375 13.765625 L 6.363281 10.941406 C 6.269531 10.226562 6.824219 9.597656 7.542969 9.597656 Z M 14.722656 9.597656 "/>
<path style=" stroke:none;fill-rule:nonzero;fill:rgb(12.156863%,50.588235%,63.921569%);fill-opacity:1;" d="M 15.644531 6.8125 L 15.644531 7.613281 C 15.644531 7.988281 15.339844 8.289062 14.964844 8.289062 L 3.851562 8.289062 C 3.476562 8.289062 3.175781 7.988281 3.175781 7.613281 L 3.175781 6.8125 C 3.175781 6.441406 3.476562 6.136719 3.851562 6.136719 L 14.964844 6.136719 C 15.339844 6.136719 15.644531 6.441406 15.644531 6.8125 Z M 15.644531 6.8125 "/>
<path style=" stroke:none;fill-rule:nonzero;fill:rgb(17.254902%,57.254902%,74.901961%);fill-opacity:1;" d="M 15.644531 6.8125 L 15.644531 7.613281 C 15.644531 7.988281 15.339844 8.289062 14.964844 8.289062 L 6.464844 8.289062 C 6.089844 8.289062 5.785156 7.988281 5.785156 7.613281 L 5.785156 6.8125 C 5.785156 6.441406 6.089844 6.136719 6.464844 6.136719 L 14.964844 6.136719 C 15.339844 6.136719 15.644531 6.441406 15.644531 6.8125 Z M 15.644531 6.8125 "/>
<path style=" stroke:none;fill-rule:nonzero;fill:rgb(23.529412%,24.705882%,30.196078%);fill-opacity:1;" d="M 9.410156 3.070312 C 8.796875 3.070312 8.300781 3.566406 8.300781 4.179688 L 8.300781 9.464844 C 8.300781 10.078125 8.796875 10.574219 9.410156 10.574219 C 10.023438 10.574219 10.519531 10.078125 10.519531 9.464844 L 10.519531 4.179688 C 10.519531 3.566406 10.023438 3.070312 9.410156 3.070312 Z M 9.410156 3.070312 "/>
<path style=" stroke:none;fill-rule:nonzero;fill:rgb(17.647059%,18.823529%,23.137255%);fill-opacity:1;" d="M 28.441406 22.816406 L 13.953125 22.816406 L 14.277344 19.714844 L 28.117188 19.714844 Z M 28.441406 22.816406 "/>
<path style=" stroke:none;fill-rule:nonzero;fill:rgb(100%,28.627451%,12.156863%);fill-opacity:1;" d="M 28.644531 15.984375 L 15.578125 15.984375 L 13.914062 32.007812 L 30.308594 32.007812 Z M 28.644531 15.984375 "/>
<path style=" stroke:none;fill-rule:nonzero;fill:rgb(100%,88.235294%,30.196078%);fill-opacity:1;" d="M 20.980469 21.167969 L 11.898438 21.167969 L 10.738281 32.007812 L 22.136719 32.007812 Z M 20.980469 21.167969 "/>
<path style=" stroke:none;fill-rule:nonzero;fill:rgb(100%,100%,100%);fill-opacity:1;" d="M 25.636719 18.042969 C 25.367188 18.042969 25.144531 17.824219 25.144531 17.554688 L 25.144531 14.320312 C 25.144531 12.648438 23.785156 11.285156 22.109375 11.285156 C 20.4375 11.285156 19.074219 12.648438 19.074219 14.320312 L 19.074219 17.554688 C 19.074219 17.824219 18.855469 18.042969 18.585938 18.042969 C 18.316406 18.042969 18.097656 17.824219 18.097656 17.554688 L 18.097656 14.320312 C 18.097656 12.109375 19.898438 10.308594 22.109375 10.308594 C 24.324219 10.308594 26.125 12.109375 26.125 14.320312 L 26.125 17.554688 C 26.125 17.824219 25.90625 18.042969 25.636719 18.042969 Z M 25.636719 18.042969 "/>
<path style=" stroke:none;fill-rule:nonzero;fill:rgb(23.529412%,24.705882%,30.196078%);fill-opacity:1;" d="M 16.4375 27.84375 C 15.007812 27.84375 13.84375 26.679688 13.84375 25.25 L 13.84375 23.144531 C 13.84375 22.871094 14.0625 22.652344 14.332031 22.652344 C 14.601562 22.652344 14.824219 22.871094 14.824219 23.144531 L 14.824219 25.25 C 14.824219 26.140625 15.546875 26.863281 16.4375 26.863281 C 17.328125 26.863281 18.054688 26.140625 18.054688 25.25 L 18.054688 23.144531 C 18.054688 22.871094 18.273438 22.652344 18.542969 22.652344 C 18.8125 22.652344 19.03125 22.871094 19.03125 23.144531 L 19.03125 25.25 C 19.03125 26.679688 17.867188 27.84375 16.4375 27.84375 Z M 16.4375 27.84375 "/>
<path style=" stroke:none;fill-rule:nonzero;fill:rgb(100%,28.627451%,12.156863%);fill-opacity:1;" d="M 20.558594 5.527344 L 18.46875 5.527344 C 18.199219 5.527344 17.980469 5.304688 17.980469 5.035156 C 17.980469 4.765625 18.199219 4.546875 18.46875 4.546875 L 20.558594 4.546875 C 20.828125 4.546875 21.050781 4.765625 21.050781 5.035156 C 21.050781 5.304688 20.828125 5.527344 20.558594 5.527344 Z M 20.558594 5.527344 "/>
<path style=" stroke:none;fill-rule:nonzero;fill:rgb(23.529412%,24.705882%,30.196078%);fill-opacity:1;" d="M 29.503906 5.527344 L 22.714844 5.527344 C 22.441406 5.527344 22.222656 5.304688 22.222656 5.035156 C 22.222656 4.765625 22.441406 4.546875 22.714844 4.546875 L 29.503906 4.546875 C 29.773438 4.546875 29.992188 4.765625 29.992188 5.035156 C 29.992188 5.304688 29.773438 5.527344 29.503906 5.527344 Z M 29.503906 5.527344 "/>
<path style=" stroke:none;fill-rule:nonzero;fill:rgb(100%,28.627451%,12.156863%);fill-opacity:1;" d="M 20.558594 7.8125 L 18.46875 7.8125 C 18.199219 7.8125 17.980469 7.589844 17.980469 7.320312 C 17.980469 7.050781 18.199219 6.832031 18.46875 6.832031 L 20.558594 6.832031 C 20.828125 6.832031 21.050781 7.050781 21.050781 7.320312 C 21.050781 7.589844 20.828125 7.8125 20.558594 7.8125 Z M 20.558594 7.8125 "/>
<path style=" stroke:none;fill-rule:nonzero;fill:rgb(23.529412%,24.705882%,30.196078%);fill-opacity:1;" d="M 29.503906 7.8125 L 22.714844 7.8125 C 22.441406 7.8125 22.222656 7.589844 22.222656 7.320312 C 22.222656 7.050781 22.441406 6.832031 22.714844 6.832031 L 29.503906 6.832031 C 29.773438 6.832031 29.992188 7.050781 29.992188 7.320312 C 29.992188 7.589844 29.773438 7.8125 29.503906 7.8125 Z M 29.503906 7.8125 "/>
</g>
</svg>
