<?xml version="1.0" encoding="UTF-8"?>
<svg xmlns="http://www.w3.org/2000/svg" xmlns:xlink="http://www.w3.org/1999/xlink" width="32pt" height="32pt" viewBox="0 0 32 32" version="1.1">
<g id="surface1">
<path style=" stroke:none;fill-rule:nonzero;fill:rgb(93.333333%,74.901961%,0%);fill-opacity:1;" d="M 25.4375 7.28125 L 19.300781 7.28125 C 18.78125 7.28125 18.363281 6.859375 18.363281 6.34375 C 18.363281 5.824219 18.78125 5.40625 19.300781 5.40625 L 25.4375 5.40625 C 25.957031 5.40625 26.375 5.824219 26.375 6.34375 C 26.375 6.859375 25.957031 7.28125 25.4375 7.28125 Z M 25.4375 7.28125 "/>
<path style=" stroke:none;fill-rule:nonzero;fill:rgb(100%,83.137255%,13.333333%);fill-opacity:1;" d="M 12.699219 7.28125 L 6.5625 7.28125 C 6.042969 7.28125 5.625 6.859375 5.625 6.34375 C 5.625 5.824219 6.042969 5.40625 6.5625 5.40625 L 12.699219 5.40625 C 13.21875 5.40625 13.636719 5.824219 13.636719 6.34375 C 13.636719 6.859375 13.21875 7.28125 12.699219 7.28125 Z M 12.699219 7.28125 "/>
<path style=" stroke:none;fill-rule:nonzero;fill:rgb(80.392157%,88.235294%,90.196078%);fill-opacity:1;" d="M 29.8125 21.03125 L 21.0625 21.03125 C 20.761719 21.03125 20.484375 20.886719 20.304688 20.644531 C 20.128906 20.40625 20.078125 20.09375 20.167969 19.808594 L 24.542969 6.058594 C 24.667969 5.667969 25.03125 5.40625 25.4375 5.40625 C 25.84375 5.40625 26.207031 5.667969 26.332031 6.058594 L 30.707031 19.808594 C 30.796875 20.09375 30.746094 20.40625 30.570312 20.644531 C 30.390625 20.886719 30.113281 21.03125 29.8125 21.03125 Z M 22.34375 19.15625 L 28.53125 19.15625 L 25.4375 9.433594 Z M 22.34375 19.15625 "/>
<path style=" stroke:none;fill-rule:nonzero;fill:rgb(88.235294%,92.156863%,94.117647%);fill-opacity:1;" d="M 10.9375 21.03125 L 2.1875 21.03125 C 1.886719 21.03125 1.605469 20.886719 1.429688 20.644531 C 1.253906 20.40625 1.203125 20.09375 1.292969 19.808594 L 5.667969 6.058594 C 5.792969 5.667969 6.15625 5.40625 6.5625 5.40625 C 6.96875 5.40625 7.332031 5.667969 7.457031 6.058594 L 11.832031 19.808594 C 11.921875 20.09375 11.871094 20.40625 11.695312 20.644531 C 11.519531 20.886719 11.238281 21.03125 10.9375 21.03125 Z M 3.46875 19.15625 L 9.65625 19.15625 L 6.5625 9.433594 Z M 3.46875 19.15625 "/>
<path style=" stroke:none;fill-rule:nonzero;fill:rgb(19.607843%,23.529412%,23.529412%);fill-opacity:1;" d="M 31.0625 21.03125 L 19.8125 21.03125 C 19.292969 21.03125 18.875 20.609375 18.875 20.09375 C 18.875 19.574219 19.292969 19.15625 19.8125 19.15625 L 31.0625 19.15625 C 31.582031 19.15625 32 19.574219 32 20.09375 C 32 20.609375 31.582031 21.03125 31.0625 21.03125 Z M 31.0625 21.03125 "/>
<path style=" stroke:none;fill-rule:nonzero;fill:rgb(24.705882%,29.019608%,29.019608%);fill-opacity:1;" d="M 12.1875 21.03125 L 0.9375 21.03125 C 0.417969 21.03125 0 20.609375 0 20.09375 C 0 19.574219 0.417969 19.15625 0.9375 19.15625 L 12.1875 19.15625 C 12.707031 19.15625 13.125 19.574219 13.125 20.09375 C 13.125 20.609375 12.707031 21.03125 12.1875 21.03125 Z M 12.1875 21.03125 "/>
<path style=" stroke:none;fill-rule:nonzero;fill:rgb(24.705882%,29.019608%,29.019608%);fill-opacity:1;" d="M 16 26.0625 C 15.480469 26.0625 15.0625 25.640625 15.0625 25.125 L 15.0625 9.625 C 15.0625 9.105469 15.480469 8.6875 16 8.6875 C 16.519531 8.6875 16.9375 9.105469 16.9375 9.625 L 16.9375 25.125 C 16.9375 25.640625 16.519531 26.0625 16 26.0625 Z M 16 26.0625 "/>
<path style=" stroke:none;fill-rule:nonzero;fill:rgb(19.607843%,23.529412%,23.529412%);fill-opacity:1;" d="M 16.9375 25.125 L 16.9375 9.625 C 16.9375 9.105469 16.519531 8.6875 16 8.6875 L 16 26.0625 C 16.519531 26.0625 16.9375 25.640625 16.9375 25.125 Z M 16.9375 25.125 "/>
<path style=" stroke:none;fill-rule:nonzero;fill:rgb(100%,38.823529%,47.45098%);fill-opacity:1;" d="M 16 10.5625 C 15.761719 10.5625 15.523438 10.46875 15.339844 10.289062 L 12.140625 7.113281 C 11.039062 6.015625 11.039062 4.230469 12.136719 3.136719 C 13.195312 2.074219 14.898438 2.039062 16 3.027344 C 17.101562 2.039062 18.804688 2.074219 19.863281 3.132812 C 20.960938 4.230469 20.960938 6.015625 19.863281 7.113281 L 16.660156 10.289062 C 16.476562 10.46875 16.238281 10.5625 16 10.5625 Z M 16 10.5625 "/>
<path style=" stroke:none;fill-rule:nonzero;fill:rgb(100%,38.823529%,47.45098%);fill-opacity:1;" d="M 22.875 29.8125 L 9.125 29.8125 C 8.605469 29.8125 8.1875 29.390625 8.1875 28.875 C 8.1875 26.289062 10.289062 24.1875 12.875 24.1875 L 19.125 24.1875 C 21.710938 24.1875 23.8125 26.289062 23.8125 28.875 C 23.8125 29.390625 23.394531 29.8125 22.875 29.8125 Z M 22.875 29.8125 "/>
<path style=" stroke:none;fill-rule:nonzero;fill:rgb(100%,25.490196%,35.686275%);fill-opacity:1;" d="M 16 3.027344 L 16 10.5625 C 16.238281 10.5625 16.476562 10.46875 16.660156 10.289062 L 19.863281 7.113281 C 20.960938 6.015625 20.960938 4.230469 19.863281 3.132812 C 18.804688 2.074219 17.101562 2.039062 16 3.027344 Z M 16 3.027344 "/>
<path style=" stroke:none;fill-rule:nonzero;fill:rgb(100%,25.490196%,35.686275%);fill-opacity:1;" d="M 19.125 24.1875 L 16 24.1875 L 16 29.8125 L 22.875 29.8125 C 23.394531 29.8125 23.8125 29.390625 23.8125 28.875 C 23.8125 26.289062 21.710938 24.1875 19.125 24.1875 Z M 19.125 24.1875 "/>
</g>
</svg>
