<?xml version='1.0' encoding='UTF-8'?>
<svg x="0px" y="0px" viewBox="0 0 32 32" version="1.1" xmlns="http://www.w3.org/2000/svg" xmlns:xlink="http://www.w3.org/1999/xlink" xml:space="preserve" id="Layer_1">
  <g />
  <g id="EditQuery">
    <g opacity="0.5" class="st1">
      <path d="M0,24h8v-6H0V24z M20,8h8V2h-8V8z M18,21.2V18h-8v6h5.2L18,21.2z M20,10h8v1.2L23.2,16H20V10z" fill="#727272" opacity="0.5" class="Black" />
    </g>
    <path d="M29,21l-8,8l-4-4l8-8L29,21z M30,20l1.7-1.7c0.4-0.4,0.4-1,0-1.3L29,14.3c-0.4-0.4-1-0.4-1.3,0L26,16L30,20z    M16,26v4h4L16,26z" fill="#1177D7" class="Blue" />
    <path d="M8,10H0v6h8V10z M8,2H0v6h8V2z M18,2h-8v6h8V2z M18,10h-8v6h8V10z" fill="#039C23" class="Green" />
  </g>
</svg>