<?xml version="1.0" encoding="UTF-8"?>
<svg xmlns="http://www.w3.org/2000/svg" xmlns:xlink="http://www.w3.org/1999/xlink" width="40pt" height="40pt" viewBox="0 0 40 40" version="1.1">
<g id="surface1">
<path style=" stroke:none;fill-rule:nonzero;fill:rgb(47.058824%,81.568627%,90.980392%);fill-opacity:1;" d="M 7.457031 28.066406 L 32.574219 10.15625 L 39.800781 17.171875 C 38.425781 7.464844 30.085938 0 20 0 C 8.953125 0 0 8.953125 0 20 C 0 30.925781 8.761719 39.804688 19.640625 39.996094 Z M 7.457031 28.066406 "/>
<path style=" stroke:none;fill-rule:nonzero;fill:rgb(29.803922%,73.72549%,83.921569%);fill-opacity:1;" d="M 7.457031 28.066406 L 19.640625 39.996094 C 19.761719 39.996094 19.878906 40 20 40 C 31.046875 40 40 31.046875 40 20 C 40 19.039062 39.929688 18.09375 39.800781 17.171875 L 32.574219 10.15625 Z M 7.457031 28.066406 "/>
<path style=" stroke:none;fill-rule:nonzero;fill:rgb(100%,100%,100%);fill-opacity:1;" d="M 28.339844 27.179688 L 28.339844 34.472656 L 19.097656 27.179688 Z M 28.339844 27.179688 "/>
<path style=" stroke:none;fill-rule:nonzero;fill:rgb(100%,100%,100%);fill-opacity:1;" d="M 31.621094 28.425781 L 8.378906 28.425781 C 7.632812 28.425781 7.019531 27.816406 7.019531 27.070312 L 7.019531 11.121094 C 7.019531 10.375 7.632812 9.765625 8.378906 9.765625 L 31.621094 9.765625 C 32.367188 9.765625 32.980469 10.375 32.980469 11.121094 L 32.980469 27.070312 C 32.980469 27.816406 32.367188 28.425781 31.621094 28.425781 Z M 31.621094 28.425781 "/>
<path style=" stroke:none;fill-rule:nonzero;fill:rgb(20%,20%,20%);fill-opacity:1;" d="M 13.304688 20.40625 C 13.628906 20.59375 14.117188 20.757812 14.628906 20.757812 C 15.269531 20.757812 15.628906 20.457031 15.628906 20.007812 C 15.628906 19.59375 15.351562 19.351562 14.652344 19.097656 C 13.75 18.773438 13.175781 18.296875 13.175781 17.507812 C 13.175781 16.613281 13.921875 15.929688 15.109375 15.929688 C 15.703125 15.929688 16.140625 16.0625 16.425781 16.207031 L 16.179688 17.011719 C 15.984375 16.90625 15.605469 16.75 15.09375 16.75 C 14.457031 16.75 14.183594 17.09375 14.183594 17.410156 C 14.183594 17.832031 14.5 18.027344 15.230469 18.3125 C 16.179688 18.667969 16.644531 19.148438 16.644531 19.9375 C 16.644531 20.8125 15.980469 21.578125 14.566406 21.578125 C 13.988281 21.578125 13.386719 21.414062 13.085938 21.234375 Z M 13.304688 20.40625 "/>
<path style=" stroke:none;fill-rule:nonzero;fill:rgb(20%,20%,20%);fill-opacity:1;" d="M 17.507812 18.71875 C 17.507812 18.261719 17.496094 17.878906 17.472656 17.539062 L 18.335938 17.539062 L 18.375 18.125 L 18.398438 18.125 C 18.59375 17.816406 18.953125 17.449219 19.617188 17.449219 C 20.136719 17.449219 20.542969 17.742188 20.714844 18.179688 L 20.730469 18.179688 C 20.871094 17.960938 21.03125 17.800781 21.21875 17.683594 C 21.4375 17.53125 21.691406 17.449219 22.015625 17.449219 C 22.671875 17.449219 23.339844 17.898438 23.339844 19.164062 L 23.339844 21.496094 L 22.363281 21.496094 L 22.363281 19.308594 C 22.363281 18.652344 22.136719 18.261719 21.65625 18.261719 C 21.316406 18.261719 21.0625 18.503906 20.957031 18.789062 C 20.933594 18.886719 20.910156 19.007812 20.910156 19.125 L 20.910156 21.496094 L 19.933594 21.496094 L 19.933594 19.203125 C 19.933594 18.652344 19.714844 18.261719 19.25 18.261719 C 18.875 18.261719 18.625 18.554688 18.535156 18.832031 C 18.496094 18.925781 18.480469 19.042969 18.480469 19.15625 L 18.480469 21.496094 L 17.503906 21.496094 L 17.503906 18.71875 Z M 17.507812 18.71875 "/>
<path style=" stroke:none;fill-rule:nonzero;fill:rgb(20%,20%,20%);fill-opacity:1;" d="M 24.347656 20.578125 C 24.574219 20.714844 25.003906 20.863281 25.363281 20.863281 C 25.800781 20.863281 25.996094 20.683594 25.996094 20.421875 C 25.996094 20.15625 25.832031 20.015625 25.347656 19.847656 C 24.574219 19.578125 24.25 19.15625 24.257812 18.691406 C 24.257812 17.992188 24.835938 17.449219 25.753906 17.449219 C 26.191406 17.449219 26.574219 17.5625 26.800781 17.683594 L 26.605469 18.390625 C 26.4375 18.292969 26.117188 18.164062 25.769531 18.164062 C 25.410156 18.164062 25.214844 18.335938 25.214844 18.578125 C 25.214844 18.832031 25.402344 18.953125 25.90625 19.132812 C 26.621094 19.390625 26.953125 19.757812 26.960938 20.34375 C 26.960938 21.058594 26.402344 21.578125 25.355469 21.578125 C 24.875 21.578125 24.445312 21.464844 24.152344 21.300781 Z M 24.347656 20.578125 "/>
</g>
</svg>
