<?xml version="1.0" encoding="UTF-8"?>
<svg xmlns="http://www.w3.org/2000/svg" xmlns:xlink="http://www.w3.org/1999/xlink" width="32pt" height="32pt" viewBox="0 0 32 32" version="1.1">
<g id="surface1">
<path style=" stroke:none;fill-rule:nonzero;fill:rgb(97.647059%,81.176471%,74.901961%);fill-opacity:1;" d="M 24.914062 21.476562 C 24.308594 20.773438 23.566406 20.195312 22.792969 19.679688 C 22.796875 19.675781 22.796875 19.675781 22.796875 19.671875 C 21.28125 18.664062 19.671875 18.101562 18.261719 17.832031 L 18.261719 13.351562 L 13.800781 13.351562 L 13.800781 17.867188 C 11.539062 18.273438 9.882812 19.265625 9.300781 19.65625 L 9.242188 19.65625 C 5.953125 21.835938 3.789062 25.574219 3.808594 29.816406 L 3.828125 32 L 28.171875 32 L 28.191406 29.816406 C 28.203125 27.328125 27.464844 25.015625 26.1875 23.085938 C 26.1875 23.085938 25.246094 21.863281 24.914062 21.476562 Z M 24.914062 21.476562 "/>
<path style=" stroke:none;fill-rule:nonzero;fill:rgb(96.470588%,72.54902%,61.176471%);fill-opacity:1;" d="M 26.1875 23.085938 C 26.1875 23.085938 25.25 21.863281 24.914062 21.476562 C 24.308594 20.773438 23.566406 20.195312 22.792969 19.679688 C 22.796875 19.675781 22.796875 19.675781 22.796875 19.671875 C 21.28125 18.664062 19.671875 18.101562 18.261719 17.832031 L 18.261719 13.351562 L 16.140625 13.351562 L 16.140625 17.832031 C 17.550781 18.101562 19.15625 18.664062 20.675781 19.671875 C 20.671875 19.675781 20.671875 19.675781 20.671875 19.679688 C 21.445312 20.195312 22.183594 20.773438 22.789062 21.476562 C 23.125 21.863281 24.0625 23.085938 24.0625 23.085938 C 25.339844 25.011719 26.078125 27.328125 26.070312 29.816406 L 26.046875 32 L 28.171875 32 L 28.191406 29.816406 C 28.203125 27.328125 27.464844 25.015625 26.1875 23.085938 Z M 26.1875 23.085938 "/>
<path style=" stroke:none;fill-rule:nonzero;fill:rgb(97.647059%,81.176471%,74.901961%);fill-opacity:1;" d="M 8.65625 0.0078125 C 8.65625 0.0078125 13.941406 0.0078125 16.105469 0.0078125 C 20.222656 0.0078125 23.558594 3.34375 23.558594 7.460938 C 23.558594 11.574219 20.222656 14.910156 16.105469 14.910156 C 11.992188 14.910156 8.65625 11.574219 8.65625 7.460938 C 8.65625 6.925781 8.65625 0.0078125 8.65625 0.0078125 Z M 8.65625 0.0078125 "/>
<path style=" stroke:none;fill-rule:nonzero;fill:rgb(96.470588%,72.54902%,61.176471%);fill-opacity:1;" d="M 16.105469 0.0078125 C 15.554688 0.0078125 14.800781 0.0078125 13.984375 0.0078125 C 18.097656 0.0078125 21.433594 3.34375 21.433594 7.460938 C 21.433594 11.214844 18.65625 14.320312 15.046875 14.835938 C 15.390625 14.882812 15.746094 14.910156 16.105469 14.910156 C 20.222656 14.910156 23.558594 11.574219 23.558594 7.460938 C 23.558594 3.34375 20.222656 0.0078125 16.105469 0.0078125 Z M 16.105469 0.0078125 "/>
<path style=" stroke:none;fill-rule:nonzero;fill:rgb(79.607843%,50.196078%,27.45098%);fill-opacity:1;" d="M 22.058594 2.972656 C 20.695312 1.171875 18.539062 0.0078125 16.105469 0.0078125 C 13.941406 0.0078125 8.65625 0.0078125 8.65625 0.0078125 C 8.65625 0.0078125 8.65625 6.925781 8.65625 7.460938 C 8.65625 7.636719 8.664062 7.8125 8.675781 7.984375 L 9.308594 8.316406 C 9.308594 8.316406 17.820312 11.6875 22.058594 2.972656 Z M 22.058594 2.972656 "/>
<path style=" stroke:none;fill-rule:nonzero;fill:rgb(96.470588%,72.54902%,61.176471%);fill-opacity:1;" d="M 17.476562 0.132812 C 17.53125 0.144531 17.585938 0.15625 17.636719 0.164062 C 17.585938 0.15625 17.53125 0.144531 17.476562 0.132812 Z M 17.476562 0.132812 "/>
<path style=" stroke:none;fill-rule:nonzero;fill:rgb(96.470588%,72.54902%,61.176471%);fill-opacity:1;" d="M 19.671875 0.914062 C 19.730469 0.949219 19.789062 0.980469 19.847656 1.015625 C 19.789062 0.980469 19.730469 0.949219 19.671875 0.914062 Z M 19.671875 0.914062 "/>
<path style=" stroke:none;fill-rule:nonzero;fill:rgb(96.470588%,72.54902%,61.176471%);fill-opacity:1;" d="M 20.230469 1.253906 C 20.28125 1.285156 20.332031 1.320312 20.378906 1.355469 C 20.332031 1.320312 20.28125 1.285156 20.230469 1.253906 Z M 20.230469 1.253906 "/>
<path style=" stroke:none;fill-rule:nonzero;fill:rgb(96.470588%,72.54902%,61.176471%);fill-opacity:1;" d="M 19.882812 1.035156 C 19.929688 1.0625 19.976562 1.089844 20.019531 1.117188 C 19.976562 1.089844 19.929688 1.0625 19.882812 1.035156 Z M 19.882812 1.035156 "/>
<path style=" stroke:none;fill-rule:nonzero;fill:rgb(96.470588%,72.54902%,61.176471%);fill-opacity:1;" d="M 17.230469 0.09375 C 17.300781 0.101562 17.367188 0.113281 17.4375 0.125 C 17.367188 0.113281 17.300781 0.101562 17.230469 0.09375 Z M 17.230469 0.09375 "/>
<path style=" stroke:none;fill-rule:nonzero;fill:rgb(96.470588%,72.54902%,61.176471%);fill-opacity:1;" d="M 20.398438 1.367188 C 20.511719 1.445312 20.621094 1.53125 20.730469 1.617188 C 20.621094 1.53125 20.511719 1.445312 20.398438 1.367188 Z M 20.398438 1.367188 "/>
<path style=" stroke:none;fill-rule:nonzero;fill:rgb(96.470588%,72.54902%,61.176471%);fill-opacity:1;" d="M 20.0625 1.144531 C 20.105469 1.171875 20.152344 1.199219 20.195312 1.230469 C 20.152344 1.199219 20.105469 1.171875 20.0625 1.144531 Z M 20.0625 1.144531 "/>
<path style=" stroke:none;fill-rule:nonzero;fill:rgb(96.470588%,72.54902%,61.176471%);fill-opacity:1;" d="M 19.484375 0.816406 C 19.546875 0.847656 19.609375 0.882812 19.671875 0.914062 C 19.609375 0.882812 19.546875 0.847656 19.484375 0.816406 Z M 19.484375 0.816406 "/>
<path style=" stroke:none;fill-rule:nonzero;fill:rgb(96.470588%,72.54902%,61.176471%);fill-opacity:1;" d="M 18.933594 0.5625 C 18.980469 0.582031 19.023438 0.601562 19.066406 0.621094 C 19.023438 0.601562 18.980469 0.582031 18.933594 0.5625 Z M 18.933594 0.5625 "/>
<path style=" stroke:none;fill-rule:nonzero;fill:rgb(96.470588%,72.54902%,61.176471%);fill-opacity:1;" d="M 18.734375 0.484375 C 18.78125 0.503906 18.832031 0.523438 18.878906 0.542969 C 18.832031 0.523438 18.78125 0.503906 18.734375 0.484375 Z M 18.734375 0.484375 "/>
<path style=" stroke:none;fill-rule:nonzero;fill:rgb(96.470588%,72.54902%,61.176471%);fill-opacity:1;" d="M 18.300781 0.335938 C 18.433594 0.378906 18.5625 0.421875 18.6875 0.46875 C 18.5625 0.421875 18.433594 0.378906 18.300781 0.335938 Z M 18.300781 0.335938 "/>
<path style=" stroke:none;fill-rule:nonzero;fill:rgb(96.470588%,72.54902%,61.176471%);fill-opacity:1;" d="M 19.121094 0.644531 C 19.167969 0.664062 19.214844 0.6875 19.261719 0.707031 C 19.214844 0.6875 19.167969 0.664062 19.121094 0.644531 Z M 19.121094 0.644531 "/>
<path style=" stroke:none;fill-rule:nonzero;fill:rgb(96.470588%,72.54902%,61.176471%);fill-opacity:1;" d="M 19.304688 0.726562 C 19.363281 0.753906 19.417969 0.785156 19.476562 0.8125 C 19.417969 0.78125 19.363281 0.753906 19.304688 0.726562 Z M 19.304688 0.726562 "/>
<path style=" stroke:none;fill-rule:nonzero;fill:rgb(96.470588%,72.54902%,61.176471%);fill-opacity:1;" d="M 18.109375 0.28125 C 18.15625 0.292969 18.203125 0.308594 18.25 0.320312 C 18.203125 0.308594 18.15625 0.292969 18.109375 0.28125 Z M 18.109375 0.28125 "/>
<path style=" stroke:none;fill-rule:nonzero;fill:rgb(96.470588%,72.54902%,61.176471%);fill-opacity:1;" d="M 17.910156 0.226562 C 17.953125 0.238281 17.996094 0.25 18.039062 0.261719 C 17.996094 0.25 17.953125 0.238281 17.910156 0.226562 Z M 17.910156 0.226562 "/>
<path style=" stroke:none;fill-rule:nonzero;fill:rgb(96.470588%,72.54902%,61.176471%);fill-opacity:1;" d="M 17.703125 0.179688 C 17.75 0.191406 17.792969 0.199219 17.839844 0.210938 C 17.792969 0.199219 17.75 0.191406 17.703125 0.179688 Z M 17.703125 0.179688 "/>
<path style=" stroke:none;fill-rule:nonzero;fill:rgb(96.470588%,72.54902%,61.176471%);fill-opacity:1;" d="M 21.804688 2.65625 C 21.84375 2.703125 21.878906 2.75 21.917969 2.796875 C 21.878906 2.75 21.839844 2.703125 21.804688 2.65625 Z M 21.804688 2.65625 "/>
<path style=" stroke:none;fill-rule:nonzero;fill:rgb(96.470588%,72.54902%,61.176471%);fill-opacity:1;" d="M 21.660156 2.492188 C 21.703125 2.539062 21.742188 2.585938 21.785156 2.632812 C 21.742188 2.585938 21.703125 2.539062 21.660156 2.492188 Z M 21.660156 2.492188 "/>
<path style=" stroke:none;fill-rule:nonzero;fill:rgb(96.470588%,72.54902%,61.176471%);fill-opacity:1;" d="M 17.027344 0.0664062 C 17.082031 0.0703125 17.132812 0.078125 17.1875 0.0859375 C 17.132812 0.078125 17.082031 0.0703125 17.027344 0.0664062 Z M 17.027344 0.0664062 "/>
<path style=" stroke:none;fill-rule:nonzero;fill:rgb(96.470588%,72.54902%,61.176471%);fill-opacity:1;" d="M 16.609375 0.0273438 C 16.652344 0.0273438 16.695312 0.03125 16.742188 0.0351562 C 16.695312 0.03125 16.652344 0.0273438 16.609375 0.0273438 Z M 16.609375 0.0273438 "/>
<path style=" stroke:none;fill-rule:nonzero;fill:rgb(96.470588%,72.54902%,61.176471%);fill-opacity:1;" d="M 21.933594 2.816406 C 21.976562 2.867188 22.015625 2.921875 22.058594 2.972656 C 21.71875 3.671875 21.351562 4.292969 20.960938 4.84375 C 21.265625 5.660156 21.433594 6.539062 21.433594 7.460938 C 21.433594 11.214844 18.65625 14.320312 15.046875 14.835938 C 15.390625 14.882812 15.746094 14.910156 16.105469 14.910156 C 20.222656 14.910156 23.558594 11.574219 23.558594 7.460938 C 23.558594 5.703125 22.949219 4.089844 21.933594 2.816406 Z M 21.933594 2.816406 "/>
<path style=" stroke:none;fill-rule:nonzero;fill:rgb(96.470588%,72.54902%,61.176471%);fill-opacity:1;" d="M 16.105469 0.0078125 C 16.179688 0.0078125 16.25 0.0078125 16.320312 0.0117188 C 16.25 0.0078125 16.179688 0.0078125 16.105469 0.0078125 Z M 16.105469 0.0078125 "/>
<path style=" stroke:none;fill-rule:nonzero;fill:rgb(96.470588%,72.54902%,61.176471%);fill-opacity:1;" d="M 21.652344 2.480469 C 21.511719 2.328125 21.367188 2.179688 21.214844 2.035156 C 21.367188 2.179688 21.511719 2.328125 21.652344 2.480469 Z M 21.652344 2.480469 "/>
<path style=" stroke:none;fill-rule:nonzero;fill:rgb(96.470588%,72.54902%,61.176471%);fill-opacity:1;" d="M 16.386719 0.015625 C 16.433594 0.015625 16.480469 0.0195312 16.53125 0.0195312 C 16.480469 0.0195312 16.433594 0.015625 16.386719 0.015625 Z M 16.386719 0.015625 "/>
<path style=" stroke:none;fill-rule:nonzero;fill:rgb(96.470588%,72.54902%,61.176471%);fill-opacity:1;" d="M 16.820312 0.0429688 C 16.863281 0.046875 16.910156 0.0507812 16.953125 0.0546875 C 16.910156 0.0507812 16.863281 0.046875 16.820312 0.0429688 Z M 16.820312 0.0429688 "/>
<path style=" stroke:none;fill-rule:nonzero;fill:rgb(96.470588%,72.54902%,61.176471%);fill-opacity:1;" d="M 20.738281 1.621094 C 20.789062 1.660156 20.835938 1.703125 20.886719 1.742188 C 20.835938 1.703125 20.789062 1.660156 20.738281 1.621094 Z M 20.738281 1.621094 "/>
<path style=" stroke:none;fill-rule:nonzero;fill:rgb(96.470588%,72.54902%,61.176471%);fill-opacity:1;" d="M 20.910156 1.765625 C 20.953125 1.800781 21 1.839844 21.042969 1.875 C 21 1.839844 20.953125 1.800781 20.910156 1.765625 Z M 20.910156 1.765625 "/>
<path style=" stroke:none;fill-rule:nonzero;fill:rgb(96.470588%,72.54902%,61.176471%);fill-opacity:1;" d="M 21.066406 1.898438 C 21.113281 1.941406 21.15625 1.980469 21.199219 2.019531 C 21.15625 1.980469 21.113281 1.941406 21.066406 1.898438 Z M 21.066406 1.898438 "/>
<path style=" stroke:none;fill-rule:nonzero;fill:rgb(79.607843%,50.196078%,27.45098%);fill-opacity:1;" d="M 16.320312 0.0117188 C 16.339844 0.0117188 16.363281 0.0117188 16.386719 0.015625 C 16.363281 0.0117188 16.339844 0.0117188 16.320312 0.0117188 Z M 16.320312 0.0117188 "/>
<path style=" stroke:none;fill-rule:nonzero;fill:rgb(79.607843%,50.196078%,27.45098%);fill-opacity:1;" d="M 17.1875 0.0859375 C 17.199219 0.0898438 17.214844 0.0898438 17.230469 0.09375 C 17.214844 0.0898438 17.199219 0.0898438 17.1875 0.0859375 Z M 17.1875 0.0859375 "/>
<path style=" stroke:none;fill-rule:nonzero;fill:rgb(79.607843%,50.196078%,27.45098%);fill-opacity:1;" d="M 16.953125 0.0546875 C 16.980469 0.0585938 17.003906 0.0625 17.027344 0.0664062 C 17.003906 0.0625 16.980469 0.0585938 16.953125 0.0546875 Z M 16.953125 0.0546875 "/>
<path style=" stroke:none;fill-rule:nonzero;fill:rgb(79.607843%,50.196078%,27.45098%);fill-opacity:1;" d="M 18.039062 0.261719 C 18.0625 0.269531 18.085938 0.273438 18.109375 0.28125 C 18.085938 0.273438 18.0625 0.269531 18.039062 0.261719 Z M 18.039062 0.261719 "/>
<path style=" stroke:none;fill-rule:nonzero;fill:rgb(79.607843%,50.196078%,27.45098%);fill-opacity:1;" d="M 17.4375 0.125 C 17.449219 0.128906 17.464844 0.132812 17.476562 0.132812 C 17.464844 0.132812 17.449219 0.128906 17.4375 0.125 Z M 17.4375 0.125 "/>
<path style=" stroke:none;fill-rule:nonzero;fill:rgb(79.607843%,50.196078%,27.45098%);fill-opacity:1;" d="M 17.636719 0.164062 C 17.660156 0.171875 17.679688 0.175781 17.703125 0.179688 C 17.679688 0.175781 17.660156 0.171875 17.636719 0.164062 Z M 17.636719 0.164062 "/>
<path style=" stroke:none;fill-rule:nonzero;fill:rgb(79.607843%,50.196078%,27.45098%);fill-opacity:1;" d="M 16.53125 0.0195312 C 16.554688 0.0234375 16.582031 0.0234375 16.609375 0.0234375 C 16.582031 0.0234375 16.554688 0.0234375 16.53125 0.0195312 Z M 16.53125 0.0195312 "/>
<path style=" stroke:none;fill-rule:nonzero;fill:rgb(79.607843%,50.196078%,27.45098%);fill-opacity:1;" d="M 17.839844 0.210938 C 17.863281 0.214844 17.886719 0.222656 17.910156 0.226562 C 17.886719 0.222656 17.863281 0.214844 17.839844 0.210938 Z M 17.839844 0.210938 "/>
<path style=" stroke:none;fill-rule:nonzero;fill:rgb(79.607843%,50.196078%,27.45098%);fill-opacity:1;" d="M 16.742188 0.0351562 C 16.765625 0.0390625 16.792969 0.0390625 16.820312 0.0429688 C 16.792969 0.0390625 16.765625 0.0390625 16.742188 0.0351562 Z M 16.742188 0.0351562 "/>
<path style=" stroke:none;fill-rule:nonzero;fill:rgb(79.607843%,50.196078%,27.45098%);fill-opacity:1;" d="M 18.878906 0.542969 C 18.898438 0.546875 18.914062 0.554688 18.933594 0.5625 C 18.914062 0.554688 18.898438 0.546875 18.878906 0.542969 Z M 18.878906 0.542969 "/>
<path style=" stroke:none;fill-rule:nonzero;fill:rgb(79.607843%,50.196078%,27.45098%);fill-opacity:1;" d="M 21.042969 1.875 C 21.050781 1.882812 21.058594 1.890625 21.066406 1.898438 C 21.058594 1.890625 21.050781 1.882812 21.042969 1.875 Z M 21.042969 1.875 "/>
<path style=" stroke:none;fill-rule:nonzero;fill:rgb(79.607843%,50.196078%,27.45098%);fill-opacity:1;" d="M 20.886719 1.742188 C 20.894531 1.75 20.902344 1.757812 20.910156 1.765625 C 20.902344 1.757812 20.894531 1.75 20.886719 1.742188 Z M 20.886719 1.742188 "/>
<path style=" stroke:none;fill-rule:nonzero;fill:rgb(79.607843%,50.196078%,27.45098%);fill-opacity:1;" d="M 18.25 0.320312 C 18.269531 0.328125 18.285156 0.332031 18.300781 0.335938 C 18.285156 0.332031 18.269531 0.328125 18.25 0.320312 Z M 18.25 0.320312 "/>
<path style=" stroke:none;fill-rule:nonzero;fill:rgb(79.607843%,50.196078%,27.45098%);fill-opacity:1;" d="M 20.730469 1.617188 C 20.734375 1.617188 20.734375 1.621094 20.738281 1.621094 C 20.734375 1.621094 20.734375 1.617188 20.730469 1.617188 Z M 20.730469 1.617188 "/>
<path style=" stroke:none;fill-rule:nonzero;fill:rgb(79.607843%,50.196078%,27.45098%);fill-opacity:1;" d="M 21.199219 2.019531 C 21.207031 2.027344 21.210938 2.03125 21.214844 2.035156 C 21.210938 2.03125 21.207031 2.027344 21.199219 2.019531 Z M 21.199219 2.019531 "/>
<path style=" stroke:none;fill-rule:nonzero;fill:rgb(79.607843%,50.196078%,27.45098%);fill-opacity:1;" d="M 21.917969 2.796875 C 21.921875 2.800781 21.929688 2.808594 21.933594 2.816406 C 21.929688 2.808594 21.921875 2.800781 21.917969 2.796875 Z M 21.917969 2.796875 "/>
<path style=" stroke:none;fill-rule:nonzero;fill:rgb(79.607843%,50.196078%,27.45098%);fill-opacity:1;" d="M 21.652344 2.480469 C 21.65625 2.484375 21.65625 2.488281 21.660156 2.492188 C 21.65625 2.488281 21.65625 2.484375 21.652344 2.480469 Z M 21.652344 2.480469 "/>
<path style=" stroke:none;fill-rule:nonzero;fill:rgb(79.607843%,50.196078%,27.45098%);fill-opacity:1;" d="M 21.785156 2.632812 C 21.789062 2.640625 21.796875 2.648438 21.804688 2.65625 C 21.796875 2.648438 21.789062 2.640625 21.785156 2.632812 Z M 21.785156 2.632812 "/>
<path style=" stroke:none;fill-rule:nonzero;fill:rgb(79.607843%,50.196078%,27.45098%);fill-opacity:1;" d="M 20.378906 1.355469 C 20.386719 1.359375 20.390625 1.363281 20.398438 1.367188 C 20.390625 1.363281 20.386719 1.359375 20.378906 1.355469 Z M 20.378906 1.355469 "/>
<path style=" stroke:none;fill-rule:nonzero;fill:rgb(79.607843%,50.196078%,27.45098%);fill-opacity:1;" d="M 19.476562 0.8125 C 19.480469 0.8125 19.480469 0.816406 19.484375 0.816406 C 19.480469 0.816406 19.480469 0.8125 19.476562 0.8125 Z M 19.476562 0.8125 "/>
<path style=" stroke:none;fill-rule:nonzero;fill:rgb(79.607843%,50.196078%,27.45098%);fill-opacity:1;" d="M 19.261719 0.707031 C 19.277344 0.714844 19.289062 0.722656 19.304688 0.726562 C 19.289062 0.722656 19.277344 0.714844 19.261719 0.707031 Z M 19.261719 0.707031 "/>
<path style=" stroke:none;fill-rule:nonzero;fill:rgb(79.607843%,50.196078%,27.45098%);fill-opacity:1;" d="M 19.066406 0.621094 C 19.085938 0.628906 19.105469 0.636719 19.121094 0.644531 C 19.105469 0.636719 19.085938 0.628906 19.066406 0.621094 Z M 19.066406 0.621094 "/>
<path style=" stroke:none;fill-rule:nonzero;fill:rgb(79.607843%,50.196078%,27.45098%);fill-opacity:1;" d="M 18.6875 0.46875 C 18.703125 0.472656 18.71875 0.480469 18.734375 0.484375 C 18.71875 0.480469 18.703125 0.472656 18.6875 0.46875 Z M 18.6875 0.46875 "/>
<path style=" stroke:none;fill-rule:nonzero;fill:rgb(79.607843%,50.196078%,27.45098%);fill-opacity:1;" d="M 20.019531 1.117188 C 20.035156 1.125 20.046875 1.136719 20.0625 1.144531 C 20.046875 1.136719 20.035156 1.125 20.019531 1.117188 Z M 20.019531 1.117188 "/>
<path style=" stroke:none;fill-rule:nonzero;fill:rgb(79.607843%,50.196078%,27.45098%);fill-opacity:1;" d="M 20.195312 1.230469 C 20.207031 1.238281 20.21875 1.246094 20.230469 1.253906 C 20.21875 1.246094 20.207031 1.238281 20.195312 1.230469 Z M 20.195312 1.230469 "/>
<path style=" stroke:none;fill-rule:nonzero;fill:rgb(79.607843%,50.196078%,27.45098%);fill-opacity:1;" d="M 19.847656 1.015625 C 19.859375 1.019531 19.871094 1.027344 19.882812 1.035156 C 19.871094 1.027344 19.859375 1.019531 19.847656 1.015625 Z M 19.847656 1.015625 "/>
<path style=" stroke:none;fill-rule:nonzero;fill:rgb(69.019608%,43.529412%,23.921569%);fill-opacity:1;" d="M 21.933594 2.816406 C 21.066406 1.730469 19.902344 0.898438 18.59375 0.433594 C 17.101562 -0.0976562 15.539062 0.0078125 13.984375 0.0078125 C 17.179688 0.0078125 19.902344 2.019531 20.960938 4.84375 C 21.351562 4.292969 21.71875 3.671875 22.058594 2.972656 C 22.015625 2.921875 21.976562 2.867188 21.933594 2.816406 Z M 21.933594 2.816406 "/>
<path style=" stroke:none;fill-rule:nonzero;fill:rgb(100%,45.098039%,45.098039%);fill-opacity:1;" d="M 18.261719 17.832031 C 18.261719 19.050781 17.25 20.132812 16.027344 20.132812 C 14.804688 20.132812 13.800781 19.097656 13.800781 17.878906 L 13.792969 17.867188 C 11.535156 18.273438 9.882812 19.265625 9.300781 19.65625 L 9.242188 19.65625 C 9.203125 19.683594 9.164062 19.710938 9.125 19.734375 L 9.125 32 L 22.777344 32 L 22.777344 19.660156 C 21.265625 18.660156 19.667969 18.097656 18.261719 17.832031 Z M 18.261719 17.832031 "/>
<path style=" stroke:none;fill-rule:nonzero;fill:rgb(87.843137%,36.862745%,36.862745%);fill-opacity:1;" d="M 18.261719 17.832031 C 18.261719 18.027344 18.238281 18.222656 18.1875 18.40625 C 19.003906 18.714844 19.851562 19.105469 20.652344 19.660156 C 21.988281 20.574219 22.777344 21.476562 22.777344 21.476562 L 22.777344 19.660156 C 21.265625 18.660156 19.667969 18.097656 18.261719 17.832031 Z M 18.261719 17.832031 "/>
<path style=" stroke:none;fill-rule:nonzero;fill:rgb(36.862745%,39.215686%,47.058824%);fill-opacity:1;" d="M 15.964844 26.039062 C 16.648438 26.039062 17.257812 25.683594 17.601562 25.085938 L 21.152344 18.757812 C 20.851562 18.617188 20.550781 18.496094 20.253906 18.386719 L 16.757812 24.609375 C 16.59375 24.898438 16.296875 25.070312 15.964844 25.070312 C 15.628906 25.070312 15.332031 24.898438 15.167969 24.609375 L 11.675781 18.453125 C 11.351562 18.578125 11.050781 18.707031 10.78125 18.832031 L 14.328125 25.089844 C 14.667969 25.683594 15.277344 26.039062 15.964844 26.039062 Z M 15.964844 26.039062 "/>
<path style=" stroke:none;fill-rule:nonzero;fill:rgb(99.215686%,85.882353%,20%);fill-opacity:1;" d="M 17.800781 25.691406 L 14.199219 25.691406 L 14.199219 28.203125 L 15.132812 28.203125 L 15.132812 30.003906 L 16.867188 30.003906 L 16.867188 28.203125 L 17.800781 28.203125 Z M 17.800781 25.691406 "/>
</g>
</svg>
