<svg height="484pt" viewBox="0 -6 484.75187 484" width="484pt" xmlns="http://www.w3.org/2000/svg"><path d="m284.839844 236.566406c53.539062-35.273437 124.859375-25.859375 167.414062 22.097656 42.550782 47.957032 43.414063 119.890626 2.019532 168.851563-41.394532 48.960937-112.46875 60.078125-166.835938 26.09375-54.367188-33.980469-75.515625-102.742187-49.636719-161.402344 9.988281-22.695312 26.324219-42.015625 47.039063-55.640625zm0 0" fill="#00efd1"/><path d="m435.03125 388.804688c3.601562 3.609374 3.632812 9.445312.070312 13.089843l-6.761718 6.910157c-1.734375 1.78125-4.113282 2.789062-6.601563 2.804687-2.484375.011719-4.875-.972656-6.628906-2.734375l-1.980469-1.980469-29.917968-29.910156c-.160157-.160156-.320313-.328125-.472657-.507813-3.15625-3.660156-2.988281-9.125.390625-12.582031l6.761719-6.910156c1.738281-1.777344 4.117187-2.789063 6.601563-2.800781 2.488281-.015625 4.878906.964844 6.636718 2.722656zm0 0" fill="#f4b844"/><g fill="#fedb41"><path d="m413.921875 184.714844v44.191406c-41.308594-20.6875-90.511719-17.765625-129.082031 7.660156v-16.601562c.050781-20.503906-9.367188-39.886719-25.519532-52.519532l.269532-.347656c8.101562-28.113281 33.820312-49.0625 64.78125-49.0625h23.078125c36.769531.058594 66.53125 29.910156 66.472656 66.679688zm0 0"/><path d="m413.128906 406.894531-.007812.011719-15.210938 15.199219c-11.992187 12-31.441406 12-43.429687 0l-76.011719-76.007813c-11.988281-11.996094-11.988281-31.4375 0-43.433594l15.160156-15.167968 30.070313 30.070312c.109375.109375.230469.21875.351562.328125l-8.660156 8.660157c-3.425781 3.425781-3.617187 8.914062-.441406 12.570312.140625.160156.289062.3125.441406.460938l45.597656 45.601562c3.597657 3.597656 9.433594 3.597656 13.03125 0l8.691407-8.679688.027343-.03125c.152344.179688.3125.347657.472657.507813zm0 0"/><path d="m380.578125 45.625v.332031c0 24.683594-19.914063 44.742188-44.597656 44.929688h-.652344c-24.976563.011719-45.238281-20.230469-45.25-45.210938v-.089843c.007813-24.964844 20.246094-45.203126 45.210937-45.210938h.0625c24.96875.003906 45.214844 20.238281 45.226563 45.210938zm0 0"/></g><path d="m324.050781 317.894531c-.121093-.109375-.242187-.21875-.351562-.328125l-30.070313-30.070312-1.828125-1.832032c-1.746093-1.742187-2.730469-4.109374-2.730469-6.578124s.984376-4.835938 2.730469-6.578126l6.878907-6.882812c1.746093-1.746094 4.113281-2.726562 6.582031-2.726562 2.464843 0 4.832031.980468 6.578125 2.726562l31.898437 31.902344c1.75 1.742187 2.730469 4.109375 2.730469 6.578125s-.980469 4.835937-2.730469 6.582031l-6.878906 6.878906c-3.496094 3.511719-9.136719 3.65625-12.808594.328125zm0 0" fill="#f4b844"/><path d="m284.839844 219.964844v16.601562c-20.671875 13.671875-36.996094 32.980469-47.039063 55.640625l-.300781-.132812h-108.898438v-72.328125c.054688-36.773438 29.914063-66.535156 66.6875-66.46875h23.082032c36.769531.0625 66.527344 29.917968 66.46875 66.6875zm0 0" fill="#00acea"/><path d="m251.96875 80.40625v.019531c0 24.972657-20.238281 45.21875-45.207031 45.230469h-.042969c-24.980469.011719-45.238281-20.230469-45.25-45.210938v-.058593c.003906-24.972657 20.238281-45.21875 45.210938-45.230469h.058593c24.972657 0 45.21875 20.238281 45.230469 45.210938zm0 0" fill="#00acea"/><path d="m153.851562 167.617188.019532.019531c-15.945313 12.59375-25.253906 31.789062-25.269532 52.109375v37.078125h-128.601562v-72.328125c.0585938-36.765625 29.914062-66.523438 66.679688-66.460938h22.871093c29.859375.050782 56.089844 20.871094 64.300781 49.582032zm0 0" fill="#fedb41"/><path d="m123.359375 45.585938v.039062c-.171875 12.046875-5.015625 23.554688-13.507813 32.101562-8.40625 8.441407-19.832031 13.179688-31.742187 13.160157-24.980469.011719-45.238281-20.230469-45.25-45.210938v-.070312c0-24.972657 20.238281-45.21875 45.210937-45.230469h.058594c24.972656.003906 45.21875 20.238281 45.230469 45.210938zm0 0" fill="#fedb41"/></svg>