<?xml version="1.0" encoding="UTF-8"?>
<svg xmlns="http://www.w3.org/2000/svg" xmlns:xlink="http://www.w3.org/1999/xlink" width="32pt" height="32pt" viewBox="0 0 32 32" version="1.1">
<g id="surface1">
<path style=" stroke:none;fill-rule:nonzero;fill:rgb(98.431373%,78.823529%,69.803922%);fill-opacity:1;" d="M 19.402344 23.71875 C 19.402344 23.71875 20.242188 25.523438 23.28125 25.878906 C 23.28125 25.878906 21.65625 26.125 21.339844 26.304688 C 21.140625 26.417969 20.578125 26.132812 20.195312 25.914062 C 19.683594 25.613281 19.023438 25.851562 18.824219 26.410156 C 18.820312 26.421875 18.816406 26.429688 18.8125 26.4375 C 18.5 27.355469 16.492188 26.796875 16.492188 26.796875 C 16.492188 26.796875 15.910156 26.886719 16.492188 27.488281 C 17.070312 28.089844 18.476562 28.046875 18.476562 28.046875 C 18.476562 28.046875 20.109375 27.53125 21.605469 27.84375 C 23.101562 28.15625 25.089844 27.773438 26.25 27.6875 C 27.167969 27.621094 29.800781 27.398438 29.175781 25.457031 C 29.175781 25.457031 28.707031 24.226562 26.136719 23.535156 C 23.570312 22.84375 22.96875 22.597656 22.96875 22.597656 Z M 19.402344 23.71875 "/>
<path style=" stroke:none;fill-rule:nonzero;fill:rgb(98.431373%,78.823529%,69.803922%);fill-opacity:1;" d="M 19.160156 19.335938 L 19.933594 19.335938 L 20.988281 20 L 21.761719 21.054688 L 20.636719 22.597656 L 19.40625 23.199219 L 18.84375 22.957031 L 15.398438 21.019531 C 15.398438 21.019531 13.007812 19.402344 12.726562 19.121094 C 12.445312 18.839844 11.355469 17.890625 11.355469 17.890625 C 11.355469 17.890625 7.980469 14.371094 6.503906 13.597656 C 5.023438 12.824219 2.84375 10.679688 2.84375 10.679688 C 2.84375 10.679688 2.421875 9.976562 3.195312 9.871094 C 3.195312 9.871094 3.863281 10.046875 4.074219 10.398438 C 4.285156 10.75 6.292969 11.207031 6.292969 11.207031 C 6.292969 11.207031 7.066406 11.136719 7.207031 12.085938 C 7.207031 12.085938 7.558594 12.753906 9.210938 13.28125 C 10.863281 13.808594 12.972656 16.765625 12.972656 16.765625 L 15.890625 18.558594 C 15.890625 18.558594 17.65625 18.875 19.160156 19.335938 Z M 19.160156 19.335938 "/>
<path style=" stroke:none;fill-rule:nonzero;fill:rgb(98.431373%,78.823529%,69.803922%);fill-opacity:1;" d="M 18.890625 13.234375 C 18.988281 13.242188 18.152344 12.925781 17.480469 12.765625 C 17.28125 12.71875 16.890625 13.460938 16.890625 13.460938 C 16.890625 13.460938 16.644531 13.664062 16.460938 13.886719 C 16.460938 13.886719 16.074219 13.910156 16.074219 14.253906 C 16.074219 14.601562 16.226562 14.832031 15.789062 15.523438 C 15.191406 16.472656 16.273438 17.542969 16.273438 17.542969 L 18.132812 16.96875 L 20.351562 16.4375 L 20.441406 14.5625 Z M 18.890625 13.234375 "/>
<path style=" stroke:none;fill-rule:nonzero;fill:rgb(16.078431%,23.137255%,26.666667%);fill-opacity:1;" d="M 15.664062 16.535156 C 15.664062 16.535156 16.367188 15.753906 16.996094 15.554688 C 17.148438 15.507812 17.289062 15.421875 17.390625 15.300781 C 17.453125 15.222656 17.507812 15.125 17.523438 15.011719 L 17.644531 14.910156 C 17.644531 14.910156 17.644531 15.847656 18.050781 15.847656 C 18.460938 15.847656 18.582031 15.523438 18.582031 15.523438 C 18.582031 15.523438 18.707031 14.96875 18.582031 14.5 C 18.460938 14.03125 18.890625 14.03125 18.890625 14.03125 L 20.726562 15.136719 L 20.351562 16.828125 C 20.351562 16.828125 19.839844 18.355469 18.675781 18.484375 C 17.675781 18.589844 16.808594 18.050781 16.808594 18.050781 C 16.808594 18.050781 15.960938 17.703125 15.664062 16.535156 Z M 15.664062 16.535156 "/>
<path style=" stroke:none;fill-rule:nonzero;fill:rgb(98.431373%,78.823529%,69.803922%);fill-opacity:1;" d="M 14.757812 7.980469 L 14.242188 6.878906 C 14.242188 6.878906 13.539062 6.878906 13.429688 6.621094 C 13.429688 6.621094 13.148438 6.542969 14.09375 6.558594 C 14.09375 6.558594 14.316406 6.113281 13.917969 5.578125 C 13.523438 5.042969 13.84375 5.121094 13.84375 5.121094 C 13.84375 5.121094 14.164062 5.210938 13.933594 4.828125 C 13.707031 4.445312 13.246094 4.15625 13.507812 3.972656 C 13.507812 3.972656 13.660156 3.957031 13.734375 4.140625 C 13.734375 4.140625 13.734375 3.804688 13.996094 4.03125 C 14.257812 4.261719 14.757812 4.921875 14.757812 4.921875 C 14.757812 4.921875 15.097656 5.378906 15.082031 5.148438 C 15.066406 4.921875 15.128906 4.507812 15.375 4.628906 C 15.617188 4.753906 15.664062 5.59375 15.664062 5.59375 C 15.664062 5.59375 15.847656 6.40625 15.664062 6.710938 C 15.480469 7.019531 15.835938 7.300781 15.835938 7.300781 L 15.835938 8.257812 L 15.066406 8.257812 Z M 14.757812 7.980469 "/>
<path style=" stroke:none;fill-rule:nonzero;fill:rgb(86.666667%,34.509804%,30.196078%);fill-opacity:1;" d="M 18.84375 22.957031 C 18.84375 22.957031 20.3125 23.125 20.609375 20.933594 C 20.609375 20.933594 20.816406 19.410156 19.160156 19.335938 C 19.160156 19.335938 19.886719 19.019531 20.945312 19.335938 C 20.945312 19.335938 22.097656 19.484375 21.800781 18.367188 C 21.503906 17.253906 20.347656 17.050781 20.347656 17.050781 C 20.347656 17.050781 19.011719 16.621094 19.234375 14.894531 C 19.234375 14.894531 18.640625 14.167969 18.121094 12.8125 C 17.601562 11.457031 16.632812 10.621094 16.632812 10.621094 L 14.757812 7.980469 C 14.757812 7.980469 15.628906 8.445312 15.742188 7.164062 C 15.742188 7.164062 16.613281 8.519531 17.210938 8.871094 C 17.804688 9.226562 19.550781 11.773438 19.550781 11.773438 C 19.550781 11.773438 20.277344 13.238281 21.371094 13.40625 C 22.46875 13.574219 23.101562 13.851562 23.101562 13.851562 C 23.101562 13.851562 24.699219 14.375 25.480469 16.324219 C 25.480469 16.324219 27.355469 19.445312 23.582031 22.550781 C 23.582031 22.550781 20.816406 24.445312 19.402344 23.71875 C 19.402344 23.71875 18.976562 23.535156 18.84375 22.957031 Z M 18.84375 22.957031 "/>
</g>
</svg>
