<?xml version='1.0' encoding='UTF-8'?>
<svg x="0px" y="0px" viewBox="0 0 32 32" version="1.1" xmlns="http://www.w3.org/2000/svg" xmlns:xlink="http://www.w3.org/1999/xlink" xml:space="preserve" id="Layer_1">
  <g id="AddGroupFooter_1_">
    <rect x="4" y="18" width="14" height="6" rx="0" ry="0" fill="#1177D7" class="Blue" />
    <g opacity="0.75" class="st0">
      <path d="M18,8H4V6h14V8z M18,10H4v2h14V10z M18,14H4v2h14V14z" fill="#727272" opacity="0.75" class="Black" />
    </g>
    <path d="M22,26h-2h-2H2V4h18v14h2v-4V3c0-0.5-0.5-1-1-1H1C0.5,2,0,2.5,0,3v24c0,0.5,0.5,1,1,1h20c0.5,0,1-0.5,1-1V26   z" fill="#727272" class="Black" />
    <polygon points="32,20 28,20 28,16 24,16 24,20 20,20 20,24 24,24 24,28 28,28 28,24 32,24  " fill="#039C23" class="Green" />
  </g>
</svg>