<?xml version='1.0' encoding='UTF-8'?>
<svg x="0px" y="0px" viewBox="0 0 32 32" version="1.1" xmlns="http://www.w3.org/2000/svg" xmlns:xlink="http://www.w3.org/1999/xlink" xml:space="preserve" id="Layer_1">
  <g id="AddGroupHeader_1_">
    <rect x="4" y="8" width="14" height="6" rx="0" ry="0" fill="#1177D7" class="Blue" />
    <g opacity="0.75" class="st0">
      <path d="M18,18H4v-2h14V18z M18,20H4v2h14V20z M18,24H4v2h14V24z" fill="#727272" opacity="0.75" class="Black" />
    </g>
    <path d="M20,14v14H2V6h16h2h2V5c0-0.5-0.5-1-1-1H1C0.5,4,0,4.5,0,5v24c0,0.5,0.5,1,1,1h20c0.5,0,1-0.5,1-1V18v-4H20z   " fill="#727272" class="Black" />
    <polygon points="32,8 28,8 28,4 24,4 24,8 20,8 20,12 24,12 24,16 28,16 28,12 32,12  " fill="#039C23" class="Green" />
  </g>
</svg>