<?xml version="1.0" encoding="UTF-8"?>
<svg xmlns="http://www.w3.org/2000/svg" xmlns:xlink="http://www.w3.org/1999/xlink" width="32pt" height="32pt" viewBox="0 0 32 32" version="1.1">
<g id="surface1">
<path style=" stroke:none;fill-rule:nonzero;fill:rgb(61.176471%,86.666667%,1.960784%);fill-opacity:1;" d="M 32 16 C 32 7.207031 24.792969 0 16 0 L 16 3.75 C 22.710938 3.75 28.25 9.289062 28.25 16 C 28.25 19.40625 26.917969 22.171875 24.699219 24.574219 L 23.386719 23.261719 L 22.804688 26.167969 L 22.054688 29.882812 L 24.851562 29.320312 L 28.675781 28.550781 L 27.382812 27.257812 C 27.605469 26.914062 32 22.847656 32 16 Z M 32 16 "/>
<path style=" stroke:none;fill-rule:nonzero;fill:rgb(76.470588%,91.764706%,12.941176%);fill-opacity:1;" d="M 3.75 16 C 3.75 12.59375 5.082031 9.890625 7.300781 7.488281 L 8.613281 8.800781 C 8.648438 8.609375 10.023438 1.785156 9.945312 2.179688 C 9.753906 2.21875 2.929688 3.59375 3.324219 3.511719 L 4.617188 4.804688 C 4.257812 5.375 0 8.917969 0 16 C 0 24.792969 7.207031 32 16 32 L 16 28.25 C 9.289062 28.25 3.75 22.710938 3.75 16 Z M 3.75 16 "/>
<path style=" stroke:none;fill-rule:nonzero;fill:rgb(99.215686%,74.901961%,0%);fill-opacity:1;" d="M 18.8125 17.875 C 18.8125 19.09375 18.023438 20.125 16.9375 20.519531 L 16.9375 22.5625 L 15.0625 22.5625 L 15.0625 20.519531 C 13.976562 20.125 13.1875 19.09375 13.1875 17.875 L 15.0625 17.875 C 15.0625 18.398438 15.476562 18.8125 16 18.8125 C 16.523438 18.8125 16.9375 18.398438 16.9375 17.875 C 16.9375 17.351562 16.523438 16.9375 16 16.9375 C 14.445312 16.9375 13.1875 15.679688 13.1875 14.125 C 13.1875 12.90625 13.976562 11.875 15.0625 11.480469 L 15.0625 9.4375 L 16.9375 9.4375 L 16.9375 11.480469 C 18.023438 11.875 18.8125 12.90625 18.8125 14.125 L 16.9375 14.125 C 16.9375 13.601562 16.523438 13.1875 16 13.1875 C 15.476562 13.1875 15.0625 13.601562 15.0625 14.125 C 15.0625 14.648438 15.476562 15.0625 16 15.0625 C 17.554688 15.0625 18.8125 16.320312 18.8125 17.875 Z M 18.8125 17.875 "/>
<path style=" stroke:none;fill-rule:nonzero;fill:rgb(100%,56.862745%,0%);fill-opacity:1;" d="M 18.8125 17.875 C 18.8125 19.09375 18.023438 20.125 16.9375 20.519531 L 16.9375 22.5625 L 16 22.5625 L 16 18.8125 C 16.523438 18.8125 16.9375 18.398438 16.9375 17.875 C 16.9375 17.351562 16.523438 16.9375 16 16.9375 L 16 15.0625 C 17.554688 15.0625 18.8125 16.320312 18.8125 17.875 Z M 18.8125 17.875 "/>
<path style=" stroke:none;fill-rule:nonzero;fill:rgb(100%,56.862745%,0%);fill-opacity:1;" d="M 16 13.1875 L 16 9.4375 L 16.9375 9.4375 L 16.9375 11.480469 C 18.023438 11.875 18.8125 12.90625 18.8125 14.125 L 16.9375 14.125 C 16.9375 13.601562 16.523438 13.1875 16 13.1875 Z M 16 13.1875 "/>
</g>
</svg>
