<?xml version="1.0" encoding="UTF-8"?>
<svg xmlns="http://www.w3.org/2000/svg" xmlns:xlink="http://www.w3.org/1999/xlink" width="32pt" height="32pt" viewBox="0 0 32 32" version="1.1">
<g id="surface1">
<path style=" stroke:none;fill-rule:nonzero;fill:rgb(90.196078%,90.196078%,90.196078%);fill-opacity:1;" d="M 21.742188 1.144531 L 21.742188 13.109375 C 21.742188 13.636719 21.378906 14.082031 20.890625 14.214844 C 20.796875 14.238281 20.699219 14.25 20.597656 14.25 L 1.316406 14.25 C 0.683594 14.25 0.171875 13.738281 0.171875 13.109375 L 0.171875 1.144531 C 0.171875 0.511719 0.683594 0 1.316406 0 L 20.597656 0 C 20.699219 0 20.796875 0.0117188 20.890625 0.0390625 C 21.378906 0.167969 21.742188 0.613281 21.742188 1.144531 Z M 21.742188 1.144531 "/>
<path style=" stroke:none;fill-rule:nonzero;fill:rgb(70.196078%,70.196078%,70.196078%);fill-opacity:1;" d="M 21.738281 1.144531 L 21.738281 2.28125 L 0.171875 2.28125 L 0.171875 1.144531 C 0.171875 0.511719 0.683594 0 1.316406 0 L 20.597656 0 C 21.230469 0 21.738281 0.511719 21.738281 1.144531 Z M 21.738281 1.144531 "/>
<path style=" stroke:none;fill-rule:nonzero;fill:rgb(98.823529%,47.843137%,31.764706%);fill-opacity:1;" d="M 2.453125 1.140625 C 2.453125 1.535156 2.132812 1.851562 1.742188 1.851562 C 1.347656 1.851562 1.027344 1.535156 1.027344 1.140625 C 1.027344 0.746094 1.347656 0.425781 1.742188 0.425781 C 2.132812 0.425781 2.453125 0.746094 2.453125 1.140625 Z M 2.453125 1.140625 "/>
<path style=" stroke:none;fill-rule:nonzero;fill:rgb(97.647059%,87.058824%,34.509804%);fill-opacity:1;" d="M 4.351562 1.140625 C 4.351562 1.535156 4.035156 1.851562 3.640625 1.851562 C 3.246094 1.851562 2.929688 1.535156 2.929688 1.140625 C 2.929688 0.746094 3.246094 0.425781 3.640625 0.425781 C 4.035156 0.425781 4.351562 0.746094 4.351562 1.140625 Z M 4.351562 1.140625 "/>
<path style=" stroke:none;fill-rule:nonzero;fill:rgb(50.196078%,50.196078%,50.196078%);fill-opacity:1;" d="M 2.300781 4.355469 L 18.859375 4.355469 L 18.859375 5.128906 L 2.300781 5.128906 Z M 2.300781 4.355469 "/>
<path style=" stroke:none;fill-rule:nonzero;fill:rgb(50.196078%,50.196078%,50.196078%);fill-opacity:1;" d="M 2.300781 6.050781 L 18.859375 6.050781 L 18.859375 6.828125 L 2.300781 6.828125 Z M 2.300781 6.050781 "/>
<path style=" stroke:none;fill-rule:nonzero;fill:rgb(50.196078%,50.196078%,50.196078%);fill-opacity:1;" d="M 2.300781 7.75 L 18.859375 7.75 L 18.859375 8.523438 L 2.300781 8.523438 Z M 2.300781 7.75 "/>
<path style=" stroke:none;fill-rule:nonzero;fill:rgb(50.196078%,50.196078%,50.196078%);fill-opacity:1;" d="M 2.300781 9.449219 L 18.859375 9.449219 L 18.859375 10.222656 L 2.300781 10.222656 Z M 2.300781 9.449219 "/>
<path style=" stroke:none;fill-rule:nonzero;fill:rgb(50.196078%,50.196078%,50.196078%);fill-opacity:1;" d="M 2.300781 11.144531 L 18.859375 11.144531 L 18.859375 11.917969 L 2.300781 11.917969 Z M 2.300781 11.144531 "/>
<path style=" stroke:none;fill-rule:nonzero;fill:rgb(98.823529%,81.960784%,54.509804%);fill-opacity:1;" d="M 21.667969 15.65625 L 18.785156 18.316406 C 17.488281 19.511719 15.484375 19.511719 14.1875 18.316406 L 11.304688 15.65625 C 10.523438 14.9375 10.117188 13.902344 10.195312 12.84375 L 10.363281 9.394531 C 10.378906 9.160156 10.410156 8.933594 10.453125 8.710938 C 10.652344 7.648438 11.125 6.6875 11.789062 5.898438 C 12.085938 5.546875 12.421875 5.230469 12.789062 4.953125 C 13.820312 4.171875 15.101562 3.714844 16.488281 3.714844 C 17.871094 3.714844 19.152344 4.171875 20.183594 4.953125 C 20.351562 5.078125 20.511719 5.210938 20.664062 5.351562 C 20.847656 5.523438 21.019531 5.703125 21.183594 5.898438 C 21.847656 6.6875 22.320312 7.648438 22.519531 8.710938 C 22.5625 8.933594 22.59375 9.160156 22.609375 9.394531 L 22.777344 12.84375 C 22.855469 13.902344 22.449219 14.9375 21.667969 15.65625 Z M 21.667969 15.65625 "/>
<path style=" stroke:none;fill-rule:nonzero;fill:rgb(100%,100%,100%);fill-opacity:1;" d="M 18.589844 14.773438 C 18.589844 14.992188 18.554688 15.203125 18.492188 15.402344 C 18.226562 16.253906 17.429688 16.875 16.488281 16.875 C 15.542969 16.875 14.746094 16.253906 14.480469 15.402344 C 14.417969 15.203125 14.382812 14.992188 14.382812 14.773438 Z M 18.589844 14.773438 "/>
<path style=" stroke:none;fill-rule:nonzero;fill:rgb(97.647059%,87.058824%,34.509804%);fill-opacity:1;" d="M 24.339844 8.800781 L 23.425781 8.800781 C 23.425781 4.976562 20.3125 1.863281 16.484375 1.863281 C 12.660156 1.863281 9.546875 4.976562 9.546875 8.800781 L 8.628906 8.800781 C 8.628906 4.46875 12.15625 0.945312 16.484375 0.945312 C 20.816406 0.945312 24.339844 4.46875 24.339844 8.800781 Z M 24.339844 8.800781 "/>
<path style=" stroke:none;fill-rule:nonzero;fill:rgb(50.196078%,50.196078%,50.196078%);fill-opacity:1;" d="M 22.519531 8.710938 C 22.320312 7.648438 21.847656 6.6875 21.183594 5.898438 C 21.019531 5.703125 20.847656 5.523438 20.664062 5.351562 C 20.589844 5.28125 20.511719 5.21875 20.4375 5.152344 C 20.421875 5.140625 20.40625 5.128906 20.390625 5.113281 C 20.328125 5.0625 20.261719 5.011719 20.199219 4.960938 C 20.195312 4.960938 20.191406 4.957031 20.183594 4.953125 C 19.152344 4.175781 17.871094 3.714844 16.488281 3.714844 C 15.101562 3.714844 13.820312 4.171875 12.789062 4.953125 C 12.785156 4.953125 12.785156 4.953125 12.78125 4.957031 C 12.699219 5.019531 12.613281 5.085938 12.53125 5.15625 C 12.523438 5.164062 12.515625 5.167969 12.507812 5.175781 C 12.429688 5.242188 12.355469 5.3125 12.28125 5.382812 C 12.269531 5.390625 12.261719 5.398438 12.253906 5.40625 C 12.179688 5.476562 12.105469 5.550781 12.035156 5.625 C 12.027344 5.632812 12.019531 5.640625 12.015625 5.648438 C 11.9375 5.726562 11.863281 5.8125 11.789062 5.898438 C 11.125 6.6875 10.652344 7.648438 10.453125 8.710938 C 11.351562 8.464844 12.152344 7.980469 12.785156 7.335938 C 13.726562 8.296875 15.035156 8.890625 16.488281 8.890625 C 17.9375 8.890625 19.246094 8.296875 20.183594 7.335938 C 20.820312 7.980469 21.621094 8.464844 22.519531 8.710938 Z M 22.519531 8.710938 "/>
<path style=" stroke:none;fill-rule:nonzero;fill:rgb(50.196078%,50.196078%,50.196078%);fill-opacity:1;" d="M 14.441406 11.550781 C 14.441406 11.941406 14.128906 12.257812 13.738281 12.257812 C 13.347656 12.257812 13.035156 11.941406 13.035156 11.550781 C 13.035156 11.164062 13.347656 10.847656 13.738281 10.847656 C 14.128906 10.847656 14.441406 11.164062 14.441406 11.550781 Z M 14.441406 11.550781 "/>
<path style=" stroke:none;fill-rule:nonzero;fill:rgb(50.196078%,50.196078%,50.196078%);fill-opacity:1;" d="M 19.9375 11.550781 C 19.9375 11.941406 19.621094 12.257812 19.234375 12.257812 C 18.84375 12.257812 18.53125 11.941406 18.53125 11.550781 C 18.53125 11.164062 18.84375 10.847656 19.234375 10.847656 C 19.621094 10.847656 19.9375 11.164062 19.9375 11.550781 Z M 19.9375 11.550781 "/>
<path style=" stroke:none;fill-rule:nonzero;fill:rgb(90.196078%,90.196078%,90.196078%);fill-opacity:1;" d="M 12.6875 17.679688 L 16.28125 21.273438 L 14.589844 24.023438 L 11.773438 18.386719 Z M 12.6875 17.679688 "/>
<path style=" stroke:none;fill-rule:nonzero;fill:rgb(90.196078%,90.196078%,90.196078%);fill-opacity:1;" d="M 20.285156 17.679688 L 16.691406 21.273438 L 18.382812 24.023438 L 21.199219 18.386719 Z M 20.285156 17.679688 "/>
<path style=" stroke:none;fill-rule:nonzero;fill:rgb(16.862745%,87.843137%,77.647059%);fill-opacity:1;" d="M 17.484375 23.597656 L 16.484375 21.910156 L 15.488281 23.597656 L 16.484375 24.59375 Z M 17.484375 23.597656 "/>
<path style=" stroke:none;fill-rule:nonzero;fill:rgb(16.862745%,87.843137%,77.647059%);fill-opacity:1;" d="M 19.226562 29.261719 L 16.484375 24.609375 L 13.746094 29.261719 L 16.484375 32 Z M 19.226562 29.261719 "/>
<path style=" stroke:none;fill-rule:nonzero;fill:rgb(98.823529%,47.843137%,31.764706%);fill-opacity:1;" d="M 13.03125 15.847656 C 13.03125 15.976562 12.980469 16.089844 12.898438 16.171875 C 12.8125 16.253906 12.699219 16.308594 12.574219 16.308594 L 10.410156 16.308594 C 9.390625 16.308594 8.570312 15.484375 8.570312 14.46875 L 8.570312 13.242188 L 9.484375 13.242188 L 9.484375 14.46875 C 9.484375 14.976562 9.898438 15.390625 10.410156 15.390625 L 12.574219 15.390625 C 12.828125 15.390625 13.03125 15.597656 13.03125 15.847656 Z M 13.03125 15.847656 "/>
<path style=" stroke:none;fill-rule:nonzero;fill:rgb(16.078431%,67.058824%,88.627451%);fill-opacity:1;" d="M 9.683594 8.023438 C 8.09375 8.023438 6.808594 9.308594 6.808594 10.898438 C 6.808594 12.488281 8.09375 13.777344 9.683594 13.777344 "/>
<path style=" stroke:none;fill-rule:nonzero;fill:rgb(16.078431%,67.058824%,88.627451%);fill-opacity:1;" d="M 23.289062 8.023438 C 24.878906 8.023438 26.164062 9.308594 26.164062 10.898438 C 26.164062 12.488281 24.878906 13.777344 23.289062 13.777344 "/>
<path style=" stroke:none;fill-rule:nonzero;fill:rgb(50.196078%,50.196078%,50.196078%);fill-opacity:1;" d="M 13.03125 15.847656 C 13.03125 15.976562 12.980469 16.089844 12.898438 16.171875 C 12.8125 16.253906 12.699219 16.308594 12.574219 16.308594 L 11.234375 16.308594 L 11.234375 15.390625 L 12.574219 15.390625 C 12.828125 15.390625 13.03125 15.597656 13.03125 15.847656 Z M 13.03125 15.847656 "/>
<path style=" stroke:none;fill-rule:nonzero;fill:rgb(50.196078%,50.196078%,50.196078%);fill-opacity:1;" d="M 30.988281 29.933594 L 22.519531 29.933594 C 22.054688 29.933594 21.679688 29.558594 21.679688 29.09375 L 21.679688 18.160156 C 21.679688 17.695312 22.054688 17.320312 22.519531 17.320312 L 30.988281 17.320312 C 31.453125 17.320312 31.828125 17.695312 31.828125 18.160156 L 31.828125 29.097656 C 31.828125 29.558594 31.453125 29.933594 30.988281 29.933594 Z M 30.988281 29.933594 "/>
<path style=" stroke:none;fill-rule:nonzero;fill:rgb(90.196078%,90.196078%,90.196078%);fill-opacity:1;" d="M 22.738281 18.378906 L 30.769531 18.378906 L 30.769531 28.875 L 22.738281 28.875 Z M 22.738281 18.378906 "/>
<path style=" stroke:none;fill-rule:nonzero;fill:rgb(16.078431%,67.058824%,88.627451%);fill-opacity:1;" d="M 27.699219 16.757812 L 25.808594 16.757812 C 25.511719 16.757812 25.273438 16.996094 25.273438 17.292969 L 25.273438 19.082031 L 28.234375 19.082031 L 28.234375 17.292969 C 28.234375 16.996094 27.996094 16.757812 27.699219 16.757812 Z M 27.699219 16.757812 "/>
<path style=" stroke:none;fill-rule:nonzero;fill:rgb(16.078431%,67.058824%,88.627451%);fill-opacity:1;" d="M 23.722656 20.140625 L 29.785156 20.140625 L 29.785156 20.914062 L 23.722656 20.914062 Z M 23.722656 20.140625 "/>
<path style=" stroke:none;fill-rule:nonzero;fill:rgb(16.078431%,67.058824%,88.627451%);fill-opacity:1;" d="M 23.722656 21.835938 L 29.785156 21.835938 L 29.785156 22.613281 L 23.722656 22.613281 Z M 23.722656 21.835938 "/>
<path style=" stroke:none;fill-rule:nonzero;fill:rgb(16.078431%,67.058824%,88.627451%);fill-opacity:1;" d="M 23.722656 23.535156 L 29.785156 23.535156 L 29.785156 24.308594 L 23.722656 24.308594 Z M 23.722656 23.535156 "/>
<path style=" stroke:none;fill-rule:nonzero;fill:rgb(16.078431%,67.058824%,88.627451%);fill-opacity:1;" d="M 23.722656 25.230469 L 29.785156 25.230469 L 29.785156 26.007812 L 23.722656 26.007812 Z M 23.722656 25.230469 "/>
<path style=" stroke:none;fill-rule:nonzero;fill:rgb(16.078431%,67.058824%,88.627451%);fill-opacity:1;" d="M 23.722656 26.929688 L 26.753906 26.929688 L 26.753906 27.703125 L 23.722656 27.703125 Z M 23.722656 26.929688 "/>
<path style=" stroke:none;fill-rule:nonzero;fill:rgb(98.823529%,47.843137%,31.764706%);fill-opacity:1;" d="M 4.105469 16.863281 C 1.96875 16.863281 0.230469 18.597656 0.230469 20.738281 C 0.230469 21.941406 0.78125 23.015625 1.636719 23.726562 L 0.855469 25.921875 L 2.875 24.414062 L 2.875 24.410156 C 3.261719 24.542969 3.675781 24.613281 4.105469 24.613281 C 6.246094 24.613281 7.980469 22.878906 7.980469 20.738281 C 7.980469 18.597656 6.246094 16.863281 4.105469 16.863281 Z M 4.105469 16.863281 "/>
<path style=" stroke:none;fill-rule:nonzero;fill:rgb(100%,100%,100%);fill-opacity:1;" d="M 3.519531 21.367188 C 3.519531 21.140625 3.554688 20.933594 3.632812 20.75 C 3.707031 20.566406 3.859375 20.40625 4.097656 20.269531 C 4.167969 20.226562 4.253906 20.179688 4.355469 20.125 C 4.460938 20.074219 4.5625 20.007812 4.660156 19.933594 C 4.757812 19.859375 4.839844 19.769531 4.910156 19.667969 C 4.976562 19.566406 5.011719 19.453125 5.011719 19.320312 C 5.011719 19.222656 4.992188 19.136719 4.953125 19.058594 C 4.917969 18.984375 4.867188 18.921875 4.808594 18.871094 C 4.746094 18.820312 4.675781 18.78125 4.59375 18.753906 C 4.511719 18.726562 4.425781 18.714844 4.34375 18.714844 C 4.238281 18.714844 4.144531 18.734375 4.0625 18.769531 C 3.976562 18.804688 3.898438 18.847656 3.832031 18.902344 C 3.765625 18.957031 3.703125 19.015625 3.648438 19.085938 C 3.59375 19.152344 3.550781 19.21875 3.511719 19.277344 L 2.898438 18.855469 C 2.960938 18.710938 3.042969 18.582031 3.140625 18.46875 C 3.242188 18.355469 3.359375 18.261719 3.488281 18.183594 C 3.617188 18.105469 3.753906 18.046875 3.90625 18.007812 C 4.054688 17.96875 4.210938 17.949219 4.371094 17.949219 C 4.550781 17.949219 4.726562 17.972656 4.898438 18.023438 C 5.070312 18.078125 5.226562 18.160156 5.367188 18.273438 C 5.503906 18.382812 5.617188 18.527344 5.703125 18.703125 C 5.792969 18.878906 5.835938 19.089844 5.835938 19.335938 C 5.835938 19.484375 5.816406 19.617188 5.78125 19.730469 C 5.746094 19.847656 5.695312 19.953125 5.628906 20.046875 C 5.566406 20.140625 5.488281 20.222656 5.398438 20.300781 C 5.308594 20.375 5.207031 20.445312 5.09375 20.515625 C 5 20.574219 4.90625 20.628906 4.8125 20.679688 C 4.71875 20.730469 4.632812 20.789062 4.558594 20.851562 C 4.480469 20.914062 4.417969 20.988281 4.367188 21.070312 C 4.316406 21.152344 4.292969 21.25 4.292969 21.367188 Z M 3.53125 23.007812 L 3.53125 22.039062 L 4.3125 22.039062 L 4.3125 23.007812 Z M 3.53125 23.007812 "/>
<path style=" stroke:none;fill-rule:nonzero;fill:rgb(16.078431%,67.058824%,88.627451%);fill-opacity:1;" d="M 13.128906 22.625 L 13.914062 20.429688 L 11.894531 21.9375 C 11.507812 21.808594 11.09375 21.738281 10.664062 21.738281 C 8.523438 21.738281 6.789062 23.472656 6.789062 25.609375 C 6.789062 27.75 8.523438 29.484375 10.664062 29.484375 C 12.800781 29.484375 14.535156 27.75 14.535156 25.609375 C 14.535156 24.410156 13.988281 23.335938 13.128906 22.625 Z M 13.128906 22.625 "/>
<path style=" stroke:none;fill-rule:nonzero;fill:rgb(100%,100%,100%);fill-opacity:1;" d="M 10.25 26.183594 L 10.25 23.421875 L 11.074219 23.421875 L 11.074219 26.183594 Z M 10.25 27.824219 L 10.25 26.898438 L 11.074219 26.898438 L 11.074219 27.824219 Z M 10.25 27.824219 "/>
</g>
</svg>
