<?xml version="1.0" encoding="UTF-8"?>
<svg xmlns="http://www.w3.org/2000/svg" xmlns:xlink="http://www.w3.org/1999/xlink" width="32pt" height="32pt" viewBox="0 0 32 32" version="1.1">
<g id="surface1">
<path style=" stroke:none;fill-rule:nonzero;fill:rgb(21.960784%,82.745098%,97.254902%);fill-opacity:1;" d="M 16 0 C 14.445312 0 13.125 1.257812 13.125 2.8125 C 13.125 4.367188 14.445312 5.625 16 5.625 C 17.554688 5.625 18.875 4.367188 18.875 2.8125 C 18.875 1.257812 17.554688 0 16 0 Z M 16 0 "/>
<path style=" stroke:none;fill-rule:nonzero;fill:rgb(14.509804%,85.098039%,97.254902%);fill-opacity:1;" d="M 19.8125 9.375 L 19.8125 18.8125 L 17.9375 18.8125 L 17.9375 25.375 L 14.0625 25.375 L 14.0625 18.8125 L 12.1875 18.8125 L 12.1875 9.375 C 12.1875 7.3125 13.9375 5.625 16 5.625 C 18.0625 5.625 19.8125 7.3125 19.8125 9.375 Z M 19.8125 9.375 "/>
<path style=" stroke:none;fill-rule:nonzero;fill:rgb(0%,75.294118%,94.509804%);fill-opacity:1;" d="M 16 5.625 L 16 0 C 17.554688 0 18.875 1.257812 18.875 2.8125 C 18.875 4.367188 17.554688 5.625 16 5.625 Z M 16 5.625 "/>
<path style=" stroke:none;fill-rule:nonzero;fill:rgb(0%,75.294118%,94.509804%);fill-opacity:1;" d="M 19.8125 9.375 L 19.8125 18.8125 L 17.9375 18.8125 L 17.9375 25.375 L 16 25.375 L 16 5.625 C 18.0625 5.625 19.8125 7.3125 19.8125 9.375 Z M 19.8125 9.375 "/>
<path style=" stroke:none;fill-rule:nonzero;fill:rgb(100%,56.862745%,0%);fill-opacity:1;" d="M 22.625 20.6875 L 22.625 32 L 32 32 L 32 20.6875 Z M 22.625 20.6875 "/>
<path style=" stroke:none;fill-rule:nonzero;fill:rgb(14.509804%,85.098039%,97.254902%);fill-opacity:1;" d="M 9.375 14.0625 L 6.5625 14.0625 L 6.5625 18.8125 L 2.8125 18.8125 L 2.8125 14.0625 L 0 14.0625 L 4.6875 7.5 Z M 9.375 14.0625 "/>
<path style=" stroke:none;fill-rule:nonzero;fill:rgb(14.509804%,85.098039%,97.254902%);fill-opacity:1;" d="M 32 14.0625 L 29.1875 14.0625 L 29.1875 18.8125 L 25.4375 18.8125 L 25.4375 14.0625 L 22.625 14.0625 L 27.3125 7.5 Z M 32 14.0625 "/>
<path style=" stroke:none;fill-rule:nonzero;fill:rgb(0%,75.294118%,94.509804%);fill-opacity:1;" d="M 29.1875 18.8125 L 27.3125 18.8125 L 27.3125 7.5 L 32 14.0625 L 29.1875 14.0625 Z M 29.1875 18.8125 "/>
<path style=" stroke:none;fill-rule:nonzero;fill:rgb(100%,39.215686%,10.196078%);fill-opacity:1;" d="M 27.3125 20.6875 L 32 20.6875 L 32 32 L 27.3125 32 Z M 27.3125 20.6875 "/>
<path style=" stroke:none;fill-rule:nonzero;fill:rgb(32.54902%,47.45098%,51.372549%);fill-opacity:1;" d="M 11.25 24.4375 L 11.25 32 L 20.75 32 L 20.75 24.4375 Z M 11.25 24.4375 "/>
<path style=" stroke:none;fill-rule:nonzero;fill:rgb(24.313725%,34.901961%,34.901961%);fill-opacity:1;" d="M 16 24.4375 L 20.75 24.4375 L 20.75 32 L 16 32 Z M 16 24.4375 "/>
<path style=" stroke:none;fill-rule:nonzero;fill:rgb(0%,75.294118%,94.509804%);fill-opacity:1;" d="M 6.5625 18.8125 L 4.6875 18.8125 L 4.6875 7.5 L 9.375 14.0625 L 6.5625 14.0625 Z M 6.5625 18.8125 "/>
<path style=" stroke:none;fill-rule:nonzero;fill:rgb(49.803922%,90.980392%,50.588235%);fill-opacity:1;" d="M 0 20.6875 L 0 32 L 9.375 32 L 9.375 20.6875 Z M 0 20.6875 "/>
<path style=" stroke:none;fill-rule:nonzero;fill:rgb(35.686275%,78.823529%,50.196078%);fill-opacity:1;" d="M 4.6875 20.6875 L 9.375 20.6875 L 9.375 32 L 4.6875 32 Z M 4.6875 20.6875 "/>
</g>
</svg>
