<?xml version="1.0" encoding="UTF-8"?>
<svg xmlns="http://www.w3.org/2000/svg" xmlns:xlink="http://www.w3.org/1999/xlink" width="32pt" height="31pt" viewBox="0 0 32 31" version="1.1">
<g id="surface1">
<path style=" stroke:none;fill-rule:nonzero;fill:rgb(43.137255%,69.411765%,88.235294%);fill-opacity:1;" d="M 32 15.5 C 32 24.058594 24.835938 31 16 31 C 7.164062 31 0 24.058594 0 15.5 C 0 6.941406 7.164062 0 16 0 C 24.835938 0 32 6.941406 32 15.5 Z M 32 15.5 "/>
<path style=" stroke:none;fill-rule:nonzero;fill:rgb(87.058824%,87.058824%,87.45098%);fill-opacity:1;" d="M 18.789062 10.277344 L 14.316406 5.921875 L 9.820312 10.277344 Z M 18.789062 10.277344 "/>
<path style=" stroke:none;fill-rule:nonzero;fill:rgb(94.509804%,95.294118%,96.862745%);fill-opacity:1;" d="M 27.503906 10.277344 L 21.519531 4.5 L 15.550781 10.277344 Z M 27.503906 10.277344 "/>
<path style=" stroke:none;fill-rule:nonzero;fill:rgb(98.823529%,98.823529%,99.215686%);fill-opacity:1;" d="M 24.882812 18.019531 L 23.433594 17.335938 L 26.289062 11.558594 L 7.351562 11.558594 L 7.351562 10.03125 L 28.824219 10.03125 Z M 24.882812 18.019531 "/>
<path style=" stroke:none;fill-rule:nonzero;fill:rgb(30.980392%,33.333333%,39.607843%);fill-opacity:1;" d="M 24.160156 24.375 C 24.160156 25.550781 23.175781 26.5 21.964844 26.5 C 20.753906 26.5 19.769531 25.550781 19.769531 24.375 C 19.769531 23.199219 20.753906 22.25 21.964844 22.25 C 23.175781 22.25 24.160156 23.199219 24.160156 24.375 Z M 24.160156 24.375 "/>
<path style=" stroke:none;fill-rule:nonzero;fill:rgb(94.509804%,95.294118%,96.862745%);fill-opacity:1;" d="M 23.050781 24.375 C 23.050781 24.957031 22.566406 25.425781 21.964844 25.425781 C 21.367188 25.425781 20.878906 24.957031 20.878906 24.375 C 20.878906 23.792969 21.367188 23.320312 21.964844 23.320312 C 22.566406 23.320312 23.050781 23.792969 23.050781 24.375 Z M 23.050781 24.375 "/>
<path style=" stroke:none;fill-rule:nonzero;fill:rgb(30.980392%,33.333333%,39.607843%);fill-opacity:1;" d="M 16.214844 24.375 C 16.214844 25.550781 15.230469 26.5 14.019531 26.5 C 12.808594 26.5 11.824219 25.550781 11.824219 24.375 C 11.824219 23.199219 12.808594 22.25 14.019531 22.25 C 15.230469 22.25 16.214844 23.199219 16.214844 24.375 Z M 16.214844 24.375 "/>
<path style=" stroke:none;fill-rule:nonzero;fill:rgb(94.509804%,95.294118%,96.862745%);fill-opacity:1;" d="M 15.105469 24.375 C 15.105469 24.957031 14.617188 25.425781 14.019531 25.425781 C 13.417969 25.425781 12.933594 24.957031 12.933594 24.375 C 12.933594 23.792969 13.417969 23.320312 14.019531 23.320312 C 14.617188 23.320312 15.105469 23.792969 15.105469 24.375 Z M 15.105469 24.375 "/>
<path style=" stroke:none;fill-rule:nonzero;fill:rgb(30.980392%,33.333333%,39.607843%);fill-opacity:1;" d="M 22.773438 13.871094 L 11.972656 13.871094 C 11.527344 13.871094 11.183594 13.519531 11.183594 13.105469 C 11.183594 12.671875 11.546875 12.34375 11.972656 12.34375 L 22.773438 12.34375 C 23.222656 12.34375 23.5625 12.691406 23.5625 13.105469 C 23.5625 13.539062 23.199219 13.871094 22.773438 13.871094 Z M 22.773438 13.871094 "/>
<path style=" stroke:none;fill-rule:nonzero;fill:rgb(30.980392%,33.333333%,39.607843%);fill-opacity:1;" d="M 21.964844 16.222656 L 12.804688 16.222656 C 12.355469 16.222656 12.015625 15.871094 12.015625 15.457031 C 12.015625 15.046875 12.378906 14.695312 12.804688 14.695312 L 21.964844 14.695312 C 22.414062 14.695312 22.753906 15.046875 22.753906 15.457031 C 22.753906 15.871094 22.390625 16.222656 21.964844 16.222656 Z M 21.964844 16.222656 "/>
<path style=" stroke:none;fill-rule:nonzero;fill:rgb(94.117647%,34.509804%,18.431373%);fill-opacity:1;" d="M 1.851562 5.179688 C 1.40625 5.179688 1.066406 5.53125 1.066406 5.945312 C 1.042969 6.378906 1.40625 6.726562 1.851562 6.726562 L 4.132812 6.726562 L 4.132812 5.179688 Z M 1.851562 5.179688 "/>
<path style=" stroke:none;fill-rule:nonzero;fill:rgb(98.823529%,98.823529%,99.215686%);fill-opacity:1;" d="M 24.457031 16.902344 L 11.207031 16.902344 L 5.730469 5.613281 C 5.601562 5.34375 5.328125 5.160156 5.007812 5.160156 L 4.132812 5.160156 L 4.132812 6.726562 L 4.496094 6.726562 L 9.972656 18.019531 C 10.097656 18.285156 10.375 18.472656 10.695312 18.472656 L 24.457031 18.472656 C 24.96875 18.472656 25.375 18.863281 25.375 19.359375 C 25.375 19.855469 24.96875 20.246094 24.457031 20.246094 L 10.800781 20.246094 C 10.355469 20.246094 10.011719 20.597656 10.011719 21.011719 C 10.011719 21.445312 10.375 21.773438 10.800781 21.773438 L 24.457031 21.773438 C 25.84375 21.773438 26.972656 20.679688 26.972656 19.339844 C 26.972656 17.996094 25.84375 16.902344 24.457031 16.902344 Z M 24.457031 16.902344 "/>
</g>
</svg>
