<?xml version="1.0" encoding="UTF-8"?>
<svg xmlns="http://www.w3.org/2000/svg" xmlns:xlink="http://www.w3.org/1999/xlink" width="40pt" height="40pt" viewBox="0 0 40 40" version="1.1">
<defs>
<linearGradient id="linear0" gradientUnits="userSpaceOnUse" x1="0" y1="-13990" x2="512" y2="-13990" gradientTransform="matrix(0.078125,0,0,-0.078125,0,-1072.96875)">
<stop offset="0" style="stop-color:rgb(0%,95.294118%,55.294118%);stop-opacity:1;"/>
<stop offset="1" style="stop-color:rgb(0%,61.960784%,100%);stop-opacity:1;"/>
</linearGradient>
</defs>
<g id="surface1">
<path style=" stroke:none;fill-rule:nonzero;fill:url(#linear0);" d="M 40 20 C 40 31.046875 31.046875 40 20 40 C 8.953125 40 0 31.046875 0 20 C 0 8.953125 8.953125 0 20 0 C 31.046875 0 40 8.953125 40 20 Z M 40 20 "/>
<path style=" stroke:none;fill-rule:nonzero;fill:rgb(100%,100%,100%);fill-opacity:1;" d="M 30.21875 6.523438 L 9.78125 6.523438 C 7.984375 6.523438 6.523438 7.984375 6.523438 9.78125 L 6.523438 14.082031 L 8.867188 14.082031 L 8.867188 9.78125 C 8.867188 9.277344 9.277344 8.867188 9.78125 8.867188 L 30.21875 8.867188 C 30.722656 8.867188 31.132812 9.277344 31.132812 9.78125 L 31.132812 30.21875 C 31.132812 30.722656 30.722656 31.132812 30.21875 31.132812 L 9.78125 31.132812 C 9.277344 31.132812 8.867188 30.722656 8.867188 30.21875 L 8.867188 25.917969 L 6.523438 25.917969 L 6.523438 30.21875 C 6.523438 32.015625 7.984375 33.476562 9.78125 33.476562 L 30.21875 33.476562 C 32.015625 33.476562 33.476562 32.015625 33.476562 30.21875 L 33.476562 9.78125 C 33.476562 7.984375 32.015625 6.523438 30.21875 6.523438 Z M 30.21875 6.523438 "/>
<path style=" stroke:none;fill-rule:nonzero;fill:rgb(100%,100%,100%);fill-opacity:1;" d="M 17.507812 25.003906 L 19.164062 26.664062 L 25.828125 20 L 19.164062 13.335938 L 17.507812 14.996094 L 21.34375 18.828125 L 6.523438 18.828125 L 6.523438 21.171875 L 21.34375 21.171875 Z M 17.507812 25.003906 "/>
</g>
</svg>
