<?xml version="1.0" encoding="UTF-8"?>
<svg xmlns="http://www.w3.org/2000/svg" xmlns:xlink="http://www.w3.org/1999/xlink" width="40pt" height="40pt" viewBox="0 0 40 40" version="1.1">
<defs>
<linearGradient id="linear0" gradientUnits="userSpaceOnUse" x1="-26.7934" y1="557.4982" x2="-26.7934" y2="616.3332" gradientTransform="matrix(0.66644,0,0,-0.66644,37.85622,411.732582)">
<stop offset="0" style="stop-color:rgb(0%,42.745098%,94.117647%);stop-opacity:1;"/>
<stop offset="1" style="stop-color:rgb(0%,90.588235%,94.117647%);stop-opacity:1;"/>
</linearGradient>
<linearGradient id="linear1" gradientUnits="userSpaceOnUse" x1="-26.7929" y1="557.4982" x2="-26.7929" y2="616.3332" gradientTransform="matrix(0.66644,0,0,-0.66644,37.85622,411.732582)">
<stop offset="0" style="stop-color:rgb(0%,42.745098%,94.117647%);stop-opacity:1;"/>
<stop offset="1" style="stop-color:rgb(0%,90.588235%,94.117647%);stop-opacity:1;"/>
</linearGradient>
</defs>
<g id="surface1">
<path style=" stroke:none;fill-rule:nonzero;fill:url(#linear0);" d="M 39.328125 12.007812 L 32.628906 12.007812 C 32.277344 5.035156 26.339844 -0.335938 19.363281 0.015625 C 12.878906 0.34375 7.695312 5.527344 7.371094 12.007812 L 0.671875 12.007812 C 0.304688 12.007812 0.0078125 12.308594 0.0078125 12.675781 L 0.0078125 39.332031 C 0.0078125 39.703125 0.304688 40 0.671875 40 L 39.328125 40 C 39.695312 40 39.992188 39.703125 39.992188 39.332031 L 39.992188 12.675781 C 39.992188 12.308594 39.695312 12.007812 39.328125 12.007812 Z M 20 1.347656 C 25.996094 1.355469 30.949219 6.023438 31.308594 12.007812 L 8.691406 12.007812 C 9.050781 6.023438 14.003906 1.355469 20 1.347656 Z M 38.660156 38.667969 L 1.339844 38.667969 L 1.339844 13.34375 L 38.660156 13.34375 Z M 38.660156 38.667969 "/>
<path style=" stroke:none;fill-rule:nonzero;fill:url(#linear1);" d="M 20 17.339844 C 17.421875 17.359375 15.351562 19.464844 15.371094 22.042969 C 15.390625 24.332031 17.066406 26.273438 19.332031 26.617188 L 19.332031 34.003906 C 19.332031 34.371094 19.632812 34.667969 20 34.667969 C 20.367188 34.667969 20.667969 34.371094 20.667969 34.003906 L 20.667969 26.617188 C 23.214844 26.230469 24.964844 23.851562 24.574219 21.304688 C 24.230469 19.039062 22.292969 17.359375 20 17.339844 Z M 20 25.339844 C 18.160156 25.339844 16.667969 23.847656 16.667969 22.007812 C 16.667969 20.164062 18.160156 18.675781 20 18.675781 C 21.839844 18.675781 23.332031 20.164062 23.332031 22.007812 C 23.328125 23.84375 21.839844 25.335938 20 25.339844 Z M 20 25.339844 "/>
</g>
</svg>
