<?xml version="1.0" encoding="UTF-8"?>
<svg xmlns="http://www.w3.org/2000/svg" xmlns:xlink="http://www.w3.org/1999/xlink" width="40pt" height="40pt" viewBox="0 0 40 40" version="1.1">
<defs>
<linearGradient id="linear0" gradientUnits="userSpaceOnUse" x1="256" y1="514" x2="256" y2="2" gradientTransform="matrix(0.078125,0,0,-0.078125,0,40.15625)">
<stop offset="0" style="stop-color:rgb(16.470588%,96.078431%,59.607843%);stop-opacity:1;"/>
<stop offset="1" style="stop-color:rgb(0%,61.960784%,99.215686%);stop-opacity:1;"/>
</linearGradient>
</defs>
<g id="surface1">
<path style=" stroke:none;fill-rule:nonzero;fill:url(#linear0);" d="M 40 4.6875 L 40 35.3125 C 40 37.898438 37.898438 40 35.3125 40 L 4.6875 40 C 2.101562 40 0 37.898438 0 35.3125 L 0 29.0625 L 3.125 29.0625 L 3.125 35.3125 C 3.125 36.175781 3.824219 36.875 4.6875 36.875 L 35.3125 36.875 C 36.175781 36.875 36.875 36.175781 36.875 35.3125 L 36.875 4.6875 C 36.875 3.824219 36.175781 3.125 35.3125 3.125 L 4.6875 3.125 C 3.824219 3.125 3.125 3.824219 3.125 4.6875 L 3.125 10.9375 L 0 10.9375 L 0 4.6875 C 0 2.101562 2.101562 0 4.6875 0 L 35.3125 0 C 37.898438 0 40 2.101562 40 4.6875 Z M 16.539062 27.5 L 18.75 29.710938 L 28.460938 20 L 18.75 10.289062 L 16.539062 12.5 L 22.476562 18.4375 L 0 18.4375 L 0 21.5625 L 22.476562 21.5625 Z M 16.539062 27.5 "/>
</g>
</svg>
