<?xml version="1.0" encoding="UTF-8"?>
<svg xmlns="http://www.w3.org/2000/svg" xmlns:xlink="http://www.w3.org/1999/xlink" width="32pt" height="32pt" viewBox="0 0 32 32" version="1.1">
<g id="surface1">
<path style=" stroke:none;fill-rule:nonzero;fill:rgb(21.960784%,16.862745%,45.098039%);fill-opacity:1;" d="M 32 16 C 32 24.835938 24.835938 32 16 32 C 7.164062 32 0 24.835938 0 16 C 0 7.164062 7.164062 0 16 0 C 24.835938 0 32 7.164062 32 16 Z M 32 16 "/>
<path style=" stroke:none;fill-rule:nonzero;fill:rgb(27.843137%,18.823529%,50.196078%);fill-opacity:1;" d="M 29.84375 16 C 29.84375 23.644531 23.644531 29.84375 16 29.84375 C 8.355469 29.84375 2.15625 23.644531 2.15625 16 C 2.15625 8.355469 8.355469 2.15625 16 2.15625 C 23.644531 2.15625 29.84375 8.355469 29.84375 16 Z M 29.84375 16 "/>
<path style=" stroke:none;fill-rule:nonzero;fill:rgb(21.960784%,16.862745%,45.098039%);fill-opacity:1;" d="M 24.242188 19.160156 L 24.242188 10.730469 C 24.242188 10.65625 24.226562 10.585938 24.199219 10.519531 C 24.132812 10.359375 23.988281 10.238281 23.8125 10.203125 C 23.777344 10.195312 23.742188 10.191406 23.707031 10.191406 L 8.292969 10.191406 C 8.257812 10.191406 8.222656 10.195312 8.1875 10.203125 C 8.117188 10.21875 8.050781 10.246094 7.996094 10.285156 C 7.964844 10.304688 7.941406 10.324219 7.914062 10.351562 C 7.867188 10.398438 7.828125 10.457031 7.800781 10.519531 C 7.773438 10.585938 7.757812 10.65625 7.757812 10.730469 L 7.757812 23.816406 C 7.757812 24.113281 8 24.351562 8.292969 24.351562 L 19.566406 24.351562 C 19.683594 24.699219 20.007812 24.949219 20.394531 24.949219 L 24.121094 24.949219 C 24.605469 24.949219 24.996094 24.558594 24.996094 24.078125 L 24.996094 20.023438 C 24.996094 19.582031 24.667969 19.214844 24.242188 19.160156 Z M 24.242188 19.160156 "/>
<path style=" stroke:none;fill-rule:nonzero;fill:rgb(81.960784%,82.745098%,83.137255%);fill-opacity:1;" d="M 23.707031 23.414062 L 8.292969 23.414062 C 8 23.414062 7.757812 23.175781 7.757812 22.878906 L 7.757812 10.460938 C 7.757812 10.164062 8 9.925781 8.292969 9.925781 L 23.707031 9.925781 C 24 9.925781 24.242188 10.164062 24.242188 10.460938 L 24.242188 22.878906 C 24.242188 23.175781 24 23.414062 23.707031 23.414062 Z M 23.707031 23.414062 "/>
<path style=" stroke:none;fill-rule:nonzero;fill:rgb(100%,100%,100%);fill-opacity:1;" d="M 23.707031 22.746094 L 8.292969 22.746094 C 8 22.746094 7.757812 22.503906 7.757812 22.207031 L 7.757812 9.792969 C 7.757812 9.496094 8 9.253906 8.292969 9.253906 L 23.707031 9.253906 C 24 9.253906 24.242188 9.496094 24.242188 9.792969 L 24.242188 22.207031 C 24.242188 22.503906 24 22.746094 23.707031 22.746094 Z M 23.707031 22.746094 "/>
<path style=" stroke:none;fill-rule:nonzero;fill:rgb(90.196078%,90.588235%,90.980392%);fill-opacity:1;" d="M 23.707031 9.253906 L 16 9.253906 L 16 22.746094 L 23.707031 22.746094 C 24 22.746094 24.242188 22.503906 24.242188 22.207031 L 24.242188 9.792969 C 24.242188 9.496094 24 9.253906 23.707031 9.253906 Z M 23.707031 9.253906 "/>
<path style=" stroke:none;fill-rule:nonzero;fill:rgb(93.72549%,35.294118%,61.568627%);fill-opacity:1;" d="M 11.878906 9.253906 L 8.292969 9.253906 C 8 9.253906 7.757812 9.496094 7.757812 9.792969 L 7.757812 12.148438 L 11.878906 12.148438 Z M 11.878906 9.253906 "/>
<path style=" stroke:none;fill-rule:nonzero;fill:rgb(0%,60.392157%,86.666667%);fill-opacity:1;" d="M 23.707031 9.253906 L 16 9.253906 L 16 12.148438 L 24.242188 12.148438 L 24.242188 9.792969 C 24.242188 9.496094 24 9.253906 23.707031 9.253906 Z M 23.707031 9.253906 "/>
<path style=" stroke:none;fill-rule:nonzero;fill:rgb(90.196078%,90.588235%,90.980392%);fill-opacity:1;" d="M 7.757812 22.207031 C 7.757812 22.503906 8 22.746094 8.292969 22.746094 L 11.878906 22.746094 L 11.878906 12.148438 L 7.757812 12.148438 Z M 7.757812 22.207031 "/>
<path style=" stroke:none;fill-rule:nonzero;fill:rgb(90.196078%,90.588235%,90.980392%);fill-opacity:1;" d="M 14.9375 14.726562 L 12.925781 14.726562 C 12.71875 14.726562 12.550781 14.558594 12.550781 14.351562 C 12.550781 14.140625 12.71875 13.972656 12.925781 13.972656 L 14.9375 13.972656 C 15.144531 13.972656 15.3125 14.140625 15.3125 14.351562 C 15.3125 14.558594 15.144531 14.726562 14.9375 14.726562 Z M 14.9375 14.726562 "/>
<path style=" stroke:none;fill-rule:nonzero;fill:rgb(100%,100%,100%);fill-opacity:1;" d="M 23.128906 14.726562 L 17.296875 14.726562 C 17.089844 14.726562 16.921875 14.558594 16.921875 14.351562 C 16.921875 14.140625 17.089844 13.972656 17.296875 13.972656 L 23.128906 13.972656 C 23.335938 13.972656 23.503906 14.140625 23.503906 14.351562 C 23.503906 14.558594 23.335938 14.726562 23.128906 14.726562 Z M 23.128906 14.726562 "/>
<path style=" stroke:none;fill-rule:nonzero;fill:rgb(100%,100%,100%);fill-opacity:1;" d="M 10.824219 14.726562 L 8.8125 14.726562 C 8.605469 14.726562 8.4375 14.558594 8.4375 14.351562 C 8.4375 14.140625 8.605469 13.972656 8.8125 13.972656 L 10.824219 13.972656 C 11.03125 13.972656 11.199219 14.140625 11.199219 14.351562 C 11.199219 14.558594 11.03125 14.726562 10.824219 14.726562 Z M 10.824219 14.726562 "/>
<path style=" stroke:none;fill-rule:nonzero;fill:rgb(90.196078%,90.588235%,90.980392%);fill-opacity:1;" d="M 14.9375 16.753906 L 12.925781 16.753906 C 12.71875 16.753906 12.550781 16.585938 12.550781 16.375 C 12.550781 16.167969 12.71875 16 12.925781 16 L 14.9375 16 C 15.144531 16 15.3125 16.167969 15.3125 16.375 C 15.3125 16.585938 15.144531 16.753906 14.9375 16.753906 Z M 14.9375 16.753906 "/>
<path style=" stroke:none;fill-rule:nonzero;fill:rgb(100%,100%,100%);fill-opacity:1;" d="M 23.128906 16.753906 L 17.296875 16.753906 C 17.089844 16.753906 16.921875 16.585938 16.921875 16.375 C 16.921875 16.167969 17.089844 16 17.296875 16 L 23.128906 16 C 23.335938 16 23.503906 16.167969 23.503906 16.375 C 23.503906 16.585938 23.335938 16.753906 23.128906 16.753906 Z M 23.128906 16.753906 "/>
<path style=" stroke:none;fill-rule:nonzero;fill:rgb(100%,100%,100%);fill-opacity:1;" d="M 10.824219 16.753906 L 8.8125 16.753906 C 8.605469 16.753906 8.4375 16.585938 8.4375 16.375 C 8.4375 16.167969 8.605469 16 8.8125 16 L 10.824219 16 C 11.03125 16 11.199219 16.167969 11.199219 16.375 C 11.199219 16.585938 11.03125 16.753906 10.824219 16.753906 Z M 10.824219 16.753906 "/>
<path style=" stroke:none;fill-rule:nonzero;fill:rgb(90.196078%,90.588235%,90.980392%);fill-opacity:1;" d="M 14.9375 18.78125 L 12.925781 18.78125 C 12.71875 18.78125 12.550781 18.613281 12.550781 18.402344 C 12.550781 18.195312 12.71875 18.027344 12.925781 18.027344 L 14.9375 18.027344 C 15.144531 18.027344 15.3125 18.195312 15.3125 18.402344 C 15.3125 18.613281 15.144531 18.78125 14.9375 18.78125 Z M 14.9375 18.78125 "/>
<path style=" stroke:none;fill-rule:nonzero;fill:rgb(100%,100%,100%);fill-opacity:1;" d="M 23.128906 18.78125 L 17.296875 18.78125 C 17.089844 18.78125 16.921875 18.613281 16.921875 18.402344 C 16.921875 18.195312 17.089844 18.027344 17.296875 18.027344 L 23.128906 18.027344 C 23.335938 18.027344 23.503906 18.195312 23.503906 18.402344 C 23.503906 18.613281 23.335938 18.78125 23.128906 18.78125 Z M 23.128906 18.78125 "/>
<path style=" stroke:none;fill-rule:nonzero;fill:rgb(100%,100%,100%);fill-opacity:1;" d="M 10.824219 18.78125 L 8.8125 18.78125 C 8.605469 18.78125 8.4375 18.613281 8.4375 18.402344 C 8.4375 18.195312 8.605469 18.027344 8.8125 18.027344 L 10.824219 18.027344 C 11.03125 18.027344 11.199219 18.195312 11.199219 18.402344 C 11.199219 18.613281 11.03125 18.78125 10.824219 18.78125 Z M 10.824219 18.78125 "/>
<path style=" stroke:none;fill-rule:nonzero;fill:rgb(90.196078%,90.588235%,90.980392%);fill-opacity:1;" d="M 14.9375 20.808594 L 12.925781 20.808594 C 12.71875 20.808594 12.550781 20.636719 12.550781 20.429688 C 12.550781 20.222656 12.71875 20.054688 12.925781 20.054688 L 14.9375 20.054688 C 15.144531 20.054688 15.3125 20.222656 15.3125 20.429688 C 15.3125 20.636719 15.144531 20.808594 14.9375 20.808594 Z M 14.9375 20.808594 "/>
<path style=" stroke:none;fill-rule:nonzero;fill:rgb(100%,100%,100%);fill-opacity:1;" d="M 23.128906 20.808594 L 17.296875 20.808594 C 17.089844 20.808594 16.921875 20.636719 16.921875 20.429688 C 16.921875 20.222656 17.089844 20.054688 17.296875 20.054688 L 23.128906 20.054688 C 23.335938 20.054688 23.503906 20.222656 23.503906 20.429688 C 23.503906 20.636719 23.335938 20.808594 23.128906 20.808594 Z M 23.128906 20.808594 "/>
<path style=" stroke:none;fill-rule:nonzero;fill:rgb(100%,100%,100%);fill-opacity:1;" d="M 10.824219 20.808594 L 8.8125 20.808594 C 8.605469 20.808594 8.4375 20.636719 8.4375 20.429688 C 8.4375 20.222656 8.605469 20.054688 8.8125 20.054688 L 10.824219 20.054688 C 11.03125 20.054688 11.199219 20.222656 11.199219 20.429688 C 11.199219 20.636719 11.03125 20.808594 10.824219 20.808594 Z M 10.824219 20.808594 "/>
<path style=" stroke:none;fill-rule:nonzero;fill:rgb(99.607843%,87.058824%,22.745098%);fill-opacity:1;" d="M 11.878906 9.253906 L 16 9.253906 L 16 12.148438 L 11.878906 12.148438 Z M 11.878906 9.253906 "/>
<path style=" stroke:none;fill-rule:nonzero;fill:rgb(89.411765%,23.921569%,56.862745%);fill-opacity:1;" d="M 7.757812 11.109375 L 11.878906 11.109375 L 11.878906 12.148438 L 7.757812 12.148438 Z M 7.757812 11.109375 "/>
<path style=" stroke:none;fill-rule:nonzero;fill:rgb(96.862745%,79.607843%,8.235294%);fill-opacity:1;" d="M 11.871094 11.109375 L 15.992188 11.109375 L 15.992188 12.148438 L 11.871094 12.148438 Z M 11.871094 11.109375 "/>
<path style=" stroke:none;fill-rule:nonzero;fill:rgb(7.45098%,42.745098%,62.745098%);fill-opacity:1;" d="M 15.992188 11.109375 L 24.242188 11.109375 L 24.242188 12.148438 L 15.992188 12.148438 Z M 15.992188 11.109375 "/>
<path style=" stroke:none;fill-rule:nonzero;fill:rgb(89.411765%,23.921569%,56.862745%);fill-opacity:1;" d="M 24.121094 24.011719 L 20.394531 24.011719 C 19.914062 24.011719 19.523438 23.621094 19.523438 23.140625 L 19.523438 19.414062 C 19.523438 18.929688 19.914062 18.539062 20.394531 18.539062 L 24.121094 18.539062 C 24.605469 18.539062 24.996094 18.929688 24.996094 19.414062 L 24.996094 23.140625 C 24.996094 23.621094 24.605469 24.011719 24.121094 24.011719 Z M 24.121094 24.011719 "/>
<path style=" stroke:none;fill-rule:nonzero;fill:rgb(93.72549%,35.294118%,61.568627%);fill-opacity:1;" d="M 24.121094 23.683594 L 20.394531 23.683594 C 19.914062 23.683594 19.523438 23.292969 19.523438 22.8125 L 19.523438 19.085938 C 19.523438 18.601562 19.914062 18.210938 20.394531 18.210938 L 24.121094 18.210938 C 24.605469 18.210938 24.996094 18.601562 24.996094 19.085938 L 24.996094 22.8125 C 24.996094 23.292969 24.605469 23.683594 24.121094 23.683594 Z M 24.121094 23.683594 "/>
<path style=" stroke:none;fill-rule:nonzero;fill:rgb(89.411765%,23.921569%,56.862745%);fill-opacity:1;" d="M 24.425781 20.761719 C 24.429688 20.746094 24.4375 20.734375 24.441406 20.71875 C 24.441406 20.71875 24.441406 20.71875 24.441406 20.714844 C 24.445312 20.699219 24.449219 20.683594 24.449219 20.667969 C 24.449219 20.667969 24.449219 20.664062 24.453125 20.664062 C 24.453125 20.628906 24.449219 20.59375 24.441406 20.5625 C 24.441406 20.5625 24.4375 20.5625 24.4375 20.5625 C 24.433594 20.546875 24.425781 20.53125 24.417969 20.515625 C 24.394531 20.46875 24.355469 20.433594 24.300781 20.410156 L 22.363281 19.542969 C 22.296875 19.511719 22.21875 19.511719 22.152344 19.542969 L 20.214844 20.410156 C 20.164062 20.433594 20.125 20.46875 20.097656 20.515625 C 20.089844 20.53125 20.082031 20.546875 20.078125 20.5625 C 20.066406 20.59375 20.0625 20.628906 20.066406 20.664062 C 20.066406 20.664062 20.066406 20.667969 20.066406 20.667969 C 20.066406 20.683594 20.070312 20.699219 20.074219 20.714844 C 20.074219 20.71875 20.074219 20.71875 20.074219 20.71875 C 20.078125 20.734375 20.085938 20.746094 20.09375 20.761719 C 20.09375 20.761719 20.09375 20.765625 20.097656 20.769531 C 20.105469 20.785156 20.113281 20.796875 20.125 20.808594 C 20.125 20.808594 20.125 20.8125 20.125 20.8125 C 20.136719 20.824219 20.148438 20.832031 20.160156 20.84375 C 20.164062 20.84375 20.167969 20.847656 20.171875 20.851562 C 20.183594 20.859375 20.199219 20.871094 20.214844 20.878906 L 20.300781 20.917969 C 20.300781 20.925781 20.296875 20.933594 20.296875 20.941406 L 20.296875 21.671875 C 20.21875 21.695312 20.160156 21.769531 20.160156 21.859375 L 20.160156 22.109375 C 20.160156 22.179688 20.21875 22.238281 20.289062 22.238281 L 20.433594 22.238281 C 20.503906 22.238281 20.5625 22.179688 20.5625 22.109375 L 20.5625 21.859375 C 20.5625 21.773438 20.503906 21.695312 20.425781 21.671875 L 20.425781 20.992188 L 20.453125 20.984375 L 20.78125 21.128906 L 20.78125 22.164062 C 20.78125 22.265625 20.84375 22.359375 20.9375 22.398438 L 22.15625 22.929688 C 22.222656 22.957031 22.296875 22.957031 22.359375 22.929688 L 23.578125 22.398438 C 23.671875 22.359375 23.734375 22.265625 23.734375 22.164062 L 23.734375 21.128906 L 24.300781 20.878906 C 24.316406 20.871094 24.332031 20.859375 24.347656 20.851562 C 24.351562 20.847656 24.351562 20.84375 24.355469 20.84375 C 24.367188 20.832031 24.378906 20.824219 24.390625 20.8125 C 24.390625 20.8125 24.390625 20.808594 24.390625 20.808594 C 24.402344 20.796875 24.410156 20.78125 24.417969 20.769531 C 24.421875 20.765625 24.421875 20.761719 24.425781 20.761719 Z M 24.425781 20.761719 "/>
<path style=" stroke:none;fill-rule:nonzero;fill:rgb(96.862745%,79.607843%,8.235294%);fill-opacity:1;" d="M 23.578125 22.015625 L 22.359375 22.546875 C 22.296875 22.574219 22.222656 22.574219 22.15625 22.546875 L 20.9375 22.015625 C 20.84375 21.976562 20.78125 21.882812 20.78125 21.78125 L 20.78125 20.703125 L 23.734375 20.703125 L 23.734375 21.78125 C 23.734375 21.882812 23.671875 21.976562 23.578125 22.015625 Z M 23.578125 22.015625 "/>
<path style=" stroke:none;fill-rule:nonzero;fill:rgb(90.588235%,67.843137%,15.294118%);fill-opacity:1;" d="M 20.78125 21.132812 L 22.152344 21.746094 C 22.21875 21.773438 22.296875 21.773438 22.363281 21.746094 L 23.734375 21.132812 L 23.734375 20.703125 L 20.78125 20.703125 Z M 20.78125 21.132812 "/>
<path style=" stroke:none;fill-rule:nonzero;fill:rgb(99.607843%,87.058824%,22.745098%);fill-opacity:1;" d="M 22.152344 21.359375 L 20.214844 20.492188 C 20.011719 20.402344 20.011719 20.117188 20.214844 20.023438 L 22.152344 19.160156 C 22.21875 19.128906 22.296875 19.128906 22.363281 19.160156 L 24.300781 20.023438 C 24.503906 20.117188 24.503906 20.402344 24.300781 20.492188 L 22.363281 21.359375 C 22.296875 21.390625 22.21875 21.390625 22.152344 21.359375 Z M 22.152344 21.359375 "/>
<path style=" stroke:none;fill-rule:nonzero;fill:rgb(96.862745%,79.607843%,8.235294%);fill-opacity:1;" d="M 24.300781 20.238281 L 22.363281 21.101562 C 22.296875 21.132812 22.21875 21.132812 22.152344 21.101562 L 20.214844 20.238281 C 20.164062 20.214844 20.125 20.175781 20.097656 20.132812 C 20.027344 20.253906 20.066406 20.425781 20.214844 20.492188 L 22.152344 21.359375 C 22.21875 21.390625 22.296875 21.390625 22.363281 21.359375 L 24.300781 20.492188 C 24.449219 20.425781 24.488281 20.253906 24.417969 20.132812 C 24.394531 20.175781 24.355469 20.214844 24.300781 20.238281 Z M 24.300781 20.238281 "/>
<path style=" stroke:none;fill-rule:nonzero;fill:rgb(96.862745%,79.607843%,8.235294%);fill-opacity:1;" d="M 22.507812 20.09375 C 22.507812 20.167969 22.394531 20.226562 22.257812 20.226562 C 22.121094 20.226562 22.011719 20.167969 22.011719 20.09375 C 22.011719 20.015625 22.121094 19.957031 22.257812 19.957031 C 22.394531 19.957031 22.507812 20.015625 22.507812 20.09375 Z M 22.507812 20.09375 "/>
<path style=" stroke:none;fill-rule:nonzero;fill:rgb(90.588235%,67.843137%,15.294118%);fill-opacity:1;" d="M 22.257812 20.148438 C 22.144531 20.148438 22.050781 20.109375 22.019531 20.054688 C 22.015625 20.066406 22.007812 20.078125 22.007812 20.09375 C 22.007812 20.167969 22.121094 20.226562 22.257812 20.226562 C 22.394531 20.226562 22.507812 20.167969 22.507812 20.09375 C 22.507812 20.078125 22.5 20.066406 22.496094 20.054688 C 22.464844 20.109375 22.371094 20.148438 22.257812 20.148438 Z M 22.257812 20.148438 "/>
<path style=" stroke:none;fill-rule:nonzero;fill:rgb(90.588235%,67.843137%,15.294118%);fill-opacity:1;" d="M 20.359375 21.75 C 20.324219 21.75 20.296875 21.722656 20.296875 21.6875 L 20.296875 20.558594 C 20.296875 20.527344 20.316406 20.503906 20.34375 20.496094 L 22.242188 20.011719 C 22.277344 20 22.3125 20.023438 22.320312 20.054688 C 22.328125 20.089844 22.308594 20.125 22.273438 20.132812 L 20.425781 20.609375 L 20.425781 21.6875 C 20.425781 21.722656 20.394531 21.75 20.359375 21.75 Z M 20.359375 21.75 "/>
<path style=" stroke:none;fill-rule:nonzero;fill:rgb(96.862745%,79.607843%,8.235294%);fill-opacity:1;" d="M 20.433594 21.851562 L 20.289062 21.851562 C 20.21875 21.851562 20.160156 21.796875 20.160156 21.722656 L 20.160156 21.476562 C 20.160156 21.367188 20.25 21.273438 20.359375 21.273438 C 20.472656 21.273438 20.5625 21.367188 20.5625 21.476562 L 20.5625 21.722656 C 20.5625 21.796875 20.503906 21.851562 20.433594 21.851562 Z M 20.433594 21.851562 "/>
<path style=" stroke:none;fill-rule:nonzero;fill:rgb(99.607843%,87.058824%,22.745098%);fill-opacity:1;" d="M 20.398438 21.851562 L 20.324219 21.851562 C 20.289062 21.851562 20.261719 21.824219 20.261719 21.789062 L 20.261719 21.375 C 20.261719 21.320312 20.304688 21.273438 20.359375 21.273438 C 20.414062 21.273438 20.460938 21.320312 20.460938 21.375 L 20.460938 21.789062 C 20.460938 21.824219 20.429688 21.851562 20.398438 21.851562 Z M 20.398438 21.851562 "/>
</g>
</svg>
