<?xml version="1.0" encoding="UTF-8"?>
<svg xmlns="http://www.w3.org/2000/svg" xmlns:xlink="http://www.w3.org/1999/xlink" width="32pt" height="32pt" viewBox="0 0 32 32" version="1.1">
<g id="surface1">
<path style=" stroke:none;fill-rule:nonzero;fill:rgb(0%,0%,0%);fill-opacity:1;" d="M 10.972656 8.898438 C 10.816406 8.636719 12.214844 3.605469 12.214844 3.203125 C 12.214844 2.804688 11.253906 1.476562 11.148438 1.277344 C 11.046875 1.078125 10.601562 0.941406 10.382812 0.777344 C 10.164062 0.613281 9.886719 0.265625 9.6875 0.0820312 C 9.488281 -0.101562 8.300781 0.0820312 7.960938 0.0820312 C 7.617188 0.0820312 8.09375 0.613281 8.4375 0.714844 C 8.328125 0.925781 7.796875 1.191406 7.960938 1.367188 C 8.121094 1.542969 9.242188 0.96875 9.554688 1.101562 C 9.863281 1.234375 10.171875 2.066406 10.171875 2.066406 C 10.171875 2.066406 10.027344 2.429688 10.128906 2.695312 C 10.234375 2.960938 10.648438 3.300781 10.574219 3.628906 C 10.5 3.949219 9.804688 5.128906 9.597656 5.488281 C 9.390625 5.84375 9.332031 6.714844 9.15625 6.90625 C 8.976562 7.097656 8.578125 6.90625 8.578125 6.90625 C 8.578125 6.90625 8.816406 5.414062 8.714844 5.132812 C 8.609375 4.851562 8.609375 3.183594 6.984375 3.449219 C 5.359375 3.714844 5.582031 5.488281 5.699219 5.796875 C 5.757812 5.949219 5.792969 6.519531 5.996094 6.816406 C 6.210938 7.132812 6.585938 7.171875 6.585938 7.171875 C 6.585938 7.171875 6.703125 7.542969 6.585938 7.660156 C 6.46875 7.777344 5.078125 6.996094 5.078125 6.996094 C 5.078125 6.996094 3.585938 5.800781 3.570312 5.621094 C 3.566406 5.546875 3.710938 5.367188 3.71875 5.148438 C 3.734375 4.871094 3.621094 4.546875 3.703125 4.511719 C 3.851562 4.453125 4.050781 4.234375 4.191406 4.113281 C 4.335938 3.996094 4.132812 3.644531 4.28125 3.496094 C 4.429688 3.347656 5.28125 2.472656 5.476562 2.300781 C 5.671875 2.125 6.039062 1.898438 6.25 1.769531 C 6.460938 1.632812 7.160156 1.058594 7.070312 0.835938 C 6.980469 0.613281 6.367188 1.429688 6.230469 1.339844 C 6.089844 1.25 6.007812 0.453125 5.5625 0.613281 C 5.253906 0.726562 4.714844 1.675781 4.546875 1.945312 C 4.371094 2.214844 4.425781 2.210938 4.25 2.34375 C 4.394531 2.234375 3.488281 2.996094 2.949219 3.449219 C 2.738281 3.628906 2.519531 3.988281 2.285156 4.292969 C 1.917969 4.761719 1.558594 5.199219 1.53125 5.488281 C 1.488281 5.960938 3.140625 8.132812 3.480469 8.324219 C 3.820312 8.515625 4.367188 8.636719 4.589844 8.855469 C 4.808594 9.074219 5.445312 9.578125 5.5625 9.851562 C 5.683594 10.125 6.566406 11.410156 7.023438 11.867188 C 7.484375 12.324219 8.203125 12.460938 8.488281 12.53125 C 8.769531 12.605469 8.929688 13.40625 8.839844 13.90625 C 8.753906 14.40625 8.222656 15.351562 8.042969 16.34375 C 7.867188 17.332031 8.363281 18.015625 8.445312 18.734375 C 8.5625 19.785156 7.332031 26.503906 7.136719 27.597656 C 6.9375 28.695312 6.980469 30.714844 6.757812 31.054688 C 6.535156 31.394531 6.757812 31.984375 6.757812 31.984375 C 6.757812 31.984375 9.59375 31.984375 10.304688 31.984375 C 11.011719 31.984375 11.527344 31.75 11.5 31.496094 C 11.46875 31.246094 10.171875 31.320312 10.125 30.789062 C 10.082031 30.257812 11.855469 18.753906 12.074219 18.117188 C 12.296875 17.480469 12.785156 15.324219 12.738281 14.175781 C 12.695312 13.019531 12.105469 10.953125 11.898438 10.453125 C 11.695312 9.949219 11.128906 9.160156 10.972656 8.898438 Z M 10.972656 8.898438 "/>
<path style=" stroke:none;fill-rule:nonzero;fill:rgb(0%,0%,0%);fill-opacity:1;" d="M 30.421875 16.519531 C 30.335938 16.398438 30.003906 15.6875 29.671875 15.324219 C 28.917969 14.507812 27.875 13.765625 27.632812 13.507812 C 27.277344 13.140625 26.925781 12.753906 26.390625 12.867188 C 25.859375 12.976562 26.125 12.929688 25.683594 13.109375 C 25.242188 13.289062 22.375 13.167969 21.960938 12.929688 C 21.546875 12.695312 20.226562 11.84375 19.921875 11.648438 C 19.617188 11.453125 19.183594 10.714844 18.769531 10.539062 C 18.355469 10.363281 17.898438 10.464844 17.75 10.273438 C 17.605469 10.082031 17.367188 9.429688 17.515625 9.300781 C 17.664062 9.164062 18.179688 9.914062 18.578125 9.660156 C 18.976562 9.410156 18.800781 8.820312 18.769531 8.679688 C 18.738281 8.535156 19.269531 7.671875 19.078125 7.039062 C 18.890625 6.402344 17.957031 6.136719 17.351562 6.0625 C 16.746094 5.988281 16.332031 6.683594 16.332031 6.683594 C 16.332031 6.683594 16.023438 6.875 15.621094 6.90625 C 15.476562 6.917969 15.601562 7.085938 15.667969 7.214844 C 15.734375 7.347656 15.355469 7.878906 15.433594 8.097656 C 15.511719 8.316406 16.15625 8.425781 16.132812 8.679688 C 16.109375 8.929688 15.964844 9.386719 15.402344 9.429688 C 14.839844 9.476562 14.664062 8.558594 14.25 8.28125 C 14.042969 8.140625 13.949219 7.65625 13.75 7.261719 C 13.550781 6.863281 13.246094 6.554688 13.1875 6.417969 C 13.070312 6.144531 13.585938 5.132812 13.585938 5.132812 C 13.585938 5.132812 15.902344 6.050781 17.351562 4.144531 C 18.929688 2.066406 17.128906 0.0820312 17.128906 0.0820312 L 15.269531 1.542969 C 15.269531 1.542969 15.121094 1.382812 14.914062 1.542969 C 14.707031 1.707031 14.167969 2.121094 13.941406 2.296875 C 13.714844 2.472656 12.226562 5.902344 12.210938 6.238281 C 12.195312 6.582031 13.71875 10.273438 13.71875 10.273438 C 13.71875 10.273438 13.460938 10.890625 13.1875 11.558594 C 12.910156 12.226562 13.570312 14.023438 13.410156 15.367188 C 13.246094 16.710938 13.683594 19.664062 13.839844 20.816406 C 13.992188 21.96875 13.941406 26.59375 13.496094 29.503906 C 14.679688 30.183594 15.757812 29.855469 15.757812 29.855469 C 15.757812 29.855469 15.898438 30.132812 16.023438 30.386719 C 16.152344 30.640625 14.8125 31.304688 15.269531 31.363281 C 15.730469 31.421875 17.070312 31.367188 17.21875 31.363281 C 17.367188 31.355469 17.867188 30.757812 17.867188 30.757812 L 18.128906 31.195312 L 18.351562 31.179688 L 18.5625 30.351562 C 18.5625 30.351562 19.183594 30.523438 19.480469 30.253906 C 19.246094 29.988281 18.902344 29.339844 18.902344 29.339844 C 18.902344 29.339844 21.179688 28.839844 21.03125 28.527344 C 20.886719 28.214844 20.144531 25.648438 20.144531 25.648438 C 20.144531 25.648438 28.875 19.605469 28.917969 19.089844 C 28.960938 18.570312 28.960938 17.582031 28.960938 17.582031 C 28.960938 17.582031 30.703125 16.917969 30.421875 16.519531 Z M 16.453125 14.804688 C 16.597656 14.585938 16.363281 13.964844 16.453125 13.667969 C 16.539062 13.375 17.042969 12.738281 17.230469 12.457031 C 17.425781 12.179688 17.734375 12.03125 18.089844 12.074219 C 18.445312 12.117188 19.292969 13.089844 19.757812 13.230469 C 20.21875 13.375 22.195312 13.980469 22.195312 13.980469 C 22.195312 13.980469 18.945312 14.128906 16.453125 14.804688 Z M 16.453125 14.804688 "/>
</g>
</svg>
