<?xml version="1.0" encoding="UTF-8"?>
<svg xmlns="http://www.w3.org/2000/svg" xmlns:xlink="http://www.w3.org/1999/xlink" width="32pt" height="32pt" viewBox="0 0 32 32" version="1.1">
<g id="surface1">
<path style=" stroke:none;fill-rule:nonzero;fill:rgb(27.843137%,67.058824%,42.352941%);fill-opacity:1;" d="M 8.828125 0 L 29.792969 0 C 30.402344 0 30.898438 0.492188 30.898438 1.101562 L 30.898438 16.550781 L 7.722656 16.550781 L 7.722656 1.101562 C 7.722656 0.492188 8.21875 0 8.828125 0 Z M 8.828125 0 "/>
<path style=" stroke:none;fill-rule:nonzero;fill:rgb(25.098039%,60.392157%,38.039216%);fill-opacity:1;" d="M 7.722656 5.515625 L 7.722656 16.550781 L 20.964844 16.550781 C 13.644531 16.550781 7.722656 11.617188 7.722656 5.515625 Z M 7.722656 5.515625 "/>
<path style=" stroke:none;fill-rule:nonzero;fill:rgb(14.509804%,29.411765%,43.529412%);fill-opacity:1;" d="M 7.722656 16.550781 L 32 16.550781 L 32 18.757812 L 7.722656 18.757812 Z M 7.722656 16.550781 "/>
<path style=" stroke:none;fill-rule:nonzero;fill:rgb(14.509804%,29.411765%,43.529412%);fill-opacity:1;" d="M 9.929688 20.964844 L 8.828125 20.964844 L 6.621094 24.277344 L 4.414062 20.964844 L 3.308594 20.964844 C 1.480469 20.964844 0 22.449219 0 24.277344 L 0 32 L 13.242188 32 L 13.242188 24.277344 C 13.242188 22.449219 11.757812 20.964844 9.929688 20.964844 Z M 9.929688 20.964844 "/>
<path style=" stroke:none;fill-rule:nonzero;fill:rgb(93.72549%,91.764706%,86.666667%);fill-opacity:1;" d="M 3.308594 16.550781 C 3.308594 18.378906 4.792969 19.863281 6.621094 19.863281 C 8.449219 19.863281 9.929688 18.378906 9.929688 16.550781 L 9.929688 14.34375 L 3.308594 14.34375 Z M 3.308594 16.550781 "/>
<path style=" stroke:none;fill-rule:nonzero;fill:rgb(94.901961%,69.411765%,20.392157%);fill-opacity:1;" d="M 2.757812 14.34375 L 9.929688 14.34375 L 9.929688 11.035156 C 9.929688 10.425781 9.4375 9.929688 8.828125 9.929688 L 0 9.929688 L 0 11.585938 C 0 13.109375 1.234375 14.34375 2.757812 14.34375 Z M 2.757812 14.34375 "/>
<path style=" stroke:none;fill-rule:nonzero;fill:rgb(94.901961%,69.411765%,20.392157%);fill-opacity:1;" d="M 8.828125 20.964844 L 4.414062 20.964844 L 6.621094 24.277344 Z M 8.828125 20.964844 "/>
<path style=" stroke:none;fill-rule:nonzero;fill:rgb(14.509804%,29.411765%,43.529412%);fill-opacity:1;" d="M 16.550781 30.898438 L 16.550781 32 L 23.171875 32 L 23.171875 30.898438 C 23.171875 29.679688 22.183594 28.691406 20.964844 28.691406 L 18.757812 28.691406 C 17.539062 28.691406 16.550781 29.679688 16.550781 30.898438 Z M 16.550781 30.898438 "/>
<path style=" stroke:none;fill-rule:nonzero;fill:rgb(94.901961%,69.411765%,20.392157%);fill-opacity:1;" d="M 21.515625 26.484375 C 21.515625 27.398438 20.777344 28.136719 19.863281 28.136719 C 18.949219 28.136719 18.207031 27.398438 18.207031 26.484375 C 18.207031 25.570312 18.949219 24.828125 19.863281 24.828125 C 20.777344 24.828125 21.515625 25.570312 21.515625 26.484375 Z M 21.515625 26.484375 "/>
<path style=" stroke:none;fill-rule:nonzero;fill:rgb(14.509804%,29.411765%,43.529412%);fill-opacity:1;" d="M 29.792969 28.691406 L 27.585938 28.691406 C 26.367188 28.691406 25.378906 29.679688 25.378906 30.898438 L 25.378906 32 L 32 32 L 32 30.898438 C 32 29.679688 31.011719 28.691406 29.792969 28.691406 Z M 29.792969 28.691406 "/>
<path style=" stroke:none;fill-rule:nonzero;fill:rgb(94.901961%,69.411765%,20.392157%);fill-opacity:1;" d="M 30.34375 26.484375 C 30.34375 27.398438 29.605469 28.136719 28.691406 28.136719 C 27.777344 28.136719 27.035156 27.398438 27.035156 26.484375 C 27.035156 25.570312 27.777344 24.828125 28.691406 24.828125 C 29.605469 24.828125 30.34375 25.570312 30.34375 26.484375 Z M 30.34375 26.484375 "/>
<path style=" stroke:none;fill-rule:nonzero;fill:rgb(94.509804%,94.901961%,94.901961%);fill-opacity:1;" d="M 13.921875 4.414062 L 12.15625 10.890625 L 13.222656 11.179688 L 13.863281 8.828125 L 15.929688 8.828125 L 16.570312 11.179688 L 17.636719 10.890625 L 15.871094 4.414062 Z M 14.164062 7.722656 L 14.765625 5.515625 L 15.027344 5.515625 L 15.628906 7.722656 Z M 14.164062 7.722656 "/>
<path style=" stroke:none;fill-rule:nonzero;fill:rgb(94.509804%,94.901961%,94.901961%);fill-opacity:1;" d="M 21.242188 4.414062 L 18.757812 4.414062 L 18.757812 11.035156 L 21.242188 11.035156 C 22.027344 11.035156 22.734375 10.558594 23.03125 9.832031 C 23.324219 9.105469 23.152344 8.273438 22.589844 7.722656 C 23.152344 7.175781 23.324219 6.34375 23.03125 5.613281 C 22.734375 4.886719 22.027344 4.414062 21.242188 4.414062 Z M 21.242188 9.929688 L 19.863281 9.929688 L 19.863281 8.277344 L 21.242188 8.277344 C 21.699219 8.277344 22.070312 8.644531 22.070312 9.101562 C 22.070312 9.5625 21.699219 9.929688 21.242188 9.929688 Z M 21.242188 7.171875 L 19.863281 7.171875 L 19.863281 5.515625 L 21.242188 5.515625 C 21.699219 5.515625 22.070312 5.886719 22.070312 6.34375 C 22.070312 6.800781 21.699219 7.171875 21.242188 7.171875 Z M 21.242188 7.171875 "/>
<path style=" stroke:none;fill-rule:nonzero;fill:rgb(94.509804%,94.901961%,94.901961%);fill-opacity:1;" d="M 27.035156 5.515625 L 28.136719 5.515625 L 28.136719 4.414062 L 27.035156 4.414062 C 25.511719 4.414062 24.277344 5.648438 24.277344 7.171875 L 24.277344 8.277344 C 24.277344 9.796875 25.511719 11.03125 27.035156 11.035156 L 28.136719 11.035156 L 28.136719 9.929688 L 27.035156 9.929688 C 26.121094 9.929688 25.378906 9.191406 25.378906 8.277344 L 25.378906 7.171875 C 25.378906 6.257812 26.121094 5.515625 27.035156 5.515625 Z M 27.035156 5.515625 "/>
<path style=" stroke:none;fill-rule:nonzero;fill:rgb(14.509804%,29.411765%,43.529412%);fill-opacity:1;" d="M 14.34375 13.242188 L 15.449219 13.242188 L 15.449219 14.34375 L 14.34375 14.34375 Z M 14.34375 13.242188 "/>
<path style=" stroke:none;fill-rule:nonzero;fill:rgb(14.509804%,29.411765%,43.529412%);fill-opacity:1;" d="M 17.101562 13.242188 L 18.207031 13.242188 L 18.207031 14.34375 L 17.101562 14.34375 Z M 17.101562 13.242188 "/>
<path style=" stroke:none;fill-rule:nonzero;fill:rgb(14.509804%,29.411765%,43.529412%);fill-opacity:1;" d="M 19.863281 13.242188 L 20.964844 13.242188 L 20.964844 14.34375 L 19.863281 14.34375 Z M 19.863281 13.242188 "/>
<path style=" stroke:none;fill-rule:nonzero;fill:rgb(14.509804%,29.411765%,43.529412%);fill-opacity:1;" d="M 22.621094 13.242188 L 23.722656 13.242188 L 23.722656 14.34375 L 22.621094 14.34375 Z M 22.621094 13.242188 "/>
<path style=" stroke:none;fill-rule:nonzero;fill:rgb(14.509804%,29.411765%,43.529412%);fill-opacity:1;" d="M 25.378906 13.242188 L 26.484375 13.242188 L 26.484375 14.34375 L 25.378906 14.34375 Z M 25.378906 13.242188 "/>
<path style=" stroke:none;fill-rule:nonzero;fill:rgb(10.980392%,18.039216%,35.686275%);fill-opacity:1;" d="M 3.308594 25.378906 C 3.613281 25.378906 3.863281 25.625 3.863281 25.929688 L 3.863281 32 L 2.757812 32 L 2.757812 25.929688 C 2.757812 25.625 3.003906 25.378906 3.308594 25.378906 Z M 3.308594 25.378906 "/>
<path style=" stroke:none;fill-rule:nonzero;fill:rgb(10.980392%,18.039216%,35.686275%);fill-opacity:1;" d="M 9.929688 25.378906 C 10.234375 25.378906 10.484375 25.625 10.484375 25.929688 L 10.484375 32 L 9.378906 32 L 9.378906 25.929688 C 9.378906 25.625 9.625 25.378906 9.929688 25.378906 Z M 9.929688 25.378906 "/>
</g>
</svg>
