<?xml version='1.0' encoding='UTF-8'?>
<svg x="0px" y="0px" viewBox="0 0 32 32" version="1.1" xmlns="http://www.w3.org/2000/svg" xmlns:xlink="http://www.w3.org/1999/xlink" xml:space="preserve" id="Layer_1">
  <g>
    <path d="M31,2H9C8.5,2,8,2.5,8,3v9h2V4h20v16h-8v2h9c0.5,0,1-0.5,1-1V3C32,2.5,31.5,2,31,2z" fill="#727272" class="Black" />
    <path d="M10,24.3l10-6V29c0,0.5-0.5,1-1,1H1c-0.5,0-1-0.5-1-1V18.3L10,24.3z M19,14H1c-0.5,0-1,0.5-1,1v1l10,6l10-6   v-1C20,14.5,19.5,14,19,14z" fill="#FFB115" class="Yellow" />
    <polygon points="28,10 24,10 24,6 22,6 22,10 18,10 18,12 22,12 22,16 24,16 24,12 28,12  " fill="#039C23" class="Green" />
  </g>
</svg>