<svg height="457pt" viewBox="0 -15 457.98 457" width="457pt" xmlns="http://www.w3.org/2000/svg"><path d="m457.980469 426.691406v.597656h-457.980469v-.597656h.320312l157.417969-148.203125.480469-.519531 70.769531 66.121094 73.351563-68.539063.410156.4375 154.871094 150.703125zm0 0" fill="#f4b844"/><path d="m457.980469 130.101562v296.589844h-.359375l-154.871094-150.703125-.410156-.4375zm0 0" fill="#fedb41"/><path d="m457.980469 129.691406v.410156l-155.640625 145.449219-73.351563 68.539063-70.769531-66.121094-158.21875-147.828125v-.449219h101.03125c.679688 70.183594 57.769531 126.726563 127.957031 126.726563 70.191407 0 127.28125-56.542969 127.960938-126.726563zm0 0" fill="#00acea"/><path d="m356.960938 128.460938c0 .410156 0 .820312-.011719 1.230468-.679688 70.183594-57.769531 126.726563-127.960938 126.726563-70.1875 0-127.277343-56.542969-127.957031-126.726563-.011719-.410156-.011719-.820312-.011719-1.230468 0-70.675782 57.292969-127.972657 127.96875-127.972657s127.972657 57.296875 127.972657 127.972657zm0 0" fill="#00efd1"/><path d="m310.398438 170.269531c3.609374 3.605469 3.644531 9.441407.082031 13.089844l-6.761719 6.910156c-1.738281 1.777344-4.117188 2.78125-6.605469 2.796875-2.484375.011719-4.875-.96875-6.632812-2.726562l-1.992188-1.980469-29.910156-29.917969c-.15625-.160156-.308594-.332031-.457031-.5-3.164063-3.660156-2.996094-9.136718.390625-12.589844l6.757812-6.910156c1.738281-1.777344 4.113281-2.785156 6.601563-2.800781 2.484375-.011719 4.871094.96875 6.628906 2.730469zm0 0" fill="#fedb41"/><path d="m258.578125 158.441406 29.910156 29.917969-15.199219 15.199219c-11.988281 12-31.4375 12-43.429687 0l-76.007813-76c-12-11.992188-12-31.445313 0-43.4375l15.160157-15.152344 30.058593 30.0625c.109376.109375.21875.21875.339844.328125l-8.640625 8.652344c-3.425781 3.421875-3.617187 8.914062-.441406 12.566406.140625.164063.289063.316406.441406.460937l45.601563 45.609376c3.601562 3.589843 9.425781 3.589843 13.027344 0l8.691406-8.6875.03125-.019532c.148437.167969.300781.339844.457031.5zm0 0" fill="#00acea"/><g fill="#fedb41"><path d="m199.421875 99.359375h-.011719c-.121094-.109375-.230468-.21875-.339844-.328125l-30.058593-30.0625-1.839844-1.839844c-3.632813-3.636718-3.632813-9.527344 0-13.167968l6.886719-6.882813c3.636718-3.628906 9.527344-3.628906 13.160156 0l31.902344 31.902344c3.628906 3.636719 3.628906 9.523437 0 13.160156l-6.882813 6.890625c-3.503906 3.5-9.136719 3.644531-12.816406.328125zm0 0"/><path d="m0 130.140625 158.21875 147.828125-.480469.519531-157.417969 148.203125h-.320312zm0 0"/></g></svg>