<?xml version="1.0" encoding="UTF-8"?>
<svg xmlns="http://www.w3.org/2000/svg" xmlns:xlink="http://www.w3.org/1999/xlink" width="32pt" height="32pt" viewBox="0 0 32 32" version="1.1">
<g id="surface1">
<path style=" stroke:none;fill-rule:nonzero;fill:rgb(30.196078%,71.764706%,89.803922%);fill-opacity:1;" d="M 20.414062 4.964844 L 20.414062 3.863281 L 16.550781 3.863281 C 16.246094 3.863281 16 4.109375 16 4.414062 L 16 29.242188 C 16 29.546875 16.246094 29.792969 16.550781 29.792969 L 20.414062 29.792969 L 20.414062 28.691406 L 17.101562 28.691406 L 17.101562 16.550781 L 20.414062 16.550781 L 20.414062 15.449219 L 17.101562 15.449219 L 17.101562 4.964844 Z M 20.414062 4.964844 "/>
<path style=" stroke:none;fill-rule:nonzero;fill:rgb(17.647059%,49.019608%,74.901961%);fill-opacity:1;" d="M 0 4.964844 L 2.207031 4.964844 L 2.207031 16 L 0 16 Z M 0 4.964844 "/>
<path style=" stroke:none;fill-rule:nonzero;fill:rgb(17.647059%,49.019608%,74.901961%);fill-opacity:1;" d="M 4.414062 4.964844 L 6.621094 4.964844 L 6.621094 16 L 4.414062 16 Z M 4.414062 4.964844 "/>
<path style=" stroke:none;fill-rule:nonzero;fill:rgb(17.647059%,49.019608%,74.901961%);fill-opacity:1;" d="M 8.828125 4.964844 L 11.035156 4.964844 L 11.035156 16 L 8.828125 16 Z M 8.828125 4.964844 "/>
<path style=" stroke:none;fill-rule:nonzero;fill:rgb(20.392157%,56.078431%,85.098039%);fill-opacity:1;" d="M 8.828125 10.484375 L 8.828125 8.277344 L 4.414062 10.484375 L 4.414062 8.277344 L 0 10.484375 L 0 16 L 13.242188 16 L 13.242188 8.277344 Z M 8.828125 10.484375 "/>
<path style=" stroke:none;fill-rule:nonzero;fill:rgb(100%,70.980392%,19.215686%);fill-opacity:1;" d="M 2.207031 12.691406 L 9.929688 12.691406 L 9.929688 18.207031 L 2.207031 18.207031 Z M 2.207031 12.691406 "/>
<path style=" stroke:none;fill-rule:nonzero;fill:rgb(100%,66.27451%,7.058824%);fill-opacity:1;" d="M 3.863281 18.207031 L 9.929688 18.207031 L 9.929688 12.691406 L 9.378906 12.691406 Z M 3.863281 18.207031 "/>
<path style=" stroke:none;fill-rule:nonzero;fill:rgb(100%,66.27451%,7.058824%);fill-opacity:1;" d="M 9.929688 18.207031 L 14.34375 18.207031 L 14.34375 15.449219 L 12.691406 13.792969 L 9.929688 13.792969 Z M 9.929688 18.207031 "/>
<path style=" stroke:none;fill-rule:nonzero;fill:rgb(23.921569%,30.196078%,38.823529%);fill-opacity:1;" d="M 13.242188 18.207031 C 13.242188 18.816406 12.746094 19.308594 12.136719 19.308594 C 11.527344 19.308594 11.035156 18.816406 11.035156 18.207031 C 11.035156 17.597656 11.527344 17.101562 12.136719 17.101562 C 12.746094 17.101562 13.242188 17.597656 13.242188 18.207031 Z M 13.242188 18.207031 "/>
<path style=" stroke:none;fill-rule:nonzero;fill:rgb(23.921569%,30.196078%,38.823529%);fill-opacity:1;" d="M 5.515625 18.207031 C 5.515625 18.816406 5.023438 19.308594 4.414062 19.308594 C 3.804688 19.308594 3.308594 18.816406 3.308594 18.207031 C 3.308594 17.597656 3.804688 17.101562 4.414062 17.101562 C 5.023438 17.101562 5.515625 17.597656 5.515625 18.207031 Z M 5.515625 18.207031 "/>
<path style=" stroke:none;fill-rule:nonzero;fill:rgb(23.921569%,30.196078%,38.823529%);fill-opacity:1;" d="M 7.722656 18.207031 C 7.722656 18.816406 7.230469 19.308594 6.621094 19.308594 C 6.011719 19.308594 5.515625 18.816406 5.515625 18.207031 C 5.515625 17.597656 6.011719 17.101562 6.621094 17.101562 C 7.230469 17.101562 7.722656 17.597656 7.722656 18.207031 Z M 7.722656 18.207031 "/>
<path style=" stroke:none;fill-rule:nonzero;fill:rgb(20.392157%,56.078431%,85.098039%);fill-opacity:1;" d="M 27.035156 0 L 22.070312 1.65625 L 22.070312 7.722656 L 32 7.722656 L 32 1.65625 Z M 27.035156 0 "/>
<path style=" stroke:none;fill-rule:nonzero;fill:rgb(18.823529%,52.54902%,80.392157%);fill-opacity:1;" d="M 23.171875 7.722656 L 32 7.722656 L 32 1.65625 L 29.929688 0.964844 Z M 23.171875 7.722656 "/>
<path style=" stroke:none;fill-rule:nonzero;fill:rgb(100%,70.980392%,19.215686%);fill-opacity:1;" d="M 24.277344 3.308594 L 29.792969 3.308594 L 29.792969 7.722656 L 24.277344 7.722656 Z M 24.277344 3.308594 "/>
<path style=" stroke:none;fill-rule:nonzero;fill:rgb(96.862745%,63.137255%,8.627451%);fill-opacity:1;" d="M 24.277344 3.308594 L 29.792969 3.308594 L 29.792969 4.414062 L 24.277344 4.414062 Z M 24.277344 3.308594 "/>
<path style=" stroke:none;fill-rule:nonzero;fill:rgb(20.392157%,56.078431%,85.098039%);fill-opacity:1;" d="M 27.035156 11.585938 L 22.070312 13.242188 L 22.070312 19.308594 L 32 19.308594 L 32 13.242188 Z M 27.035156 11.585938 "/>
<path style=" stroke:none;fill-rule:nonzero;fill:rgb(18.823529%,52.54902%,80.392157%);fill-opacity:1;" d="M 23.171875 19.308594 L 32 19.308594 L 32 13.242188 L 29.929688 12.550781 Z M 23.171875 19.308594 "/>
<path style=" stroke:none;fill-rule:nonzero;fill:rgb(100%,70.980392%,19.215686%);fill-opacity:1;" d="M 24.277344 14.898438 L 29.792969 14.898438 L 29.792969 19.308594 L 24.277344 19.308594 Z M 24.277344 14.898438 "/>
<path style=" stroke:none;fill-rule:nonzero;fill:rgb(96.862745%,63.137255%,8.627451%);fill-opacity:1;" d="M 24.277344 14.898438 L 29.792969 14.898438 L 29.792969 16 L 24.277344 16 Z M 24.277344 14.898438 "/>
<path style=" stroke:none;fill-rule:nonzero;fill:rgb(20.392157%,56.078431%,85.098039%);fill-opacity:1;" d="M 27.035156 24.277344 L 22.070312 25.929688 L 22.070312 32 L 32 32 L 32 25.929688 Z M 27.035156 24.277344 "/>
<path style=" stroke:none;fill-rule:nonzero;fill:rgb(18.823529%,52.54902%,80.392157%);fill-opacity:1;" d="M 23.171875 32 L 32 32 L 32 25.929688 L 29.929688 25.242188 Z M 23.171875 32 "/>
<path style=" stroke:none;fill-rule:nonzero;fill:rgb(100%,70.980392%,19.215686%);fill-opacity:1;" d="M 24.277344 27.585938 L 29.792969 27.585938 L 29.792969 32 L 24.277344 32 Z M 24.277344 27.585938 "/>
<path style=" stroke:none;fill-rule:nonzero;fill:rgb(96.862745%,63.137255%,8.627451%);fill-opacity:1;" d="M 24.277344 27.585938 L 29.792969 27.585938 L 29.792969 28.691406 L 24.277344 28.691406 Z M 24.277344 27.585938 "/>
<path style=" stroke:none;fill-rule:nonzero;fill:rgb(96.862745%,63.137255%,8.627451%);fill-opacity:1;" d="M 9.929688 13.792969 L 11.035156 13.792969 L 11.035156 18.207031 L 9.929688 18.207031 Z M 9.929688 13.792969 "/>
</g>
</svg>
