<?xml version="1.0" encoding="UTF-8"?>
<svg xmlns="http://www.w3.org/2000/svg" xmlns:xlink="http://www.w3.org/1999/xlink" width="32pt" height="32pt" viewBox="0 0 32 32" version="1.1">
<g id="surface1">
<path style=" stroke:none;fill-rule:nonzero;fill:rgb(0%,80.784314%,70.588235%);fill-opacity:1;" d="M 29.40625 5.21875 L 29.40625 32 L 7.84375 32 L 7.84375 29.390625 L 26.800781 29.390625 L 26.800781 5.21875 Z M 29.40625 5.21875 "/>
<path style=" stroke:none;fill-rule:nonzero;fill:rgb(0%,93.72549%,81.960784%);fill-opacity:1;" d="M 26.800781 5.21875 L 26.800781 29.390625 L 5.234375 29.390625 L 5.234375 26.78125 L 24.191406 26.78125 L 24.191406 2.609375 L 26.800781 2.609375 Z M 26.800781 5.21875 "/>
<path style=" stroke:none;fill-rule:nonzero;fill:rgb(0%,67.45098%,91.764706%);fill-opacity:1;" d="M 24.191406 2.609375 L 24.191406 26.78125 L 2.625 26.78125 L 2.625 0 L 24.191406 0 Z M 24.191406 2.609375 "/>
<path style=" stroke:none;fill-rule:nonzero;fill:rgb(0%,93.72549%,81.960784%);fill-opacity:1;" d="M 13.40625 6.566406 C 14.304688 6.570312 15.03125 7.296875 15.03125 8.191406 C 15.03125 8.445312 15.234375 8.648438 15.488281 8.648438 C 15.738281 8.648438 15.945312 8.445312 15.945312 8.191406 C 15.941406 6.976562 15.078125 5.929688 13.886719 5.699219 L 13.886719 4.890625 C 13.886719 4.636719 13.679688 4.433594 13.429688 4.433594 C 13.175781 4.433594 12.972656 4.636719 12.972656 4.890625 L 12.972656 5.691406 C 11.675781 5.917969 10.769531 7.097656 10.882812 8.410156 C 10.996094 9.722656 12.09375 10.726562 13.40625 10.730469 C 14.304688 10.726562 15.03125 11.457031 15.03125 12.351562 C 15.03125 13.25 14.304688 13.976562 13.40625 13.976562 C 12.511719 13.976562 11.785156 13.25 11.785156 12.351562 C 11.785156 12.097656 11.582031 11.894531 11.328125 11.894531 C 11.074219 11.894531 10.871094 12.097656 10.871094 12.351562 C 10.875 13.585938 11.757812 14.636719 12.972656 14.851562 L 12.972656 15.847656 C 12.972656 16.101562 13.175781 16.304688 13.429688 16.304688 C 13.679688 16.304688 13.886719 16.101562 13.886719 15.847656 L 13.886719 14.84375 C 15.171875 14.597656 16.058594 13.414062 15.933594 12.113281 C 15.808594 10.808594 14.714844 9.816406 13.40625 9.816406 C 12.511719 9.816406 11.785156 9.089844 11.785156 8.191406 C 11.785156 7.296875 12.511719 6.570312 13.40625 6.570312 Z M 13.40625 6.566406 "/>
<path style=" stroke:none;fill-rule:nonzero;fill:rgb(99.607843%,85.882353%,25.490196%);fill-opacity:1;" d="M 21.582031 23.6875 L 5.234375 23.6875 C 4.980469 23.6875 4.777344 23.890625 4.777344 24.144531 C 4.777344 24.394531 4.980469 24.597656 5.234375 24.597656 L 21.582031 24.597656 C 21.835938 24.597656 22.039062 24.394531 22.039062 24.144531 C 22.039062 23.890625 21.835938 23.6875 21.582031 23.6875 Z M 21.582031 23.6875 "/>
<path style=" stroke:none;fill-rule:nonzero;fill:rgb(99.607843%,85.882353%,25.490196%);fill-opacity:1;" d="M 5.234375 22.011719 L 21.582031 22.011719 C 21.835938 22.011719 22.039062 21.808594 22.039062 21.554688 C 22.039062 21.304688 21.835938 21.097656 21.582031 21.097656 L 5.234375 21.097656 C 4.980469 21.097656 4.777344 21.304688 4.777344 21.554688 C 4.777344 21.808594 4.980469 22.011719 5.234375 22.011719 Z M 5.234375 22.011719 "/>
<path style=" stroke:none;fill-rule:nonzero;fill:rgb(99.607843%,85.882353%,25.490196%);fill-opacity:1;" d="M 5.234375 19.425781 L 11.148438 19.425781 C 11.398438 19.425781 11.605469 19.21875 11.605469 18.96875 C 11.605469 18.714844 11.398438 18.511719 11.148438 18.511719 L 5.234375 18.511719 C 4.980469 18.511719 4.777344 18.714844 4.777344 18.96875 C 4.777344 19.21875 4.980469 19.425781 5.234375 19.425781 Z M 5.234375 19.425781 "/>
</g>
</svg>
