<?xml version="1.0" encoding="UTF-8"?>
<svg xmlns="http://www.w3.org/2000/svg" xmlns:xlink="http://www.w3.org/1999/xlink" width="32pt" height="32pt" viewBox="0 0 32 32" version="1.1">
<g id="surface1">
<path style=" stroke:none;fill-rule:nonzero;fill:rgb(10.980392%,78.431373%,92.156863%);fill-opacity:1;" d="M 30.34375 10.484375 L 31.449219 10.484375 L 31.449219 3.308594 C 31.449219 2.699219 30.953125 2.207031 30.34375 2.207031 L 28.691406 2.207031 L 28.691406 3.308594 L 30.34375 3.308594 Z M 30.34375 10.484375 "/>
<path style=" stroke:none;fill-rule:nonzero;fill:rgb(78.823529%,87.45098%,100%);fill-opacity:1;" d="M 5.515625 0 L 21.515625 0 C 21.820312 0 22.070312 0.246094 22.070312 0.550781 L 22.070312 31.449219 C 22.070312 31.753906 21.820312 32 21.515625 32 L 0.550781 32 C 0.246094 32 0 31.753906 0 31.449219 L 0 5.515625 Z M 5.515625 0 "/>
<path style=" stroke:none;fill-rule:nonzero;fill:rgb(94.117647%,74.509804%,34.901961%);fill-opacity:1;" d="M 3.863281 20.964844 L 14.898438 20.964844 L 14.898438 23.722656 L 3.863281 23.722656 Z M 3.863281 20.964844 "/>
<path style=" stroke:none;fill-rule:nonzero;fill:rgb(100%,70.588235%,12.156863%);fill-opacity:1;" d="M 2.207031 23.722656 L 13.242188 23.722656 L 13.242188 26.484375 L 2.207031 26.484375 Z M 2.207031 23.722656 "/>
<path style=" stroke:none;fill-rule:nonzero;fill:rgb(94.117647%,74.509804%,34.901961%);fill-opacity:1;" d="M 3.863281 26.484375 L 14.898438 26.484375 L 14.898438 29.242188 L 3.863281 29.242188 Z M 3.863281 26.484375 "/>
<path style=" stroke:none;fill-rule:nonzero;fill:rgb(100%,70.588235%,12.156863%);fill-opacity:1;" d="M 2.207031 29.242188 L 13.242188 29.242188 L 13.242188 32 L 2.207031 32 Z M 2.207031 29.242188 "/>
<path style=" stroke:none;fill-rule:nonzero;fill:rgb(10.980392%,78.431373%,92.156863%);fill-opacity:1;" d="M 25.378906 0.550781 L 25.378906 2.207031 L 27.585938 2.207031 L 27.585938 0.550781 C 27.585938 0.246094 27.339844 0 27.035156 0 L 25.929688 0 C 25.625 0 25.378906 0.246094 25.378906 0.550781 Z M 25.378906 0.550781 "/>
<path style=" stroke:none;fill-rule:nonzero;fill:rgb(10.980392%,78.431373%,92.156863%);fill-opacity:1;" d="M 5.515625 4.964844 L 5.515625 0 L 0 5.515625 L 4.964844 5.515625 C 5.269531 5.515625 5.515625 5.269531 5.515625 4.964844 Z M 5.515625 4.964844 "/>
<path style=" stroke:none;fill-rule:nonzero;fill:rgb(100%,70.588235%,12.156863%);fill-opacity:1;" d="M 16.550781 16 C 16.550781 18.742188 14.328125 20.964844 11.585938 20.964844 C 8.84375 20.964844 6.621094 18.742188 6.621094 16 C 6.621094 13.257812 8.84375 11.035156 11.585938 11.035156 C 14.328125 11.035156 16.550781 13.257812 16.550781 16 Z M 16.550781 16 "/>
<path style=" stroke:none;fill-rule:nonzero;fill:rgb(78.823529%,87.45098%,100%);fill-opacity:1;" d="M 24.828125 2.207031 L 28.691406 2.207031 L 28.691406 13.242188 L 24.277344 13.242188 L 24.277344 2.757812 C 24.277344 2.453125 24.523438 2.207031 24.828125 2.207031 Z M 24.828125 2.207031 "/>
<path style=" stroke:none;fill-rule:nonzero;fill:rgb(83.137255%,58.431373%,10.196078%);fill-opacity:1;" d="M 13.253906 11.328125 C 15.335938 12.722656 16.054688 15.449219 14.925781 17.6875 C 13.792969 19.925781 11.171875 20.96875 8.816406 20.121094 C 10.410156 21.199219 12.484375 21.261719 14.140625 20.273438 C 15.792969 19.289062 16.730469 17.4375 16.539062 15.519531 C 16.351562 13.601562 15.070312 11.96875 13.253906 11.328125 Z M 13.253906 11.328125 "/>
<path style=" stroke:none;fill-rule:nonzero;fill:rgb(94.117647%,81.176471%,55.686275%);fill-opacity:1;" d="M 12.136719 12.691406 L 11.035156 12.691406 L 11.035156 13.34375 C 10.273438 13.609375 9.820312 14.386719 9.957031 15.179688 C 10.09375 15.972656 10.78125 16.554688 11.585938 16.550781 C 11.890625 16.550781 12.136719 16.796875 12.136719 17.101562 C 12.136719 17.40625 11.890625 17.65625 11.585938 17.65625 L 9.929688 17.65625 L 9.929688 18.757812 L 11.035156 18.757812 L 11.035156 19.308594 L 12.136719 19.308594 L 12.136719 18.65625 C 12.898438 18.390625 13.351562 17.613281 13.21875 16.820312 C 13.082031 16.027344 12.390625 15.445312 11.585938 15.449219 C 11.28125 15.449219 11.035156 15.203125 11.035156 14.898438 C 11.035156 14.59375 11.28125 14.34375 11.585938 14.34375 L 13.242188 14.34375 L 13.242188 13.242188 L 12.136719 13.242188 Z M 12.136719 12.691406 "/>
<path style=" stroke:none;fill-rule:nonzero;fill:rgb(54.901961%,54.901961%,54.901961%);fill-opacity:1;" d="M 8.277344 3.863281 L 16.550781 3.863281 C 16.855469 3.863281 17.101562 4.109375 17.101562 4.414062 C 17.101562 4.71875 16.855469 4.964844 16.550781 4.964844 L 8.277344 4.964844 C 7.972656 4.964844 7.722656 4.71875 7.722656 4.414062 C 7.722656 4.109375 7.972656 3.863281 8.277344 3.863281 Z M 8.277344 3.863281 "/>
<path style=" stroke:none;fill-rule:nonzero;fill:rgb(54.901961%,54.901961%,54.901961%);fill-opacity:1;" d="M 2.207031 7.171875 L 19.863281 7.171875 C 20.167969 7.171875 20.414062 7.417969 20.414062 7.722656 C 20.414062 8.027344 20.167969 8.277344 19.863281 8.277344 L 2.207031 8.277344 C 1.902344 8.277344 1.65625 8.027344 1.65625 7.722656 C 1.65625 7.417969 1.902344 7.171875 2.207031 7.171875 Z M 2.207031 7.171875 "/>
<path style=" stroke:none;fill-rule:nonzero;fill:rgb(54.901961%,54.901961%,54.901961%);fill-opacity:1;" d="M 2.207031 9.378906 L 7.722656 9.378906 C 8.027344 9.378906 8.277344 9.625 8.277344 9.929688 C 8.277344 10.234375 8.027344 10.484375 7.722656 10.484375 L 2.207031 10.484375 C 1.902344 10.484375 1.65625 10.234375 1.65625 9.929688 C 1.65625 9.625 1.902344 9.378906 2.207031 9.378906 Z M 2.207031 9.378906 "/>
<path style=" stroke:none;fill-rule:nonzero;fill:rgb(54.901961%,54.901961%,54.901961%);fill-opacity:1;" d="M 16 9.378906 L 19.863281 9.378906 C 20.167969 9.378906 20.414062 9.625 20.414062 9.929688 C 20.414062 10.234375 20.167969 10.484375 19.863281 10.484375 L 16 10.484375 C 15.695312 10.484375 15.449219 10.234375 15.449219 9.929688 C 15.449219 9.625 15.695312 9.378906 16 9.378906 Z M 16 9.378906 "/>
<path style=" stroke:none;fill-rule:nonzero;fill:rgb(73.333333%,81.176471%,92.941176%);fill-opacity:1;" d="M 22.070312 13.242188 L 19.101562 13.242188 C 18.457031 13.242188 17.929688 13.765625 17.929688 14.414062 L 17.929688 30.828125 C 17.929688 31.476562 18.457031 32 19.101562 32 L 22.070312 32 Z M 22.070312 13.242188 "/>
<path style=" stroke:none;fill-rule:nonzero;fill:rgb(92.156863%,92.156863%,92.156863%);fill-opacity:1;" d="M 30.898438 14.34375 L 19.863281 14.34375 C 19.253906 14.34375 18.757812 14.839844 18.757812 15.449219 L 18.757812 30.898438 C 18.757812 31.507812 19.253906 32 19.863281 32 L 30.898438 32 C 31.507812 32 32 31.507812 32 30.898438 L 32 15.449219 C 32 14.839844 31.507812 14.34375 30.898438 14.34375 Z M 20.964844 16.550781 L 29.792969 16.550781 L 29.792969 18.757812 L 20.964844 18.757812 Z M 20.964844 16.550781 "/>
<path style=" stroke:none;fill-rule:nonzero;fill:rgb(10.980392%,78.431373%,92.156863%);fill-opacity:1;" d="M 20.964844 16.550781 L 29.792969 16.550781 L 29.792969 18.757812 L 20.964844 18.757812 Z M 20.964844 16.550781 "/>
<path style=" stroke:none;fill-rule:nonzero;fill:rgb(100%,70.588235%,12.156863%);fill-opacity:1;" d="M 32 20.414062 L 18.757812 20.414062 L 18.757812 21.515625 L 24.828125 21.515625 L 24.828125 25.929688 L 18.757812 25.929688 L 18.757812 27.035156 L 24.828125 27.035156 L 24.828125 32 L 25.929688 32 L 25.929688 27.035156 L 32 27.035156 L 32 25.929688 L 25.929688 25.929688 L 25.929688 21.515625 L 32 21.515625 Z M 32 20.414062 "/>
<path style=" stroke:none;fill-rule:nonzero;fill:rgb(54.901961%,54.901961%,54.901961%);fill-opacity:1;" d="M 21.515625 22.070312 L 21.515625 23.171875 L 20.414062 23.171875 L 20.414062 24.277344 L 21.515625 24.277344 L 21.515625 25.378906 L 22.621094 25.378906 L 22.621094 24.277344 L 23.722656 24.277344 L 23.722656 23.171875 L 22.621094 23.171875 L 22.621094 22.070312 Z M 21.515625 22.070312 "/>
<path style=" stroke:none;fill-rule:nonzero;fill:rgb(54.901961%,54.901961%,54.901961%);fill-opacity:1;" d="M 27.035156 23.171875 L 30.34375 23.171875 L 30.34375 24.277344 L 27.035156 24.277344 Z M 27.035156 23.171875 "/>
<path style=" stroke:none;fill-rule:nonzero;fill:rgb(54.901961%,54.901961%,54.901961%);fill-opacity:1;" d="M 22.847656 27.746094 L 22.070312 28.527344 L 21.289062 27.746094 L 20.507812 28.527344 L 21.289062 29.308594 L 20.507812 30.089844 L 21.289062 30.867188 L 22.070312 30.089844 L 22.847656 30.867188 L 23.628906 30.089844 L 22.847656 29.308594 L 23.628906 28.527344 Z M 22.847656 27.746094 "/>
<path style=" stroke:none;fill-rule:nonzero;fill:rgb(54.901961%,54.901961%,54.901961%);fill-opacity:1;" d="M 27.035156 28.691406 L 30.34375 28.691406 L 30.34375 29.792969 L 27.035156 29.792969 Z M 27.035156 28.691406 "/>
<path style=" stroke:none;fill-rule:nonzero;fill:rgb(54.901961%,54.901961%,54.901961%);fill-opacity:1;" d="M 28.136719 30.070312 L 29.242188 30.070312 L 29.242188 30.621094 L 28.136719 30.621094 Z M 28.136719 30.070312 "/>
<path style=" stroke:none;fill-rule:nonzero;fill:rgb(54.901961%,54.901961%,54.901961%);fill-opacity:1;" d="M 28.136719 27.863281 L 29.242188 27.863281 L 29.242188 28.414062 L 28.136719 28.414062 Z M 28.136719 27.863281 "/>
</g>
</svg>
