<?xml version="1.0" encoding="UTF-8"?>
<svg xmlns="http://www.w3.org/2000/svg" xmlns:xlink="http://www.w3.org/1999/xlink" width="32pt" height="32pt" viewBox="0 0 32 32" version="1.1">
<g id="surface1">
<path style=" stroke:none;fill-rule:nonzero;fill:rgb(28.235294%,56.862745%,82.745098%);fill-opacity:1;" d="M 28.429688 8.183594 L 15.449219 2.40625 C 15.164062 2.277344 14.835938 2.277344 14.550781 2.40625 L 1.554688 8.183594 C 1 8.429688 0.347656 8.183594 0.0976562 7.632812 C -0.152344 7.078125 0.09375 6.425781 0.648438 6.175781 L 14.097656 0.1875 C 14.671875 -0.0585938 15.320312 -0.0585938 15.890625 0.1875 L 29.328125 6.164062 C 29.882812 6.414062 30.128906 7.066406 29.882812 7.621094 C 29.636719 8.175781 28.988281 8.425781 28.429688 8.183594 Z M 28.429688 8.183594 "/>
<path style=" stroke:none;fill-rule:nonzero;fill:rgb(34.117647%,71.764706%,92.156863%);fill-opacity:1;" d="M 0.15625 7.726562 C 0.273438 7.523438 0.449219 7.367188 0.660156 7.273438 L 14.097656 1.292969 C 14.671875 1.042969 15.320312 1.042969 15.890625 1.292969 L 29.328125 7.265625 C 29.539062 7.363281 29.714844 7.519531 29.832031 7.71875 C 29.832031 7.6875 29.871094 7.660156 29.886719 7.621094 C 30.136719 7.066406 29.890625 6.414062 29.335938 6.164062 L 15.890625 0.1875 C 15.320312 -0.0585938 14.671875 -0.0585938 14.097656 0.1875 L 0.660156 6.164062 C 0.105469 6.414062 -0.140625 7.066406 0.109375 7.621094 C 0.121094 7.65625 0.136719 7.691406 0.15625 7.726562 Z M 0.15625 7.726562 "/>
<path style=" stroke:none;fill-rule:nonzero;fill:rgb(63.137255%,83.529412%,10.980392%);fill-opacity:1;" d="M 27.035156 29.242188 L 27.128906 7.605469 L 15.449219 2.40625 C 15.164062 2.277344 14.835938 2.277344 14.550781 2.40625 L 2.855469 7.605469 L 2.855469 29.242188 Z M 27.035156 29.242188 "/>
<path style=" stroke:none;fill-rule:nonzero;fill:rgb(47.843137%,72.54902%,17.647059%);fill-opacity:1;" d="M 14.542969 4.613281 C 14.832031 4.484375 15.15625 4.484375 15.445312 4.613281 L 27.125 9.804688 L 27.125 7.597656 L 15.449219 2.40625 C 15.164062 2.277344 14.835938 2.277344 14.550781 2.40625 L 2.855469 7.605469 L 2.855469 29.242188 L 27.035156 29.242188 L 27.035156 26.480469 L 19.3125 26.480469 C 12 26.480469 6.070312 20.554688 6.070312 13.242188 L 6.070312 8.382812 Z M 14.542969 4.613281 "/>
<path style=" stroke:none;fill-rule:nonzero;fill:rgb(47.843137%,72.54902%,17.647059%);fill-opacity:1;" d="M 15.542969 14.953125 L 15.542969 12.136719 L 10.027344 12.136719 L 10.027344 14.953125 C 7.199219 16.25 5.652344 19.339844 6.316406 22.382812 C 6.980469 25.421875 9.671875 27.589844 12.785156 27.589844 C 15.898438 27.589844 18.589844 25.421875 19.253906 22.382812 C 19.917969 19.339844 18.371094 16.25 15.542969 14.953125 Z M 15.542969 14.953125 "/>
<path style=" stroke:none;fill-rule:nonzero;fill:rgb(47.843137%,72.54902%,17.647059%);fill-opacity:1;" d="M 27.035156 28.6875 L 27.035156 20.964844 L 24.277344 19.863281 L 21.519531 28.6875 L 19.3125 28.6875 L 19.863281 29.242188 L 27.035156 29.242188 Z M 27.035156 28.6875 "/>
<path style=" stroke:none;fill-rule:nonzero;fill:rgb(97.647059%,88.235294%,3.529412%);fill-opacity:1;" d="M 19.957031 8.277344 C 19.957031 8.582031 19.710938 8.828125 19.40625 8.828125 C 19.101562 8.828125 18.851562 8.582031 18.851562 8.277344 C 18.851562 7.972656 19.101562 7.726562 19.40625 7.726562 C 19.710938 7.726562 19.957031 7.972656 19.957031 8.277344 Z M 19.957031 8.277344 "/>
<path style=" stroke:none;fill-rule:nonzero;fill:rgb(97.647059%,88.235294%,3.529412%);fill-opacity:1;" d="M 15.542969 8.277344 C 15.542969 8.582031 15.296875 8.828125 14.992188 8.828125 C 14.6875 8.828125 14.441406 8.582031 14.441406 8.277344 C 14.441406 7.972656 14.6875 7.726562 14.992188 7.726562 C 15.296875 7.726562 15.542969 7.972656 15.542969 8.277344 Z M 15.542969 8.277344 "/>
<path style=" stroke:none;fill-rule:nonzero;fill:rgb(97.647059%,88.235294%,3.529412%);fill-opacity:1;" d="M 17.75 6.070312 C 17.75 6.375 17.503906 6.621094 17.199219 6.621094 C 16.894531 6.621094 16.648438 6.375 16.648438 6.070312 C 16.648438 5.765625 16.894531 5.519531 17.199219 5.519531 C 17.503906 5.519531 17.75 5.765625 17.75 6.070312 Z M 17.75 6.070312 "/>
<path style=" stroke:none;fill-rule:nonzero;fill:rgb(97.647059%,88.235294%,3.529412%);fill-opacity:1;" d="M 19.3125 6.714844 C 19.3125 7.019531 19.0625 7.265625 18.757812 7.265625 C 18.453125 7.265625 18.207031 7.019531 18.207031 6.714844 C 18.207031 6.410156 18.453125 6.164062 18.757812 6.164062 C 19.0625 6.164062 19.3125 6.410156 19.3125 6.714844 Z M 19.3125 6.714844 "/>
<path style=" stroke:none;fill-rule:nonzero;fill:rgb(97.647059%,88.235294%,3.529412%);fill-opacity:1;" d="M 19.3125 9.835938 C 19.3125 10.140625 19.0625 10.390625 18.757812 10.390625 C 18.453125 10.390625 18.207031 10.140625 18.207031 9.835938 C 18.207031 9.53125 18.453125 9.285156 18.757812 9.285156 C 19.0625 9.285156 19.3125 9.53125 19.3125 9.835938 Z M 19.3125 9.835938 "/>
<path style=" stroke:none;fill-rule:nonzero;fill:rgb(97.647059%,88.235294%,3.529412%);fill-opacity:1;" d="M 16.1875 6.714844 C 16.1875 7.019531 15.941406 7.265625 15.636719 7.265625 C 15.332031 7.265625 15.085938 7.019531 15.085938 6.714844 C 15.085938 6.410156 15.332031 6.164062 15.636719 6.164062 C 15.941406 6.164062 16.1875 6.410156 16.1875 6.714844 Z M 16.1875 6.714844 "/>
<path style=" stroke:none;fill-rule:nonzero;fill:rgb(98.823529%,73.72549%,1.568627%);fill-opacity:1;" d="M 14.992188 12.136719 C 14.6875 12.136719 14.441406 11.890625 14.441406 11.585938 L 14.441406 10.484375 C 14.441406 9.570312 15.179688 8.828125 16.09375 8.828125 C 16.398438 8.828125 16.648438 8.582031 16.648438 8.277344 C 16.648438 7.972656 16.894531 7.726562 17.199219 7.726562 C 17.503906 7.726562 17.75 7.972656 17.75 8.277344 C 17.75 9.191406 17.007812 9.929688 16.09375 9.929688 C 15.789062 9.929688 15.542969 10.179688 15.542969 10.484375 L 15.542969 11.585938 C 15.542969 11.890625 15.296875 12.136719 14.992188 12.136719 Z M 14.992188 12.136719 "/>
<path style=" stroke:none;fill-rule:nonzero;fill:rgb(28.235294%,56.862745%,82.745098%);fill-opacity:1;" d="M 17.75 14.398438 L 17.75 11.585938 L 12.234375 11.585938 L 12.234375 14.398438 C 9.402344 15.695312 7.859375 18.789062 8.523438 21.828125 C 9.1875 24.871094 11.878906 27.039062 14.992188 27.039062 C 18.105469 27.039062 20.796875 24.871094 21.460938 21.828125 C 22.125 18.789062 20.578125 15.695312 17.75 14.398438 Z M 17.75 14.398438 "/>
<path style=" stroke:none;fill-rule:nonzero;fill:rgb(34.117647%,71.764706%,92.156863%);fill-opacity:1;" d="M 17.75 11.585938 L 12.4375 11.585938 C 13.0625 12.285156 13.957031 12.6875 14.898438 12.691406 L 17.75 12.691406 Z M 17.75 11.585938 "/>
<path style=" stroke:none;fill-rule:nonzero;fill:rgb(17.647059%,44.705882%,73.72549%);fill-opacity:1;" d="M 17.933594 25.378906 C 15.957031 25.378906 14.0625 24.597656 12.664062 23.199219 C 11.265625 21.800781 10.484375 19.90625 10.484375 17.929688 C 10.480469 16.964844 10.667969 16.007812 11.035156 15.113281 C 9.027344 16.570312 8.003906 19.03125 8.382812 21.484375 C 8.761719 23.9375 10.484375 25.972656 12.839844 26.753906 C 15.199219 27.535156 17.792969 26.933594 19.566406 25.191406 C 19.03125 25.316406 18.480469 25.378906 17.933594 25.378906 Z M 17.933594 25.378906 "/>
<path style=" stroke:none;fill-rule:nonzero;fill:rgb(34.117647%,71.764706%,92.156863%);fill-opacity:1;" d="M 19.3125 17.101562 C 19.3125 17.710938 18.816406 18.207031 18.207031 18.207031 C 17.597656 18.207031 17.105469 17.710938 17.105469 17.101562 C 17.105469 16.492188 17.597656 16 18.207031 16 C 18.816406 16 19.3125 16.492188 19.3125 17.101562 Z M 19.3125 17.101562 "/>
<path style=" stroke:none;fill-rule:nonzero;fill:rgb(97.647059%,88.235294%,3.529412%);fill-opacity:1;" d="M 14.992188 20.230469 C 14.535156 20.230469 14.164062 19.859375 14.164062 19.402344 C 14.164062 18.945312 14.535156 18.578125 14.992188 18.578125 C 15.449219 18.578125 15.820312 18.945312 15.820312 19.402344 C 15.820312 19.707031 16.066406 19.957031 16.371094 19.957031 C 16.675781 19.957031 16.921875 19.707031 16.921875 19.402344 C 16.921875 18.550781 16.359375 17.804688 15.542969 17.5625 L 15.542969 16.921875 C 15.542969 16.617188 15.296875 16.371094 14.992188 16.371094 C 14.6875 16.371094 14.441406 16.617188 14.441406 16.921875 L 14.441406 17.5625 C 13.519531 17.832031 12.9375 18.738281 13.074219 19.6875 C 13.214844 20.636719 14.03125 21.339844 14.992188 21.335938 C 15.449219 21.335938 15.820312 21.707031 15.820312 22.164062 C 15.820312 22.621094 15.449219 22.988281 14.992188 22.988281 C 14.535156 22.988281 14.164062 22.621094 14.164062 22.164062 C 14.164062 21.859375 13.917969 21.609375 13.613281 21.609375 C 13.308594 21.609375 13.0625 21.859375 13.0625 22.164062 C 13.0625 23.011719 13.625 23.761719 14.441406 24 L 14.441406 24.644531 C 14.441406 24.949219 14.6875 25.195312 14.992188 25.195312 C 15.296875 25.195312 15.542969 24.949219 15.542969 24.644531 L 15.542969 24 C 16.457031 23.722656 17.027344 22.820312 16.890625 21.878906 C 16.753906 20.933594 15.945312 20.234375 14.992188 20.230469 Z M 14.992188 20.230469 "/>
<path style=" stroke:none;fill-rule:nonzero;fill:rgb(97.647059%,88.235294%,3.529412%);fill-opacity:1;" d="M 24.277344 19.308594 L 24.277344 27.035156 L 22.070312 27.035156 L 27.035156 32 L 32 27.035156 L 29.792969 27.035156 L 29.792969 19.308594 "/>
<path style=" stroke:none;fill-rule:nonzero;fill:rgb(98.823529%,73.72549%,1.568627%);fill-opacity:1;" d="M 27.035156 19.308594 L 24.277344 19.308594 L 24.277344 27.035156 L 22.070312 27.035156 L 27.035156 32 L 28.972656 30.0625 C 27.730469 28.820312 27.035156 27.136719 27.035156 25.378906 Z M 27.035156 19.308594 "/>
</g>
</svg>
