<?xml version="1.0" encoding="UTF-8"?>
<svg xmlns="http://www.w3.org/2000/svg" xmlns:xlink="http://www.w3.org/1999/xlink" width="32pt" height="32pt" viewBox="0 0 32 32" version="1.1">
<g id="surface1">
<path style=" stroke:none;fill-rule:nonzero;fill:rgb(87.843137%,92.156863%,98.823529%);fill-opacity:1;" d="M 6.746094 22.253906 L 12.753906 28.722656 L 27.410156 28.722656 C 27.941406 28.722656 28.371094 28.257812 28.371094 27.6875 L 28.371094 1.296875 C 28.371094 0.726562 27.941406 0.261719 27.410156 0.261719 L 7.707031 0.261719 C 7.175781 0.261719 6.746094 0.726562 6.746094 1.296875 Z M 6.746094 22.253906 "/>
<path style=" stroke:none;fill-rule:nonzero;fill:rgb(21.568627%,38.431373%,80%);fill-opacity:1;" d="M 27.410156 28.984375 L 12.753906 28.984375 C 12.679688 28.984375 12.609375 28.953125 12.558594 28.898438 L 6.550781 22.433594 C 6.507812 22.382812 6.480469 22.320312 6.480469 22.253906 L 6.480469 1.296875 C 6.480469 0.582031 7.03125 0 7.707031 0 L 27.410156 0 C 28.085938 0 28.636719 0.582031 28.636719 1.296875 L 28.636719 27.6875 C 28.636719 28.402344 28.085938 28.984375 27.410156 28.984375 Z M 12.867188 28.460938 L 27.410156 28.460938 C 27.796875 28.460938 28.109375 28.113281 28.109375 27.6875 L 28.109375 1.296875 C 28.109375 0.871094 27.796875 0.523438 27.410156 0.523438 L 7.707031 0.523438 C 7.320312 0.523438 7.007812 0.871094 7.007812 1.296875 L 7.007812 22.148438 Z M 12.867188 28.460938 "/>
<path style=" stroke:none;fill-rule:nonzero;fill:rgb(72.54902%,74.509804%,98.823529%);fill-opacity:1;" d="M 19.59375 3.976562 L 8.734375 3.976562 C 8.445312 3.976562 8.210938 3.742188 8.210938 3.453125 C 8.210938 3.164062 8.445312 2.925781 8.734375 2.925781 L 19.59375 2.925781 C 19.882812 2.925781 20.117188 3.164062 20.117188 3.453125 C 20.117188 3.742188 19.882812 3.976562 19.59375 3.976562 Z M 19.59375 3.976562 "/>
<path style=" stroke:none;fill-rule:nonzero;fill:rgb(72.54902%,74.509804%,98.823529%);fill-opacity:1;" d="M 26.042969 6.671875 L 8.734375 6.671875 C 8.445312 6.671875 8.210938 6.4375 8.210938 6.148438 C 8.210938 5.859375 8.445312 5.625 8.734375 5.625 L 26.042969 5.625 C 26.332031 5.625 26.566406 5.859375 26.566406 6.148438 C 26.566406 6.4375 26.332031 6.671875 26.042969 6.671875 Z M 26.042969 6.671875 "/>
<path style=" stroke:none;fill-rule:nonzero;fill:rgb(97.647059%,81.176471%,81.176471%);fill-opacity:1;" d="M 11.925781 11.917969 L 9.007812 11.917969 C 8.855469 11.917969 8.734375 11.796875 8.734375 11.644531 L 8.734375 8.726562 C 8.734375 8.578125 8.855469 8.457031 9.007812 8.457031 L 11.925781 8.457031 C 12.074219 8.457031 12.195312 8.578125 12.195312 8.726562 L 12.195312 11.644531 C 12.195312 11.796875 12.074219 11.917969 11.925781 11.917969 Z M 11.925781 11.917969 "/>
<path style=" stroke:none;fill-rule:nonzero;fill:rgb(72.54902%,74.509804%,98.823529%);fill-opacity:1;" d="M 26.042969 10.710938 L 13.894531 10.710938 C 13.605469 10.710938 13.367188 10.476562 13.367188 10.1875 C 13.367188 9.898438 13.605469 9.660156 13.894531 9.660156 L 26.042969 9.660156 C 26.332031 9.660156 26.566406 9.898438 26.566406 10.1875 C 26.566406 10.476562 26.332031 10.710938 26.042969 10.710938 Z M 26.042969 10.710938 "/>
<path style=" stroke:none;fill-rule:nonzero;fill:rgb(97.647059%,81.176471%,81.176471%);fill-opacity:1;" d="M 11.925781 17.085938 L 9.007812 17.085938 C 8.855469 17.085938 8.734375 16.960938 8.734375 16.8125 L 8.734375 13.894531 C 8.734375 13.746094 8.855469 13.621094 9.007812 13.621094 L 11.925781 13.621094 C 12.074219 13.621094 12.195312 13.746094 12.195312 13.894531 L 12.195312 16.8125 C 12.195312 16.960938 12.074219 17.085938 11.925781 17.085938 Z M 11.925781 17.085938 "/>
<path style=" stroke:none;fill-rule:nonzero;fill:rgb(72.54902%,74.509804%,98.823529%);fill-opacity:1;" d="M 26.042969 15.878906 L 13.894531 15.878906 C 13.605469 15.878906 13.367188 15.644531 13.367188 15.351562 C 13.367188 15.0625 13.605469 14.828125 13.894531 14.828125 L 26.042969 14.828125 C 26.332031 14.828125 26.566406 15.0625 26.566406 15.351562 C 26.566406 15.644531 26.332031 15.878906 26.042969 15.878906 Z M 26.042969 15.878906 "/>
<path style=" stroke:none;fill-rule:nonzero;fill:rgb(97.647059%,81.176471%,81.176471%);fill-opacity:1;" d="M 11.925781 22.511719 L 9.007812 22.511719 C 8.855469 22.511719 8.734375 22.390625 8.734375 22.242188 L 8.734375 19.324219 C 8.734375 19.175781 8.855469 19.050781 9.007812 19.050781 L 11.925781 19.050781 C 12.074219 19.050781 12.195312 19.175781 12.195312 19.324219 L 12.195312 22.242188 C 12.195312 22.390625 12.074219 22.511719 11.925781 22.511719 Z M 11.925781 22.511719 "/>
<path style=" stroke:none;fill-rule:nonzero;fill:rgb(72.54902%,74.509804%,98.823529%);fill-opacity:1;" d="M 26.042969 21.308594 L 13.894531 21.308594 C 13.605469 21.308594 13.367188 21.074219 13.367188 20.78125 C 13.367188 20.492188 13.605469 20.257812 13.894531 20.257812 L 26.042969 20.257812 C 26.332031 20.257812 26.566406 20.492188 26.566406 20.78125 C 26.566406 21.074219 26.332031 21.308594 26.042969 21.308594 Z M 26.042969 21.308594 "/>
<path style=" stroke:none;fill-rule:nonzero;fill:rgb(72.54902%,74.509804%,98.823529%);fill-opacity:1;" d="M 26.042969 25.390625 L 13.894531 25.390625 C 13.605469 25.390625 13.367188 25.152344 13.367188 24.863281 C 13.367188 24.574219 13.605469 24.339844 13.894531 24.339844 L 26.042969 24.339844 C 26.332031 24.339844 26.566406 24.574219 26.566406 24.863281 C 26.566406 25.152344 26.332031 25.390625 26.042969 25.390625 Z M 26.042969 25.390625 "/>
<path style=" stroke:none;fill-rule:nonzero;fill:rgb(64.313725%,78.823529%,100%);fill-opacity:1;" d="M 2.300781 22.300781 L 4.410156 22.300781 C 4.691406 22.300781 4.917969 22.074219 4.917969 21.792969 L 4.917969 3.910156 L 1.792969 3.910156 L 1.792969 21.792969 C 1.792969 22.074219 2.019531 22.300781 2.300781 22.300781 Z M 2.300781 22.300781 "/>
<path style=" stroke:none;fill-rule:nonzero;fill:rgb(87.843137%,92.156863%,98.823529%);fill-opacity:1;" d="M 4.917969 3.910156 L 3.550781 0.417969 C 3.46875 0.210938 3.242188 0.210938 3.160156 0.417969 L 1.792969 3.910156 Z M 4.917969 3.910156 "/>
<path style=" stroke:none;fill-rule:nonzero;fill:rgb(97.647059%,65.490196%,65.490196%);fill-opacity:1;" d="M 4.917969 5.558594 L 1.792969 5.558594 L 1.792969 3.910156 L 4.917969 3.910156 Z M 4.917969 5.558594 "/>
<path style=" stroke:none;fill-rule:nonzero;fill:rgb(64.313725%,78.823529%,100%);fill-opacity:1;" d="M 1.179688 18.402344 L 1.179688 10.292969 C 1.179688 10.050781 0.988281 9.855469 0.753906 9.855469 C 0.519531 9.855469 0.328125 10.050781 0.328125 10.292969 L 0.328125 19.847656 C 0.328125 20.335938 0.710938 20.730469 1.179688 20.730469 L 1.792969 20.730469 L 1.792969 18.402344 Z M 1.179688 18.402344 "/>
<path style=" stroke:none;fill-rule:nonzero;fill:rgb(27.45098%,44.313725%,77.647059%);fill-opacity:1;" d="M 3.550781 0.417969 L 3.957031 1.457031 L 2.753906 1.457031 L 3.160156 0.417969 C 3.242188 0.210938 3.46875 0.210938 3.550781 0.417969 Z M 3.550781 0.417969 "/>
<path style=" stroke:none;fill-rule:nonzero;fill:rgb(21.568627%,38.431373%,80%);fill-opacity:1;" d="M 4.410156 22.5625 L 2.300781 22.5625 C 1.875 22.5625 1.53125 22.21875 1.53125 21.792969 L 1.53125 3.910156 C 1.53125 3.765625 1.648438 3.648438 1.792969 3.648438 L 4.917969 3.648438 C 5.0625 3.648438 5.179688 3.765625 5.179688 3.910156 L 5.179688 21.792969 C 5.179688 22.21875 4.835938 22.5625 4.410156 22.5625 Z M 2.054688 4.171875 L 2.054688 21.792969 C 2.054688 21.929688 2.164062 22.039062 2.300781 22.039062 L 4.410156 22.039062 C 4.546875 22.039062 4.65625 21.929688 4.65625 21.792969 L 4.65625 4.171875 Z M 2.054688 4.171875 "/>
<path style=" stroke:none;fill-rule:nonzero;fill:rgb(21.568627%,38.431373%,80%);fill-opacity:1;" d="M 4.917969 4.171875 L 1.792969 4.171875 C 1.707031 4.171875 1.625 4.128906 1.578125 4.058594 C 1.527344 3.988281 1.515625 3.894531 1.550781 3.816406 L 2.917969 0.324219 C 2.996094 0.125 3.164062 0 3.355469 0 C 3.546875 0 3.714844 0.125 3.792969 0.324219 L 5.164062 3.816406 C 5.195312 3.894531 5.183594 3.988281 5.132812 4.058594 C 5.085938 4.128906 5.003906 4.171875 4.917969 4.171875 Z M 2.179688 3.648438 L 4.535156 3.648438 L 3.355469 0.644531 Z M 2.179688 3.648438 "/>
<path style=" stroke:none;fill-rule:nonzero;fill:rgb(21.568627%,38.431373%,80%);fill-opacity:1;" d="M 1.792969 20.992188 L 1.179688 20.992188 C 0.566406 20.992188 0.0664062 20.480469 0.0664062 19.847656 L 0.0664062 10.292969 C 0.0664062 9.90625 0.375 9.589844 0.753906 9.589844 C 1.132812 9.589844 1.441406 9.90625 1.441406 10.292969 L 1.441406 18.140625 L 1.792969 18.140625 C 1.9375 18.140625 2.054688 18.257812 2.054688 18.402344 L 2.054688 20.730469 C 2.054688 20.875 1.9375 20.992188 1.792969 20.992188 Z M 0.753906 10.117188 C 0.664062 10.117188 0.589844 10.195312 0.589844 10.292969 L 0.589844 19.847656 C 0.589844 20.191406 0.855469 20.46875 1.179688 20.46875 L 1.53125 20.46875 L 1.53125 18.664062 L 1.179688 18.664062 C 1.035156 18.664062 0.917969 18.546875 0.917969 18.402344 L 0.917969 10.292969 C 0.917969 10.195312 0.84375 10.117188 0.753906 10.117188 Z M 0.753906 10.117188 "/>
<path style=" stroke:none;fill-rule:nonzero;fill:rgb(97.647059%,65.490196%,65.490196%);fill-opacity:1;" d="M 4.417969 22.300781 L 2.292969 22.300781 C 2.265625 22.300781 2.242188 22.296875 2.214844 22.292969 L 2.214844 23.289062 C 2.214844 23.941406 2.726562 24.46875 3.355469 24.46875 C 3.984375 24.46875 4.496094 23.941406 4.496094 23.289062 L 4.496094 22.292969 C 4.472656 22.296875 4.445312 22.300781 4.417969 22.300781 Z M 4.417969 22.300781 "/>
<path style=" stroke:none;fill-rule:nonzero;fill:rgb(21.568627%,38.431373%,80%);fill-opacity:1;" d="M 3.355469 24.734375 C 2.582031 24.734375 1.953125 24.085938 1.953125 23.289062 L 1.953125 22.292969 C 1.953125 22.214844 1.988281 22.140625 2.046875 22.09375 C 2.101562 22.042969 2.179688 22.019531 2.257812 22.035156 C 2.269531 22.035156 2.28125 22.039062 2.292969 22.039062 L 4.417969 22.039062 C 4.429688 22.039062 4.441406 22.035156 4.453125 22.035156 C 4.53125 22.019531 4.609375 22.042969 4.667969 22.09375 C 4.726562 22.140625 4.757812 22.214844 4.757812 22.292969 L 4.757812 23.289062 C 4.757812 24.085938 4.128906 24.734375 3.355469 24.734375 Z M 2.476562 22.5625 L 2.476562 23.289062 C 2.476562 23.796875 2.871094 24.207031 3.355469 24.207031 C 3.839844 24.207031 4.234375 23.796875 4.234375 23.289062 L 4.234375 22.5625 Z M 2.476562 22.5625 "/>
<path style=" stroke:none;fill-rule:nonzero;fill:rgb(41.960784%,86.666667%,86.666667%);fill-opacity:1;" d="M 30.050781 31.738281 L 22.707031 31.738281 C 21.835938 31.738281 21.132812 31.03125 21.132812 30.164062 L 21.132812 22.820312 C 21.132812 21.949219 21.835938 21.246094 22.707031 21.246094 L 30.050781 21.246094 C 30.917969 21.246094 31.625 21.949219 31.625 22.820312 L 31.625 30.164062 C 31.625 31.03125 30.917969 31.738281 30.050781 31.738281 Z M 30.050781 31.738281 "/>
<path style=" stroke:none;fill-rule:nonzero;fill:rgb(100%,91.764706%,58.039216%);fill-opacity:1;" d="M 22.707031 29.378906 L 22.707031 23.605469 C 22.707031 23.171875 23.058594 22.820312 23.492188 22.820312 L 29.261719 22.820312 C 29.699219 22.820312 30.050781 23.171875 30.050781 23.605469 L 30.050781 29.378906 C 30.050781 29.8125 29.699219 30.164062 29.261719 30.164062 L 23.492188 30.164062 C 23.058594 30.164062 22.707031 29.8125 22.707031 29.378906 Z M 22.707031 29.378906 "/>
<path style=" stroke:none;fill-rule:nonzero;fill:rgb(97.647059%,65.490196%,65.490196%);fill-opacity:1;" d="M 25.75 29.269531 C 25.484375 29.269531 25.238281 29.148438 25.074219 28.933594 L 23.125 26.390625 C 22.925781 26.132812 22.972656 25.761719 23.230469 25.566406 C 23.492188 25.367188 23.859375 25.414062 24.058594 25.671875 L 25.746094 27.871094 L 28.820312 23.683594 C 29.015625 23.421875 29.382812 23.363281 29.644531 23.558594 C 29.910156 23.75 29.964844 24.121094 29.773438 24.382812 L 26.4375 28.921875 C 26.277344 29.136719 26.03125 29.265625 25.761719 29.269531 C 25.757812 29.269531 25.753906 29.269531 25.75 29.269531 Z M 25.75 29.269531 "/>
<path style=" stroke:none;fill-rule:nonzero;fill:rgb(64.313725%,78.823529%,100%);fill-opacity:1;" d="M 6.746094 22.253906 L 12.03125 22.253906 C 12.429688 22.253906 12.753906 22.601562 12.753906 23.03125 L 12.753906 28.722656 Z M 6.746094 22.253906 "/>
<path style=" stroke:none;fill-rule:nonzero;fill:rgb(21.568627%,38.431373%,80%);fill-opacity:1;" d="M 12.753906 28.984375 C 12.679688 28.984375 12.609375 28.953125 12.558594 28.898438 L 6.550781 22.433594 C 6.480469 22.355469 6.460938 22.242188 6.503906 22.148438 C 6.546875 22.054688 6.640625 21.992188 6.742188 21.992188 L 12.03125 21.992188 C 12.574219 21.992188 13.015625 22.457031 13.015625 23.03125 L 13.015625 28.722656 C 13.015625 28.828125 12.949219 28.925781 12.847656 28.964844 C 12.816406 28.976562 12.785156 28.984375 12.753906 28.984375 Z M 7.347656 22.515625 L 12.488281 28.054688 L 12.488281 23.03125 C 12.488281 22.746094 12.285156 22.515625 12.03125 22.515625 Z M 7.347656 22.515625 "/>
<path style=" stroke:none;fill-rule:nonzero;fill:rgb(21.568627%,38.431373%,80%);fill-opacity:1;" d="M 30.050781 32 L 22.707031 32 C 21.695312 32 20.871094 31.175781 20.871094 30.164062 L 20.871094 22.820312 C 20.871094 21.808594 21.695312 20.984375 22.707031 20.984375 L 30.050781 20.984375 C 31.0625 20.984375 31.886719 21.808594 31.886719 22.820312 L 31.886719 30.164062 C 31.886719 31.175781 31.0625 32 30.050781 32 Z M 22.707031 21.507812 C 21.984375 21.507812 21.394531 22.097656 21.394531 22.820312 L 21.394531 30.164062 C 21.394531 30.886719 21.984375 31.476562 22.707031 31.476562 L 30.050781 31.476562 C 30.773438 31.476562 31.363281 30.886719 31.363281 30.164062 L 31.363281 22.820312 C 31.363281 22.097656 30.773438 21.507812 30.050781 21.507812 Z M 22.707031 21.507812 "/>
</g>
</svg>
