<?xml version="1.0" encoding="UTF-8"?>
<svg xmlns="http://www.w3.org/2000/svg" xmlns:xlink="http://www.w3.org/1999/xlink" width="32pt" height="32pt" viewBox="0 0 32 32" version="1.1">
<g id="surface1">
<path style=" stroke:none;fill-rule:nonzero;fill:rgb(87.843137%,95.686275%,99.607843%);fill-opacity:1;" d="M 25.203125 32 L 6.8125 32 L 6.8125 3.914062 L 25.203125 3.914062 Z M 25.203125 32 "/>
<path style=" stroke:none;fill-rule:nonzero;fill:rgb(73.72549%,85.882353%,99.215686%);fill-opacity:1;" d="M 16.007812 3.914062 L 25.203125 3.914062 L 25.203125 32 L 16.007812 32 Z M 16.007812 3.914062 "/>
<path style=" stroke:none;fill-rule:nonzero;fill:rgb(99.607843%,84.705882%,26.27451%);fill-opacity:1;" d="M 6.8125 3.914062 L 25.203125 3.914062 L 25.203125 11.734375 L 6.8125 11.734375 Z M 6.8125 3.914062 "/>
<path style=" stroke:none;fill-rule:nonzero;fill:rgb(98.039216%,13.72549%,36.862745%);fill-opacity:1;" d="M 19.804688 15.441406 L 21.6875 15.441406 L 21.6875 17.316406 L 19.804688 17.316406 Z M 19.804688 15.441406 "/>
<path style=" stroke:none;fill-rule:nonzero;fill:rgb(59.215686%,87.058824%,23.921569%);fill-opacity:1;" d="M 10.328125 15.441406 L 18.042969 15.441406 L 18.042969 17.316406 L 10.328125 17.316406 Z M 10.328125 15.441406 "/>
<path style=" stroke:none;fill-rule:nonzero;fill:rgb(98.039216%,13.72549%,36.862745%);fill-opacity:1;" d="M 19.804688 19.074219 L 21.6875 19.074219 L 21.6875 20.953125 L 19.804688 20.953125 Z M 19.804688 19.074219 "/>
<path style=" stroke:none;fill-rule:nonzero;fill:rgb(59.215686%,87.058824%,23.921569%);fill-opacity:1;" d="M 10.328125 19.074219 L 18.042969 19.074219 L 18.042969 20.953125 L 10.328125 20.953125 Z M 10.328125 19.074219 "/>
<path style=" stroke:none;fill-rule:nonzero;fill:rgb(98.039216%,13.72549%,36.862745%);fill-opacity:1;" d="M 19.804688 22.710938 L 21.6875 22.710938 L 21.6875 24.585938 L 19.804688 24.585938 Z M 19.804688 22.710938 "/>
<path style=" stroke:none;fill-rule:nonzero;fill:rgb(59.215686%,87.058824%,23.921569%);fill-opacity:1;" d="M 10.328125 22.710938 L 18.042969 22.710938 L 18.042969 24.585938 L 10.328125 24.585938 Z M 10.328125 22.710938 "/>
<path style=" stroke:none;fill-rule:nonzero;fill:rgb(98.039216%,13.72549%,36.862745%);fill-opacity:1;" d="M 19.804688 26.34375 L 21.6875 26.34375 L 21.6875 28.21875 L 19.804688 28.21875 Z M 19.804688 26.34375 "/>
<path style=" stroke:none;fill-rule:nonzero;fill:rgb(59.215686%,87.058824%,23.921569%);fill-opacity:1;" d="M 10.328125 26.34375 L 18.042969 26.34375 L 18.042969 28.21875 L 10.328125 28.21875 Z M 10.328125 26.34375 "/>
<path style=" stroke:none;fill-rule:nonzero;fill:rgb(87.843137%,95.686275%,99.607843%);fill-opacity:1;" d="M 6.8125 3.914062 L 16.007812 0 L 16.007812 3.914062 Z M 6.8125 3.914062 "/>
<path style=" stroke:none;fill-rule:nonzero;fill:rgb(98.039216%,13.72549%,36.862745%);fill-opacity:1;" d="M 19.804688 15.441406 L 21.6875 15.441406 L 21.6875 17.316406 L 19.804688 17.316406 Z M 19.804688 15.441406 "/>
<path style=" stroke:none;fill-rule:nonzero;fill:rgb(98.039216%,13.72549%,36.862745%);fill-opacity:1;" d="M 19.804688 19.074219 L 21.6875 19.074219 L 21.6875 20.953125 L 19.804688 20.953125 Z M 19.804688 19.074219 "/>
<path style=" stroke:none;fill-rule:nonzero;fill:rgb(98.039216%,13.72549%,36.862745%);fill-opacity:1;" d="M 19.804688 22.710938 L 21.6875 22.710938 L 21.6875 24.585938 L 19.804688 24.585938 Z M 19.804688 22.710938 "/>
<path style=" stroke:none;fill-rule:nonzero;fill:rgb(98.039216%,13.72549%,36.862745%);fill-opacity:1;" d="M 19.804688 26.34375 L 21.6875 26.34375 L 21.6875 28.21875 L 19.804688 28.21875 Z M 19.804688 26.34375 "/>
<path style=" stroke:none;fill-rule:nonzero;fill:rgb(92.941176%,74.509804%,16.862745%);fill-opacity:1;" d="M 16.007812 3.914062 L 25.203125 3.914062 L 25.203125 11.734375 L 16.007812 11.734375 Z M 16.007812 3.914062 "/>
<path style=" stroke:none;fill-rule:nonzero;fill:rgb(34.901961%,76.470588%,41.568627%);fill-opacity:1;" d="M 16.007812 15.441406 L 18.042969 15.441406 L 18.042969 17.316406 L 16.007812 17.316406 Z M 16.007812 15.441406 "/>
<path style=" stroke:none;fill-rule:nonzero;fill:rgb(34.901961%,76.470588%,41.568627%);fill-opacity:1;" d="M 16.007812 19.074219 L 18.042969 19.074219 L 18.042969 20.953125 L 16.007812 20.953125 Z M 16.007812 19.074219 "/>
<path style=" stroke:none;fill-rule:nonzero;fill:rgb(34.901961%,76.470588%,41.568627%);fill-opacity:1;" d="M 16.007812 22.710938 L 18.042969 22.710938 L 18.042969 24.585938 L 16.007812 24.585938 Z M 16.007812 22.710938 "/>
<path style=" stroke:none;fill-rule:nonzero;fill:rgb(34.901961%,76.470588%,41.568627%);fill-opacity:1;" d="M 16.007812 26.34375 L 18.042969 26.34375 L 18.042969 28.21875 L 16.007812 28.21875 Z M 16.007812 26.34375 "/>
<path style=" stroke:none;fill-rule:nonzero;fill:rgb(0%,84.313725%,87.45098%);fill-opacity:1;" d="M 10.171875 7.339844 L 21.664062 7.339844 L 21.664062 9.214844 L 10.171875 9.214844 Z M 10.171875 7.339844 "/>
<path style=" stroke:none;fill-rule:nonzero;fill:rgb(0%,66.666667%,87.45098%);fill-opacity:1;" d="M 16.007812 7.339844 L 21.664062 7.339844 L 21.664062 9.214844 L 16.007812 9.214844 Z M 16.007812 7.339844 "/>
</g>
</svg>
