<?xml version="1.0" encoding="UTF-8"?>
<svg xmlns="http://www.w3.org/2000/svg" xmlns:xlink="http://www.w3.org/1999/xlink" width="40pt" height="40pt" viewBox="0 0 40 40" version="1.1">
<g id="surface1">
<path style=" stroke:none;fill-rule:nonzero;fill:rgb(52.54902%,59.215686%,79.607843%);fill-opacity:1;" d="M 36.152344 29.984375 L 29.703125 26.757812 C 28.871094 26.34375 28.34375 25.492188 28.34375 24.558594 L 28.34375 22.03125 C 28.527344 21.824219 28.734375 21.558594 28.953125 21.246094 C 29.832031 20.007812 30.496094 18.640625 30.957031 17.207031 C 31.785156 16.953125 32.394531 16.191406 32.394531 15.28125 L 32.394531 12.582031 C 32.394531 11.988281 32.128906 11.457031 31.71875 11.085938 L 31.71875 7.183594 C 31.71875 7.183594 32.519531 1.109375 24.296875 1.109375 C 16.070312 1.109375 16.871094 7.183594 16.871094 7.183594 L 16.871094 11.085938 C 16.460938 11.457031 16.195312 11.988281 16.195312 12.582031 L 16.195312 15.28125 C 16.195312 15.992188 16.570312 16.617188 17.128906 16.980469 C 17.804688 19.917969 19.570312 22.03125 19.570312 22.03125 L 19.570312 24.496094 C 19.570312 25.398438 19.082031 26.226562 18.289062 26.65625 L 12.269531 29.941406 C 10.53125 30.890625 9.449219 32.710938 9.449219 34.691406 L 9.449219 36.878906 L 39.144531 36.878906 L 39.144531 34.824219 C 39.144531 32.773438 37.984375 30.898438 36.152344 29.984375 Z M 36.152344 29.984375 "/>
<path style=" stroke:none;fill-rule:nonzero;fill:rgb(33.333333%,37.647059%,50.196078%);fill-opacity:1;" d="M 12.269531 29.941406 L 16.28125 27.75 C 16.257812 27.730469 16.277344 27.722656 16.324219 27.726562 L 18.289062 26.65625 C 19.082031 26.226562 19.570312 25.398438 19.570312 24.496094 L 19.570312 22.03125 C 19.570312 22.03125 18.855469 21.171875 18.160156 19.789062 C 18.160156 19.789062 18.160156 19.785156 18.160156 19.785156 C 18.066406 19.605469 17.976562 19.414062 17.890625 19.214844 C 17.878906 19.1875 17.867188 19.164062 17.851562 19.136719 C 17.761719 18.929688 17.675781 18.71875 17.59375 18.496094 C 17.585938 18.484375 17.582031 18.46875 17.578125 18.453125 C 17.503906 18.257812 17.4375 18.054688 17.371094 17.847656 C 17.351562 17.792969 17.335938 17.738281 17.320312 17.679688 C 17.25 17.453125 17.1875 17.21875 17.132812 16.980469 C 16.570312 16.621094 16.195312 15.992188 16.195312 15.28125 L 16.195312 12.582031 C 16.195312 11.988281 16.460938 11.457031 16.871094 11.085938 L 16.871094 7.273438 C 15.917969 6.535156 14.441406 5.832031 12.148438 5.832031 C 5.695312 5.832031 5.398438 11.234375 5.398438 11.234375 L 5.398438 14.605469 C 5.042969 14.925781 4.722656 15.382812 4.722656 15.894531 L 4.722656 18.226562 C 4.722656 18.84375 5.046875 19.382812 5.53125 19.695312 C 6.113281 22.230469 8.066406 24.054688 8.066406 24.054688 L 8.066406 26.1875 C 8.066406 26.964844 7.644531 27.679688 6.960938 28.050781 L 2.4375 30.886719 C 0.933594 31.707031 0 33.28125 0 34.992188 L 0 36.878906 L 9.449219 36.878906 L 9.449219 34.691406 C 9.449219 32.710938 10.53125 30.890625 12.269531 29.941406 Z M 12.269531 29.941406 "/>
<path style=" stroke:none;fill-rule:nonzero;fill:rgb(92.941176%,86.27451%,78.039216%);fill-opacity:1;" d="M 25.535156 32.484375 L 25.527344 32.488281 L 24.1875 37.410156 L 27.324219 34.273438 Z M 25.535156 32.484375 "/>
<path style=" stroke:none;fill-rule:nonzero;fill:rgb(84.313725%,35.294118%,29.019608%);fill-opacity:1;" d="M 38.527344 23.070312 L 37.683594 22.226562 C 37.160156 21.707031 36.3125 21.707031 35.789062 22.226562 L 33.371094 24.644531 L 35.160156 26.433594 Z M 38.527344 23.070312 "/>
<path style=" stroke:none;fill-rule:nonzero;fill:rgb(94.901961%,61.176471%,12.941176%);fill-opacity:1;" d="M 33.371094 24.644531 L 35.160156 26.433594 L 27.324219 34.273438 L 25.535156 32.484375 Z M 33.371094 24.644531 "/>
<path style=" stroke:none;fill-rule:nonzero;fill:rgb(83.921569%,76.862745%,69.411765%);fill-opacity:1;" d="M 29.347656 36.304688 L 29.351562 36.300781 L 27.324219 34.273438 L 24.1875 37.410156 L 24.097656 37.738281 Z M 29.347656 36.304688 "/>
<path style=" stroke:none;fill-rule:nonzero;fill:rgb(63.921569%,27.843137%,25.098039%);fill-opacity:1;" d="M 37.191406 28.464844 L 39.609375 26.046875 C 40.132812 25.523438 40.132812 24.675781 39.609375 24.152344 L 38.527344 23.070312 L 35.160156 26.433594 Z M 37.191406 28.464844 "/>
<path style=" stroke:none;fill-rule:nonzero;fill:rgb(88.235294%,54.901961%,14.509804%);fill-opacity:1;" d="M 29.351562 36.300781 L 27.324219 34.273438 L 35.160156 26.4375 L 37.1875 28.464844 Z M 29.351562 36.300781 "/>
<path style=" stroke:none;fill-rule:nonzero;fill:rgb(36.862745%,36.862745%,36.862745%);fill-opacity:1;" d="M 23.621094 38.890625 C 23.449219 38.890625 23.273438 38.824219 23.144531 38.691406 C 22.878906 38.429688 22.878906 38.003906 23.144531 37.738281 L 24.632812 36.25 C 24.898438 35.984375 25.324219 35.984375 25.585938 36.25 C 25.851562 36.511719 25.851562 36.9375 25.585938 37.203125 L 24.097656 38.691406 C 23.964844 38.824219 23.792969 38.890625 23.621094 38.890625 Z M 23.621094 38.890625 "/>
</g>
</svg>
