<?xml version='1.0' encoding='UTF-8'?>
<svg x="0px" y="0px" viewBox="0 0 32 32" version="1.1" xmlns="http://www.w3.org/2000/svg" xmlns:xlink="http://www.w3.org/1999/xlink" xml:space="preserve" id="Layer_1">
  <g id="AddGroupHeader">
    <rect x="6" y="8" width="14" height="6" rx="0" ry="0" fill="#1177D7" class="Blue" />
    <g opacity="0.75" class="st0">
      <path d="M20,18H6v-2h14V18z M20,20H6v2h14V20z M20,24H6v2h14V24z" fill="#727272" opacity="0.75" class="Black" />
    </g>
    <path d="M22,28H4V6h16h2h0.2l1.6-1.6C23.6,4.2,23.3,4,23,4H3C2.5,4,2,4.5,2,5v24c0,0.5,0.5,1,1,1h20c0.5,0,1-0.5,1-1   v-9.2l-2-2V28z" fill="#727272" class="Black" />
    <polygon points="30,7 27,10 24,7 22,9 25,12 22,15 24,17 27,14 30,17 32,15 29,12 32,9  " fill="#D11C1C" class="Red" />
  </g>
</svg>