<?xml version="1.0" encoding="UTF-8"?>
<svg xmlns="http://www.w3.org/2000/svg" xmlns:xlink="http://www.w3.org/1999/xlink" width="32pt" height="32pt" viewBox="0 0 32 32" version="1.1">
<g id="surface1">
<path style=" stroke:none;fill-rule:nonzero;fill:rgb(100%,71.764706%,50.980392%);fill-opacity:1;" d="M 30.058594 9.128906 L 24.285156 3.34375 L 24.285156 26.523438 L 32.011719 26.523438 L 32.011719 13.824219 C 32.011719 12.0625 31.308594 10.371094 30.058594 9.128906 Z M 30.058594 9.128906 "/>
<path style=" stroke:none;fill-rule:nonzero;fill:rgb(87.058824%,29.803922%,23.529412%);fill-opacity:1;" d="M 4.511719 22.300781 L 0.148438 10.96875 C -0.289062 9.832031 0.277344 8.554688 1.414062 8.117188 L 22.015625 0.179688 C 23.152344 -0.257812 24.429688 0.308594 24.867188 1.449219 L 29.234375 12.777344 C 29.671875 13.914062 29.105469 15.195312 27.96875 15.632812 L 7.367188 23.566406 C 6.226562 24.003906 4.953125 23.4375 4.511719 22.300781 Z M 4.511719 22.300781 "/>
<path style=" stroke:none;fill-rule:nonzero;fill:rgb(47.843137%,28.627451%,18.823529%);fill-opacity:1;" d="M 26.441406 5.53125 L 1.742188 15.105469 L 3.386719 19.375 L 28.085938 9.804688 Z M 26.441406 5.53125 "/>
<path style=" stroke:none;fill-rule:nonzero;fill:rgb(26.27451%,59.607843%,81.960784%);fill-opacity:1;" d="M 0 14.382812 L 0 2.242188 C 0 1.019531 0.988281 0.03125 2.207031 0.03125 L 24.285156 0.03125 C 25.503906 0.03125 26.492188 1.019531 26.492188 2.242188 L 26.492188 14.382812 C 26.492188 15.601562 25.503906 16.589844 24.285156 16.589844 L 2.207031 16.589844 C 0.988281 16.589844 0 15.601562 0 14.382812 Z M 0 14.382812 "/>
<path style=" stroke:none;fill-rule:nonzero;fill:rgb(24.313725%,54.901961%,78.039216%);fill-opacity:1;" d="M 24.285156 0.03125 L 21.9375 0.03125 L 5.382812 16.589844 L 24.285156 16.589844 C 25.503906 16.589844 26.492188 15.601562 26.492188 14.382812 L 26.492188 2.242188 C 26.492188 1.019531 25.503906 0.03125 24.285156 0.03125 Z M 24.285156 0.03125 "/>
<path style=" stroke:none;fill-rule:nonzero;fill:rgb(36.862745%,70.196078%,81.960784%);fill-opacity:1;" d="M 2.207031 8.863281 L 4.414062 8.863281 L 4.414062 9.96875 L 2.207031 9.96875 Z M 2.207031 8.863281 "/>
<path style=" stroke:none;fill-rule:nonzero;fill:rgb(36.862745%,70.196078%,81.960784%);fill-opacity:1;" d="M 2.207031 12.175781 L 4.414062 12.175781 L 4.414062 13.277344 L 2.207031 13.277344 Z M 2.207031 12.175781 "/>
<path style=" stroke:none;fill-rule:nonzero;fill:rgb(36.862745%,70.196078%,81.960784%);fill-opacity:1;" d="M 12.140625 12.175781 L 14.351562 12.175781 L 14.351562 13.277344 L 12.140625 13.277344 Z M 12.140625 12.175781 "/>
<path style=" stroke:none;fill-rule:nonzero;fill:rgb(36.862745%,70.196078%,81.960784%);fill-opacity:1;" d="M 5.519531 8.863281 L 7.726562 8.863281 L 7.726562 9.96875 L 5.519531 9.96875 Z M 5.519531 8.863281 "/>
<path style=" stroke:none;fill-rule:nonzero;fill:rgb(36.862745%,70.196078%,81.960784%);fill-opacity:1;" d="M 8.832031 8.863281 L 11.039062 8.863281 L 11.039062 9.96875 L 8.832031 9.96875 Z M 8.832031 8.863281 "/>
<path style=" stroke:none;fill-rule:nonzero;fill:rgb(36.862745%,70.196078%,81.960784%);fill-opacity:1;" d="M 12.140625 8.863281 L 14.351562 8.863281 L 14.351562 9.96875 L 12.140625 9.96875 Z M 12.140625 8.863281 "/>
<path style=" stroke:none;fill-rule:nonzero;fill:rgb(36.862745%,70.196078%,81.960784%);fill-opacity:1;" d="M 22.628906 2.242188 L 23.730469 2.242188 L 23.730469 3.894531 L 22.628906 3.894531 Z M 22.628906 2.242188 "/>
<path style=" stroke:none;fill-rule:nonzero;fill:rgb(36.862745%,70.196078%,81.960784%);fill-opacity:1;" d="M 20.421875 2.242188 L 21.523438 2.242188 L 21.523438 3.894531 L 20.421875 3.894531 Z M 20.421875 2.242188 "/>
<path style=" stroke:none;fill-rule:nonzero;fill:rgb(36.862745%,70.196078%,81.960784%);fill-opacity:1;" d="M 18.214844 2.242188 L 19.316406 2.242188 L 19.316406 3.894531 L 18.214844 3.894531 Z M 18.214844 2.242188 "/>
<path style=" stroke:none;fill-rule:nonzero;fill:rgb(36.862745%,70.196078%,81.960784%);fill-opacity:1;" d="M 16.003906 2.242188 L 17.109375 2.242188 L 17.109375 3.894531 L 16.003906 3.894531 Z M 16.003906 2.242188 "/>
<path style=" stroke:none;fill-rule:nonzero;fill:rgb(53.333333%,70.196078%,21.568627%);fill-opacity:1;" d="M 22.078125 26.523438 L 32.011719 26.523438 L 32.011719 32.042969 L 22.078125 32.042969 Z M 22.078125 26.523438 "/>
<path style=" stroke:none;fill-rule:nonzero;fill:rgb(100%,71.764706%,50.980392%);fill-opacity:1;" d="M 20.457031 10.003906 C 19.519531 9.070312 18.003906 9.074219 17.074219 10.007812 C 16.171875 10.914062 16.140625 12.367188 17 13.3125 L 21.523438 18.246094 C 20.164062 20.625 20.222656 23.558594 21.675781 25.882812 L 22.078125 26.523438 L 29.25 26.523438 L 29.25 18.796875 Z M 20.457031 10.003906 "/>
<path style=" stroke:none;fill-rule:nonzero;fill:rgb(41.960784%,58.823529%,16.470588%);fill-opacity:1;" d="M 23.730469 28.179688 L 24.835938 28.179688 L 24.835938 29.285156 L 23.730469 29.285156 Z M 23.730469 28.179688 "/>
<path style=" stroke:none;fill-rule:nonzero;fill:rgb(99.215686%,71.372549%,18.431373%);fill-opacity:1;" d="M 2.207031 5.773438 L 2.207031 3.125 C 2.207031 2.636719 2.601562 2.242188 3.089844 2.242188 L 5.738281 2.242188 C 6.226562 2.242188 6.621094 2.636719 6.621094 3.125 L 6.621094 5.773438 C 6.621094 6.261719 6.226562 6.65625 5.738281 6.65625 L 3.089844 6.65625 C 2.601562 6.65625 2.207031 6.261719 2.207031 5.773438 Z M 2.207031 5.773438 "/>
<path style=" stroke:none;fill-rule:nonzero;fill:rgb(99.215686%,48.235294%,18.431373%);fill-opacity:1;" d="M 2.207031 3.894531 L 3.863281 3.894531 L 3.863281 5 L 2.207031 5 Z M 2.207031 3.894531 "/>
<path style=" stroke:none;fill-rule:nonzero;fill:rgb(99.215686%,48.235294%,18.431373%);fill-opacity:1;" d="M 4.96875 3.894531 L 6.621094 3.894531 L 6.621094 5 L 4.96875 5 Z M 4.96875 3.894531 "/>
<path style=" stroke:none;fill-rule:nonzero;fill:rgb(94.901961%,64.313725%,43.529412%);fill-opacity:1;" d="M 28.699219 18.796875 C 28.554688 18.796875 28.414062 18.738281 28.308594 18.636719 L 26.101562 16.429688 C 25.890625 16.207031 25.894531 15.859375 26.117188 15.648438 C 26.328125 15.441406 26.667969 15.441406 26.882812 15.648438 L 29.089844 17.855469 C 29.304688 18.070312 29.304688 18.421875 29.089844 18.636719 C 28.984375 18.738281 28.84375 18.796875 28.699219 18.796875 Z M 28.699219 18.796875 "/>
</g>
</svg>
