<?xml version="1.0" encoding="UTF-8"?>
<svg xmlns="http://www.w3.org/2000/svg" xmlns:xlink="http://www.w3.org/1999/xlink" width="32pt" height="32pt" viewBox="0 0 32 32" version="1.1">
<g id="surface1">
<path style=" stroke:none;fill-rule:nonzero;fill:rgb(96.078431%,78.823529%,61.568627%);fill-opacity:1;" d="M 17.871094 27.320312 L 17.871094 17.882812 L 20.714844 17.882812 L 21.652344 18.507812 L 22.589844 17.882812 L 25.433594 17.882812 L 25.433594 27.320312 Z M 17.871094 27.320312 "/>
<path style=" stroke:none;fill-rule:nonzero;fill:rgb(95.294118%,89.803922%,79.607843%);fill-opacity:1;" d="M 6.566406 27.320312 L 6.566406 17.882812 L 9.410156 17.882812 L 10.347656 18.507812 L 11.285156 17.882812 L 14.128906 17.882812 L 14.128906 27.320312 Z M 6.566406 27.320312 "/>
<path style=" stroke:none;fill-rule:nonzero;fill:rgb(90.196078%,63.137255%,37.647059%);fill-opacity:1;" d="M 9.410156 17.882812 L 11.285156 17.882812 L 11.285156 21.324219 L 9.410156 21.324219 Z M 9.410156 17.882812 "/>
<path style=" stroke:none;fill-rule:nonzero;fill:rgb(81.176471%,48.235294%,18.039216%);fill-opacity:1;" d="M 20.714844 17.882812 L 22.589844 17.882812 L 22.589844 21.324219 L 20.714844 21.324219 Z M 20.714844 17.882812 "/>
<path style=" stroke:none;fill-rule:nonzero;fill:rgb(96.078431%,78.823529%,61.568627%);fill-opacity:1;" d="M 17.871094 12.253906 L 17.871094 2.8125 L 20.714844 2.8125 L 21.652344 3.441406 L 22.589844 2.8125 L 25.433594 2.8125 L 25.433594 12.253906 Z M 17.871094 12.253906 "/>
<path style=" stroke:none;fill-rule:nonzero;fill:rgb(95.294118%,89.803922%,79.607843%);fill-opacity:1;" d="M 6.566406 12.253906 L 6.566406 2.8125 L 9.410156 2.8125 L 10.347656 3.441406 L 11.285156 2.8125 L 14.128906 2.8125 L 14.128906 12.253906 Z M 6.566406 12.253906 "/>
<path style=" stroke:none;fill-rule:nonzero;fill:rgb(90.196078%,63.137255%,37.647059%);fill-opacity:1;" d="M 9.410156 2.8125 L 11.285156 2.8125 L 11.285156 6.253906 L 9.410156 6.253906 Z M 9.410156 2.8125 "/>
<path style=" stroke:none;fill-rule:nonzero;fill:rgb(81.176471%,48.235294%,18.039216%);fill-opacity:1;" d="M 20.714844 2.8125 L 22.589844 2.8125 L 22.589844 6.253906 L 20.714844 6.253906 Z M 20.714844 2.8125 "/>
<path style=" stroke:none;fill-rule:nonzero;fill:rgb(70.588235%,82.352941%,84.313725%);fill-opacity:1;" d="M 1.875 0 L 3.75 0 L 3.75 32 L 1.875 32 Z M 1.875 0 "/>
<path style=" stroke:none;fill-rule:nonzero;fill:rgb(47.45098%,60.784314%,68.627451%);fill-opacity:1;" d="M 28.25 0 L 30.125 0 L 30.125 32 L 28.25 32 Z M 28.25 0 "/>
<path style=" stroke:none;fill-rule:nonzero;fill:rgb(100%,15.686275%,15.686275%);fill-opacity:1;" d="M 32 10.375 L 16 10.375 L 14.75 12.253906 L 16 14.128906 L 32 14.128906 Z M 32 10.375 "/>
<path style=" stroke:none;fill-rule:nonzero;fill:rgb(100%,15.686275%,15.686275%);fill-opacity:1;" d="M 32 29.199219 L 32 25.445312 L 16 25.445312 L 14.75 27.320312 L 16 29.199219 Z M 32 29.199219 "/>
<path style=" stroke:none;fill-rule:nonzero;fill:rgb(100%,39.215686%,14.901961%);fill-opacity:1;" d="M 0 25.445312 L 16 25.445312 L 16 29.199219 L 0 29.199219 Z M 0 25.445312 "/>
<path style=" stroke:none;fill-rule:nonzero;fill:rgb(100%,39.215686%,14.901961%);fill-opacity:1;" d="M 0 10.375 L 16 10.375 L 16 14.128906 L 0 14.128906 Z M 0 10.375 "/>
</g>
</svg>
