<?xml version="1.0" encoding="UTF-8"?>
<svg xmlns="http://www.w3.org/2000/svg" xmlns:xlink="http://www.w3.org/1999/xlink" width="32pt" height="32pt" viewBox="0 0 32 32" version="1.1">
<g id="surface1">
<path style=" stroke:none;fill-rule:nonzero;fill:rgb(65.882353%,92.156863%,98.039216%);fill-opacity:1;" d="M 10.71875 24.933594 L 9.886719 20.78125 L 8.015625 22.652344 C 6.472656 20.804688 5.632812 18.496094 5.632812 16.054688 C 5.632812 14.078125 6.195312 12.15625 7.253906 10.503906 L 2.410156 7.648438 C 0.832031 10.167969 0 13.078125 0 16.0625 C 0 19.992188 1.425781 23.714844 4.03125 26.636719 L 2.113281 28.554688 L 7.671875 29.667969 L 12.179688 30.800781 Z M 10.71875 24.933594 "/>
<path style=" stroke:none;fill-rule:nonzero;fill:rgb(99.215686%,74.901961%,0%);fill-opacity:1;" d="M 16 15.136719 C 17.554688 15.136719 18.8125 16.390625 18.8125 17.949219 C 18.8125 19.164062 18.023438 20.195312 16.9375 20.589844 L 16.9375 22.550781 L 15.0625 22.550781 L 15.0625 20.589844 C 13.976562 20.195312 13.1875 19.210938 13.1875 17.992188 L 15.0625 17.992188 C 15.0625 18.515625 15.476562 18.882812 16 18.882812 C 16.523438 18.882812 16.9375 18.472656 16.9375 17.949219 C 16.9375 17.421875 16.523438 17.011719 16 17.011719 C 14.445312 17.011719 13.1875 15.753906 13.1875 14.199219 C 13.1875 12.980469 13.976562 11.949219 15.0625 11.558594 L 15.0625 9.496094 L 16.9375 9.496094 L 16.9375 11.558594 C 18.023438 11.949219 18.8125 12.960938 18.8125 14.179688 L 16.9375 14.179688 C 16.9375 13.65625 16.523438 13.261719 16 13.261719 C 15.476562 13.261719 15.0625 13.675781 15.0625 14.199219 C 15.0625 14.722656 15.476562 15.136719 16 15.136719 Z M 16 15.136719 "/>
<path style=" stroke:none;fill-rule:nonzero;fill:rgb(100%,56.862745%,0%);fill-opacity:1;" d="M 16 15.136719 C 17.554688 15.136719 18.8125 16.390625 18.8125 17.949219 C 18.8125 19.164062 18.023438 20.195312 16.9375 20.589844 L 16.9375 22.550781 L 16 22.550781 L 16 18.882812 C 16.523438 18.882812 16.9375 18.472656 16.9375 17.949219 C 16.9375 17.421875 16.523438 17.011719 16 17.011719 Z M 16 15.136719 "/>
<path style=" stroke:none;fill-rule:nonzero;fill:rgb(100%,56.862745%,0%);fill-opacity:1;" d="M 16 13.261719 L 16 9.496094 L 16.9375 9.496094 L 16.9375 11.558594 C 18.023438 11.949219 18.8125 12.960938 18.8125 14.179688 L 16.9375 14.179688 C 16.9375 13.65625 16.523438 13.261719 16 13.261719 Z M 16 13.261719 "/>
<path style=" stroke:none;fill-rule:nonzero;fill:rgb(49.411765%,84.705882%,96.470588%);fill-opacity:1;" d="M 24.414062 2.460938 L 21.546875 7.316406 C 19.898438 6.246094 17.949219 5.722656 16 5.722656 C 13.621094 5.722656 11.242188 6.527344 9.402344 8.066406 L 11.277344 9.9375 L 1.550781 11.886719 L 3.5 2.160156 L 5.410156 4.09375 C 8.335938 1.488281 12.066406 0.0625 16 0.0625 C 18.980469 0.0625 21.886719 0.886719 24.414062 2.460938 Z M 24.414062 2.460938 "/>
<path style=" stroke:none;fill-rule:nonzero;fill:rgb(40%,75.294118%,93.333333%);fill-opacity:1;" d="M 24.414062 2.460938 L 21.546875 7.316406 C 19.898438 6.246094 17.949219 5.722656 16 5.722656 L 16 0.0625 C 18.980469 0.0625 21.886719 0.886719 24.414062 2.460938 Z M 24.414062 2.460938 "/>
<path style=" stroke:none;fill-rule:nonzero;fill:rgb(49.411765%,84.705882%,96.470588%);fill-opacity:1;" d="M 27.972656 5.472656 L 29.886719 3.554688 L 20.167969 1.609375 L 22.113281 11.328125 L 23.984375 9.457031 C 25.527344 11.304688 26.367188 13.613281 26.367188 16.054688 C 26.367188 18.03125 25.808594 19.953125 24.75 21.605469 L 29.605469 24.449219 C 31.171875 21.941406 32 19.039062 32 16.0625 C 32 12.121094 30.574219 8.394531 27.972656 5.472656 Z M 27.972656 5.472656 "/>
<path style=" stroke:none;fill-rule:nonzero;fill:rgb(49.411765%,84.705882%,96.470588%);fill-opacity:1;" d="M 30.429688 20.222656 L 28.5 29.949219 L 26.589844 28.019531 C 23.664062 30.621094 19.9375 32.046875 16 32.046875 C 13.078125 32.046875 10.226562 31.257812 7.734375 29.722656 L 6.128906 25.050781 L 10.773438 24.980469 C 12.363281 25.917969 14.183594 26.386719 16 26.386719 C 18.378906 26.386719 20.742188 25.582031 22.597656 24.042969 L 20.722656 22.171875 Z M 30.429688 20.222656 "/>
<path style=" stroke:none;fill-rule:nonzero;fill:rgb(65.882353%,92.156863%,98.039216%);fill-opacity:1;" d="M 4.03125 26.636719 L 2.113281 28.554688 L 7.671875 29.667969 L 12.179688 30.800781 L 10.71875 24.933594 L 9.886719 20.78125 Z M 4.03125 26.636719 "/>
<path style=" stroke:none;fill-rule:nonzero;fill:rgb(40%,75.294118%,93.333333%);fill-opacity:1;" d="M 30.429688 20.222656 L 28.5 29.949219 L 26.589844 28.019531 C 23.664062 30.621094 19.9375 32.046875 16 32.046875 L 16 26.386719 C 18.378906 26.386719 20.742188 25.582031 22.597656 24.042969 L 20.722656 22.171875 Z M 30.429688 20.222656 "/>
</g>
</svg>
