<?xml version='1.0' encoding='UTF-8'?>
<svg x="0px" y="0px" viewBox="0 0 32 32" version="1.1" xmlns="http://www.w3.org/2000/svg" xmlns:xlink="http://www.w3.org/1999/xlink" xml:space="preserve" id="Layer_1">
  <g id="Hotel_1_">
    <path d="M27,6h-5V3c0-0.5-0.4-1-1-1H11c-0.6,0-1,0.5-1,1v3H5C4.4,6,4,6.5,4,7v22c0,0.5,0.4,1,1,1h9v-8h4v8h9   c0.6,0,1-0.5,1-1V7C28,6.5,27.6,6,27,6z M12,26H8v-4h4V26z M12,20H8v-4h4V20z M12,14H8v-4h3h1V14z M18,20h-4v-4h4V20z M18,14h-4v-4   h4V14z M24,26h-4v-4h4V26z M24,20h-4v-4h4V20z M24,14h-4v-4h1h3V14z" fill="#727272" class="Black" />
  </g>
</svg>